<svg xmlns="http://www.w3.org/2000/svg" xmlns:xlink="http://www.w3.org/1999/xlink" width="64" zoomAndPan="magnify" viewBox="0 0 48 48" height="64" preserveAspectRatio="xMidYMid meet" version="1.0"><defs><clipPath id="d802a52988"><path d="M 2.785156 16 L 45.398438 16 L 45.398438 30 L 2.785156 30 Z M 2.785156 16 " clip-rule="nonzero"/></clipPath><clipPath id="ca26f39d0c"><path d="M 33 26 L 41 26 L 41 32.78125 L 33 32.78125 Z M 33 26 " clip-rule="nonzero"/></clipPath><clipPath id="4dcd44be3e"><path d="M 7 26 L 15 26 L 15 32.78125 L 7 32.78125 Z M 7 26 " clip-rule="nonzero"/></clipPath><clipPath id="daf7572d35"><path d="M 18 14.414062 L 24 14.414062 L 24 17 L 18 17 Z M 18 14.414062 " clip-rule="nonzero"/></clipPath></defs><g clip-path="url(#d802a52988)"><path fill="#000000" d="M 3.464844 29.523438 C 2.910156 28.132812 2.792969 26.785156 2.855469 25.667969 C 6.566406 25.226562 6.328125 22.453125 6.222656 21.824219 C 8.457031 20.804688 10.824219 19.371094 10.824219 19.371094 C 17.234375 15.554688 27.828125 16.511719 33.714844 20.882812 C 34.402344 21.394531 37.476562 21.890625 39.875 22.300781 C 39.976562 22.679688 41.324219 27.402344 44.957031 25.886719 C 45.398438 27.664062 44.960938 29.523438 43.425781 29.523438 L 41.109375 29.523438 C 41.109375 27.226562 39.253906 25.363281 36.96875 25.363281 C 34.683594 25.363281 32.832031 27.226562 32.832031 29.523438 L 15.132812 29.523438 C 15.132812 27.226562 13.277344 25.363281 10.992188 25.363281 C 8.707031 25.363281 6.855469 27.226562 6.855469 29.523438 Z M 21.949219 18.730469 L 21.949219 22.261719 L 32.699219 22.261719 C 29.929688 20.207031 25.945312 18.964844 21.949219 18.730469 Z M 20.304688 22.261719 L 20.304688 18.691406 C 17.144531 18.726562 14.078125 19.414062 11.703125 20.839844 C 11.035156 21.242188 10.195312 21.757812 9.253906 22.261719 Z M 25.019531 24.421875 C 25.636719 24.421875 25.636719 23.476562 25.019531 23.476562 L 23.074219 23.476562 C 22.457031 23.476562 22.457031 24.421875 23.074219 24.421875 Z M 13.390625 24.421875 C 14.007812 24.421875 14.007812 23.476562 13.390625 23.476562 L 11.449219 23.476562 C 10.828125 23.476562 10.828125 24.421875 11.449219 24.421875 Z M 2.957031 24.703125 C 3.136719 23.535156 3.464844 22.785156 3.464844 22.785156 C 3.980469 22.707031 4.628906 22.496094 5.328125 22.210938 C 5.367188 22.859375 5.210938 24.347656 2.957031 24.703125 Z M 40.914062 22.484375 C 41.519531 22.59375 42.035156 22.691406 42.382812 22.785156 C 43.425781 23.054688 44.203125 23.945312 44.65625 24.992188 C 42.40625 25.953125 41.28125 23.523438 40.914062 22.484375 Z M 40.914062 22.484375 " fill-opacity="1" fill-rule="evenodd"/></g><g clip-path="url(#ca26f39d0c)"><path fill="#000000" d="M 36.96875 26.308594 C 35.203125 26.308594 33.769531 27.75 33.769531 29.523438 C 33.769531 31.300781 35.203125 32.742188 36.96875 32.742188 C 38.734375 32.742188 40.167969 31.300781 40.167969 29.523438 C 40.167969 27.75 38.734375 26.308594 36.96875 26.308594 Z M 36.96875 28.09375 C 36.183594 28.09375 35.542969 28.734375 35.542969 29.523438 C 35.542969 30.316406 36.183594 30.957031 36.96875 30.957031 C 37.757812 30.957031 38.394531 30.316406 38.394531 29.523438 C 38.394531 28.734375 37.757812 28.09375 36.96875 28.09375 Z M 36.96875 28.09375 " fill-opacity="1" fill-rule="evenodd"/></g><g clip-path="url(#4dcd44be3e)"><path fill="#000000" d="M 10.992188 26.308594 C 9.226562 26.308594 7.792969 27.75 7.792969 29.523438 C 7.792969 31.300781 9.226562 32.742188 10.992188 32.742188 C 12.761719 32.742188 14.191406 31.300781 14.191406 29.523438 C 14.191406 27.75 12.761719 26.308594 10.992188 26.308594 Z M 10.992188 28.09375 C 10.207031 28.09375 9.570312 28.734375 9.570312 29.523438 C 9.570312 30.316406 10.207031 30.957031 10.992188 30.957031 C 11.78125 30.957031 12.417969 30.316406 12.417969 29.523438 C 12.417969 28.734375 11.78125 28.09375 10.992188 28.09375 Z M 10.992188 28.09375 " fill-opacity="1" fill-rule="evenodd"/></g><g clip-path="url(#daf7572d35)"><path fill="#000000" d="M 23.007812 16.144531 L 23.007812 15.121094 C 23.007812 14.753906 22.707031 14.453125 22.34375 14.453125 L 19.609375 14.453125 C 19.246094 14.453125 18.945312 14.753906 18.945312 15.121094 L 18.945312 16.082031 C 20.289062 15.996094 21.652344 16.019531 23.007812 16.144531 Z M 23.007812 16.144531 " fill-opacity="1" fill-rule="evenodd"/></g></svg>