<svg xmlns="http://www.w3.org/2000/svg" xmlns:xlink="http://www.w3.org/1999/xlink" width="64" zoomAndPan="magnify" viewBox="0 0 48 48" height="64" preserveAspectRatio="xMidYMid meet" version="1.0"><defs><clipPath id="bdbccc23bb"><path d="M 24 8.089844 L 35 8.089844 L 35 14 L 24 14 Z M 24 8.089844 " clip-rule="nonzero"/></clipPath><clipPath id="accc773cb8"><path d="M 2.460938 10 L 26 10 L 26 39.679688 L 2.460938 39.679688 Z M 2.460938 10 " clip-rule="nonzero"/></clipPath><clipPath id="39733711eb"><path d="M 36 14 L 44.339844 14 L 44.339844 25 L 36 25 Z M 36 14 " clip-rule="nonzero"/></clipPath></defs><g clip-path="url(#bdbccc23bb)"><path fill="#000000" d="M 26.539062 9.75 L 24.800781 10.660156 L 26.449219 13.597656 L 27.460938 13.074219 C 29.46875 12.03125 31.695312 11.480469 33.957031 11.457031 L 34.925781 11.445312 L 34.925781 8.085938 L 32.433594 8.183594 C 30.378906 8.261719 28.363281 8.796875 26.539062 9.75 " fill-opacity="1" fill-rule="nonzero"/></g><g clip-path="url(#accc773cb8)"><path fill="#000000" d="M 20.539062 25.59375 C 21.078125 26.222656 21.210938 27.117188 20.886719 27.878906 L 17.433594 34.949219 C 17.421875 34.96875 17.414062 34.988281 17.40625 35.007812 C 17.054688 35.796875 16.273438 36.308594 15.414062 36.308594 C 15.148438 36.308594 14.886719 36.257812 14.636719 36.164062 L 10.132812 34.425781 L 13.34375 27.011719 L 17.972656 22.585938 Z M 23.363281 10.59375 L 16.039062 13.253906 L 14.324219 11.796875 L 6.570312 16.035156 C 4.699219 16.894531 4.03125 20.589844 4.78125 21.921875 L 7.082031 25.257812 L 2.964844 34.695312 C 2.464844 35.902344 3.035156 37.292969 4.238281 37.792969 L 5.851562 38.46875 C 6.945312 38.925781 8.179688 38.496094 8.777344 37.511719 L 13.433594 39.308594 C 14.070312 39.554688 14.738281 39.679688 15.414062 39.679688 C 17.585938 39.679688 19.5625 38.394531 20.457031 36.40625 L 23.914062 29.332031 C 23.925781 29.3125 23.933594 29.292969 23.945312 29.273438 C 24.367188 28.3125 24.511719 27.253906 24.359375 26.210938 C 24.210938 25.171875 23.769531 24.199219 23.085938 23.402344 L 20.40625 20.261719 L 25.863281 15.046875 L 23.363281 10.59375 " fill-opacity="1" fill-rule="nonzero"/></g><g clip-path="url(#39733711eb)"><path fill="#000000" d="M 40.339844 14.160156 C 40.339844 14.160156 36.335938 18.753906 36.335938 20.972656 C 36.335938 23.191406 38.128906 24.988281 40.339844 24.988281 C 42.546875 24.988281 44.335938 23.191406 44.335938 20.972656 C 44.335938 18.753906 40.339844 14.160156 40.339844 14.160156 " fill-opacity="1" fill-rule="nonzero"/></g></svg>