<svg xmlns="http://www.w3.org/2000/svg" xmlns:xlink="http://www.w3.org/1999/xlink" width="64" zoomAndPan="magnify" viewBox="0 0 48 48" height="64" preserveAspectRatio="xMidYMid meet" version="1.0"><defs><clipPath id="791b17fb09"><path d="M 3 9.738281 L 45 9.738281 L 45 36.921875 L 3 36.921875 Z M 3 9.738281 " clip-rule="nonzero"/></clipPath></defs><g clip-path="url(#791b17fb09)"><path fill="#000000" d="M 43.382812 22.339844 C 41.597656 15.667969 39.542969 11.28125 34.804688 10.019531 C 34.082031 9.828125 33.398438 9.734375 32.722656 9.734375 C 31.292969 9.734375 30.144531 10.15625 29.027344 10.566406 C 28 10.941406 26.855469 11.351562 25.273438 11.492188 L 24.085938 11.527344 C 24.085938 11.53125 20.503906 11.019531 19.257812 10.558594 C 18.148438 10.152344 17 9.730469 15.578125 9.730469 C 14.898438 9.730469 14.214844 9.824219 13.492188 10.019531 C 8.75 11.28125 6.695312 15.667969 4.914062 22.339844 C 2.847656 30.070312 3.417969 35.25 6.480469 36.558594 C 6.976562 36.769531 7.503906 36.878906 8.039062 36.878906 C 10.757812 36.878906 13.261719 34.074219 15.089844 32.027344 L 15.585938 31.460938 C 17.074219 29.753906 20.199219 28.773438 24.148438 28.773438 C 28.445312 28.773438 31.085938 29.601562 32.710938 31.464844 L 33.207031 32.03125 C 35.03125 34.078125 37.535156 36.878906 40.257812 36.878906 C 40.792969 36.878906 41.316406 36.769531 41.8125 36.558594 C 44.871094 35.25 45.445312 30.070312 43.382812 22.339844 Z M 17.644531 22.863281 L 15.601562 22.863281 L 15.601562 24.804688 C 15.601562 25.515625 14.964844 26.113281 14.210938 26.113281 C 13.453125 26.113281 12.8125 25.515625 12.8125 24.804688 L 12.8125 22.863281 L 10.894531 22.863281 C 10.171875 22.863281 9.558594 22.238281 9.558594 21.496094 C 9.558594 20.753906 10.171875 20.128906 10.894531 20.128906 L 12.8125 20.128906 L 12.8125 18.1875 C 12.8125 17.476562 13.453125 16.875 14.210938 16.875 C 14.964844 16.875 15.601562 17.476562 15.601562 18.1875 L 15.601562 20.128906 L 17.644531 20.128906 C 18.371094 20.128906 18.984375 20.753906 18.984375 21.496094 C 18.984375 22.238281 18.371094 22.863281 17.644531 22.863281 Z M 32.152344 25.242188 C 31.019531 25.242188 30.101562 24.34375 30.101562 23.234375 C 30.101562 22.125 31.023438 21.226562 32.152344 21.226562 C 33.28125 21.226562 34.199219 22.125 34.199219 23.234375 C 34.199219 24.34375 33.28125 25.242188 32.152344 25.242188 Z M 35.976562 21.496094 C 34.847656 21.496094 33.929688 20.59375 33.929688 19.484375 C 33.929688 18.378906 34.847656 17.476562 35.976562 17.476562 C 37.105469 17.476562 38.027344 18.378906 38.027344 19.484375 C 38.027344 20.59375 37.105469 21.496094 35.976562 21.496094 Z M 35.976562 21.496094 " fill-opacity="1" fill-rule="nonzero"/></g></svg>