<svg xmlns="http://www.w3.org/2000/svg" xmlns:xlink="http://www.w3.org/1999/xlink" width="64" zoomAndPan="magnify" viewBox="0 0 48 48" height="64" preserveAspectRatio="xMidYMid meet" version="1.0"><defs><clipPath id="a277816e10"><path d="M 2.839844 2.351562 L 45.453125 2.351562 L 45.453125 44.964844 L 2.839844 44.964844 Z M 2.839844 2.351562 " clip-rule="nonzero"/></clipPath><clipPath id="9e7560afa9"><path d="M 2.839844 3 L 35 3 L 35 44 L 2.839844 44 Z M 2.839844 3 " clip-rule="nonzero"/></clipPath><clipPath id="91c67ef0bf"><path d="M 14 3 L 45.453125 3 L 45.453125 44 L 14 44 Z M 14 3 " clip-rule="nonzero"/></clipPath></defs><path fill="#000000" d="M 43.894531 23.65625 C 43.894531 24.304688 43.863281 24.949219 43.800781 25.59375 C 43.734375 26.238281 43.640625 26.875 43.515625 27.507812 C 43.386719 28.144531 43.230469 28.769531 43.042969 29.390625 C 42.855469 30.007812 42.636719 30.617188 42.390625 31.214844 C 42.144531 31.8125 41.867188 32.394531 41.5625 32.964844 C 41.257812 33.535156 40.925781 34.089844 40.566406 34.628906 C 40.207031 35.164062 39.820312 35.683594 39.410156 36.183594 C 39 36.683594 38.566406 37.164062 38.109375 37.621094 C 37.652344 38.078125 37.175781 38.511719 36.675781 38.921875 C 36.175781 39.332031 35.65625 39.71875 35.117188 40.078125 C 34.582031 40.4375 34.027344 40.769531 33.457031 41.074219 C 32.886719 41.378906 32.300781 41.652344 31.703125 41.902344 C 31.105469 42.148438 30.5 42.367188 29.878906 42.554688 C 29.261719 42.742188 28.632812 42.898438 28 43.023438 C 27.363281 43.152344 26.726562 43.246094 26.082031 43.308594 C 25.4375 43.371094 24.792969 43.402344 24.148438 43.402344 C 23.5 43.402344 22.855469 43.371094 22.210938 43.308594 C 21.566406 43.246094 20.929688 43.152344 20.292969 43.023438 C 19.660156 42.898438 19.035156 42.742188 18.414062 42.554688 C 17.796875 42.367188 17.1875 42.148438 16.589844 41.902344 C 15.992188 41.652344 15.410156 41.378906 14.839844 41.074219 C 14.269531 40.769531 13.714844 40.4375 13.175781 40.078125 C 12.636719 39.71875 12.121094 39.332031 11.621094 38.921875 C 11.121094 38.511719 10.640625 38.078125 10.183594 37.621094 C 9.726562 37.164062 9.292969 36.683594 8.882812 36.183594 C 8.472656 35.683594 8.085938 35.164062 7.726562 34.628906 C 7.367188 34.089844 7.035156 33.535156 6.730469 32.964844 C 6.425781 32.394531 6.152344 31.8125 5.902344 31.214844 C 5.65625 30.617188 5.4375 30.007812 5.25 29.390625 C 5.0625 28.769531 4.90625 28.144531 4.777344 27.507812 C 4.652344 26.875 4.558594 26.238281 4.496094 25.59375 C 4.429688 24.949219 4.398438 24.304688 4.398438 23.65625 C 4.398438 23.011719 4.429688 22.363281 4.496094 21.722656 C 4.558594 21.078125 4.652344 20.4375 4.777344 19.804688 C 4.90625 19.171875 5.0625 18.542969 5.25 17.925781 C 5.4375 17.304688 5.65625 16.699219 5.902344 16.101562 C 6.152344 15.503906 6.425781 14.917969 6.730469 14.347656 C 7.035156 13.777344 7.367188 13.222656 7.726562 12.6875 C 8.085938 12.148438 8.472656 11.628906 8.882812 11.128906 C 9.292969 10.628906 9.726562 10.152344 10.183594 9.695312 C 10.640625 9.238281 11.121094 8.800781 11.621094 8.390625 C 12.121094 7.980469 12.636719 7.597656 13.175781 7.238281 C 13.714844 6.878906 14.269531 6.546875 14.839844 6.242188 C 15.410156 5.9375 15.992188 5.660156 16.589844 5.414062 C 17.1875 5.164062 17.796875 4.949219 18.414062 4.761719 C 19.035156 4.574219 19.660156 4.414062 20.292969 4.289062 C 20.929688 4.164062 21.566406 4.070312 22.210938 4.003906 C 22.855469 3.941406 23.5 3.910156 24.148438 3.910156 C 24.792969 3.910156 25.4375 3.941406 26.082031 4.003906 C 26.726562 4.070312 27.363281 4.164062 28 4.289062 C 28.632812 4.414062 29.261719 4.574219 29.878906 4.761719 C 30.5 4.949219 31.105469 5.164062 31.703125 5.414062 C 32.300781 5.660156 32.886719 5.9375 33.457031 6.242188 C 34.027344 6.546875 34.582031 6.878906 35.117188 7.238281 C 35.65625 7.597656 36.175781 7.980469 36.675781 8.390625 C 37.175781 8.800781 37.652344 9.238281 38.109375 9.695312 C 38.566406 10.152344 39 10.628906 39.410156 11.128906 C 39.820312 11.628906 40.207031 12.148438 40.566406 12.6875 C 40.925781 13.222656 41.257812 13.777344 41.5625 14.347656 C 41.867188 14.917969 42.144531 15.503906 42.390625 16.101562 C 42.636719 16.699219 42.855469 17.304688 43.042969 17.925781 C 43.230469 18.542969 43.386719 19.171875 43.515625 19.804688 C 43.640625 20.4375 43.734375 21.078125 43.800781 21.722656 C 43.863281 22.363281 43.894531 23.011719 43.894531 23.65625 Z M 43.894531 23.65625 " fill-opacity="1" fill-rule="nonzero"/><g clip-path="url(#a277816e10)"><path stroke-linecap="butt" transform="matrix(0.207865, 0, 0, 0.207865, 3.360477, 2.870684)" fill="none" stroke-linejoin="miter" d="M 195.002198 99.9957 C 195.002198 103.115219 194.85186 106.215945 194.551183 109.316671 C 194.231715 112.417398 193.7807 115.48054 193.179347 118.524889 C 192.559201 121.588031 191.80751 124.594796 190.905481 127.582769 C 190.003451 130.551949 188.951083 133.483545 187.76717 136.358764 C 186.583256 139.233983 185.249004 142.034033 183.783206 144.777706 C 182.317408 147.521379 180.720064 150.189883 178.991174 152.783218 C 177.262285 155.35776 175.401849 157.857134 173.428659 160.262546 C 171.45547 162.667958 169.369527 164.979408 167.17083 167.178105 C 164.972133 169.376802 162.679474 171.462745 160.274062 173.435935 C 157.86865 175.409124 155.369277 177.26956 152.775942 178.99845 C 150.2014 180.72734 147.532896 182.324684 144.789223 183.790482 C 142.04555 185.25628 139.226708 186.571739 136.351489 187.774445 C 133.47627 188.958359 130.563466 190.010727 127.575493 190.912756 C 124.606313 191.814786 121.580756 192.566477 118.536406 193.16783 C 115.473264 193.787975 112.410122 194.23899 109.309396 194.539666 C 106.20867 194.840343 103.107943 194.990681 100.007217 194.990681 C 96.887698 194.990681 93.786972 194.840343 90.686245 194.539666 C 87.585519 194.23899 84.522377 193.787975 81.459235 193.16783 C 78.414886 192.566477 75.408121 191.814786 72.420148 190.912756 C 69.450968 190.010727 66.519372 188.958359 63.644153 187.774445 C 60.768934 186.571739 57.968884 185.25628 55.225211 183.790482 C 52.481538 182.324684 49.813034 180.72734 47.219699 178.99845 C 44.626364 177.26956 42.145783 175.409124 39.740371 173.435935 C 37.334959 171.462745 35.023508 169.376802 32.824812 167.178105 C 30.626115 164.979408 28.540171 162.667958 26.566982 160.262546 C 24.593792 157.857134 22.733357 155.35776 21.004467 152.783218 C 19.275577 150.189883 17.678233 147.521379 16.212435 144.777706 C 14.746637 142.034033 13.431177 139.233983 12.228471 136.358764 C 11.044558 133.483545 9.99219 130.551949 9.09016 127.582769 C 8.188131 124.594796 7.43644 121.588031 6.816294 118.524889 C 6.214941 115.48054 5.763927 112.417398 5.46325 109.316671 C 5.143781 106.215945 4.993443 103.115219 4.993443 99.9957 C 4.993443 96.894974 5.143781 93.775455 5.46325 90.693521 C 5.763927 87.592794 6.214941 84.51086 6.816294 81.466511 C 7.43644 78.422161 8.188131 75.396604 9.09016 72.427423 C 9.99219 69.439451 11.044558 66.526647 12.228471 63.651428 C 13.431177 60.776209 14.746637 57.957367 16.212435 55.213694 C 17.678233 52.470021 19.275577 49.801517 21.004467 47.226974 C 22.733357 44.63364 24.593792 42.134266 26.566982 39.728854 C 28.540171 37.323442 30.626115 35.030784 32.824812 32.832087 C 35.023508 30.63339 37.334959 28.528655 39.740371 26.555465 C 42.145783 24.582276 44.626364 22.740632 47.219699 21.011742 C 49.813034 19.282852 52.481538 17.685508 55.225211 16.21971 C 57.968884 14.753913 60.768934 13.419661 63.644153 12.235747 C 66.519372 11.033041 69.450968 9.999465 72.420148 9.097436 C 75.408121 8.195406 78.414886 7.424923 81.459235 6.82357 C 84.522377 6.222217 87.585519 5.771202 90.686245 5.451733 C 93.786972 5.151057 96.887698 5.000719 100.007217 5.000719 C 103.107943 5.000719 106.20867 5.151057 109.309396 5.451733 C 112.410122 5.771202 115.473264 6.222217 118.536406 6.82357 C 121.580756 7.424923 124.606313 8.195406 127.575493 9.097436 C 130.563466 9.999465 133.47627 11.033041 136.351489 12.235747 C 139.226708 13.419661 142.04555 14.753913 144.789223 16.21971 C 147.532896 17.685508 150.2014 19.282852 152.775942 21.011742 C 155.369277 22.740632 157.86865 24.582276 160.274062 26.555465 C 162.679474 28.528655 164.972133 30.63339 167.17083 32.832087 C 169.369527 35.030784 171.45547 37.323442 173.428659 39.728854 C 175.401849 42.134266 177.262285 44.63364 178.991174 47.226974 C 180.720064 49.801517 182.317408 52.470021 183.783206 55.213694 C 185.249004 57.957367 186.583256 60.776209 187.76717 63.651428 C 188.951083 66.526647 190.003451 69.439451 190.905481 72.427423 C 191.80751 75.396604 192.559201 78.422161 193.179347 81.466511 C 193.7807 84.51086 194.231715 87.592794 194.551183 90.693521 C 194.85186 93.775455 195.002198 96.894974 195.002198 99.9957 Z M 195.002198 99.9957 " stroke="#000000" stroke-width="15" stroke-opacity="1" stroke-miterlimit="10"/></g><path stroke-linecap="butt" transform="matrix(0.207865, 0, 0, 0.207865, 3.360477, 2.870684)" fill-opacity="1" fill="#ffffff" fill-rule="nonzero" stroke-linejoin="miter" d="M 112.504084 99.9957 C 112.504084 101.649421 112.184615 103.246765 111.545677 104.787732 C 110.90674 106.309906 110.00471 107.662951 108.839589 108.846864 C 107.674467 110.011986 106.321423 110.914015 104.780456 111.552953 C 103.258281 112.19189 101.660938 112.492567 100.007217 112.492567 C 98.334704 112.492567 96.756152 112.19189 95.215185 111.552953 C 93.69301 110.914015 92.339966 110.011986 91.156052 108.846864 C 89.990931 107.662951 89.088901 106.309906 88.449964 104.787732 C 87.811026 103.246765 87.491558 101.649421 87.491558 99.9957 C 87.491558 98.341979 87.811026 96.744635 88.449964 95.22246 C 89.088901 93.681493 89.990931 92.328449 91.156052 91.163328 C 92.339966 89.998206 93.69301 89.077385 95.215185 88.457239 C 96.756152 87.818302 98.334704 87.498833 100.007217 87.498833 C 101.660938 87.498833 103.258281 87.818302 104.780456 88.457239 C 106.321423 89.077385 107.674467 89.998206 108.839589 91.163328 C 110.00471 92.328449 110.90674 93.681493 111.545677 95.22246 C 112.184615 96.744635 112.504084 98.341979 112.504084 99.9957 Z M 112.504084 99.9957 " stroke="#ffffff" stroke-width="6" stroke-opacity="1" stroke-miterlimit="10"/><path fill="#ffffff" d="M 16.582031 23.65625 C 16.582031 24 16.515625 24.332031 16.382812 24.652344 C 16.25 24.96875 16.0625 25.25 15.820312 25.496094 C 15.578125 25.738281 15.296875 25.925781 14.976562 26.058594 C 14.660156 26.191406 14.328125 26.253906 13.984375 26.253906 C 13.636719 26.253906 13.304688 26.191406 12.988281 26.058594 C 12.667969 25.925781 12.390625 25.738281 12.144531 25.496094 C 11.902344 25.25 11.714844 24.96875 11.582031 24.652344 C 11.449219 24.332031 11.382812 24 11.382812 23.65625 C 11.382812 23.3125 11.449219 22.980469 11.582031 22.664062 C 11.714844 22.34375 11.902344 22.0625 12.144531 21.820312 C 12.390625 21.578125 12.667969 21.386719 12.988281 21.257812 C 13.304688 21.125 13.636719 21.058594 13.984375 21.058594 C 14.328125 21.058594 14.660156 21.125 14.976562 21.257812 C 15.296875 21.386719 15.578125 21.578125 15.820312 21.820312 C 16.0625 22.0625 16.25 22.34375 16.382812 22.664062 C 16.515625 22.980469 16.582031 23.3125 16.582031 23.65625 Z M 16.582031 23.65625 " fill-opacity="1" fill-rule="nonzero"/><g clip-path="url(#9e7560afa9)"><path stroke-linecap="butt" transform="matrix(0.207865, 0, 0, 0.207865, 3.360477, 2.870684)" fill="none" stroke-linejoin="miter" d="M 63.606568 99.9957 C 63.606568 101.649421 63.287099 103.246765 62.648162 104.787732 C 62.009224 106.309906 61.107195 107.662951 59.942073 108.846864 C 58.776952 110.011986 57.423908 110.914015 55.882941 111.552953 C 54.360766 112.19189 52.763422 112.492567 51.109701 112.492567 C 49.437188 112.492567 47.839844 112.19189 46.317669 111.552953 C 44.776702 110.914015 43.44245 110.011986 42.258537 108.846864 C 41.093415 107.662951 40.191386 106.309906 39.552448 104.787732 C 38.913511 103.246765 38.594042 101.649421 38.594042 99.9957 C 38.594042 98.341979 38.913511 96.744635 39.552448 95.22246 C 40.191386 93.681493 41.093415 92.328449 42.258537 91.163328 C 43.44245 89.998206 44.776702 89.077385 46.317669 88.457239 C 47.839844 87.818302 49.437188 87.498833 51.109701 87.498833 C 52.763422 87.498833 54.360766 87.818302 55.882941 88.457239 C 57.423908 89.077385 58.776952 89.998206 59.942073 91.163328 C 61.107195 92.328449 62.009224 93.681493 62.648162 95.22246 C 63.287099 96.744635 63.606568 98.341979 63.606568 99.9957 Z M 63.606568 99.9957 " stroke="#ffffff" stroke-width="6" stroke-opacity="1" stroke-miterlimit="10"/></g><path fill="#ffffff" d="M 36.910156 23.65625 C 36.910156 24 36.84375 24.332031 36.710938 24.652344 C 36.578125 24.96875 36.390625 25.25 36.148438 25.496094 C 35.90625 25.738281 35.625 25.925781 35.304688 26.058594 C 34.988281 26.191406 34.65625 26.253906 34.3125 26.253906 C 33.964844 26.253906 33.636719 26.191406 33.316406 26.058594 C 33 25.925781 32.71875 25.738281 32.472656 25.496094 C 32.230469 25.25 32.042969 24.96875 31.910156 24.652344 C 31.777344 24.332031 31.714844 24 31.714844 23.65625 C 31.714844 23.3125 31.777344 22.980469 31.910156 22.664062 C 32.042969 22.34375 32.230469 22.0625 32.472656 21.820312 C 32.71875 21.578125 33 21.386719 33.316406 21.257812 C 33.636719 21.125 33.964844 21.058594 34.3125 21.058594 C 34.65625 21.058594 34.988281 21.125 35.304688 21.257812 C 35.625 21.386719 35.90625 21.578125 36.148438 21.820312 C 36.390625 22.0625 36.578125 22.34375 36.710938 22.664062 C 36.84375 22.980469 36.910156 23.3125 36.910156 23.65625 Z M 36.910156 23.65625 " fill-opacity="1" fill-rule="nonzero"/><g clip-path="url(#91c67ef0bf)"><path stroke-linecap="butt" transform="matrix(0.207865, 0, 0, 0.207865, 3.360477, 2.870684)" fill="none" stroke-linejoin="miter" d="M 161.401599 99.9957 C 161.401599 101.649421 161.082131 103.246765 160.443193 104.787732 C 159.804255 106.309906 158.902226 107.662951 157.737104 108.846864 C 156.571983 110.011986 155.218939 110.914015 153.677972 111.552953 C 152.155797 112.19189 150.558453 112.492567 148.904732 112.492567 C 147.232219 112.492567 145.653668 112.19189 144.112701 111.552953 C 142.590526 110.914015 141.237482 110.011986 140.053568 108.846864 C 138.888446 107.662951 137.986417 106.309906 137.347479 104.787732 C 136.708542 103.246765 136.407865 101.649421 136.407865 99.9957 C 136.407865 98.341979 136.708542 96.744635 137.347479 95.22246 C 137.986417 93.681493 138.888446 92.328449 140.053568 91.163328 C 141.237482 89.998206 142.590526 89.077385 144.112701 88.457239 C 145.653668 87.818302 147.232219 87.498833 148.904732 87.498833 C 150.558453 87.498833 152.155797 87.818302 153.677972 88.457239 C 155.218939 89.077385 156.571983 89.998206 157.737104 91.163328 C 158.902226 92.328449 159.804255 93.681493 160.443193 95.22246 C 161.082131 96.744635 161.401599 98.341979 161.401599 99.9957 Z M 161.401599 99.9957 " stroke="#ffffff" stroke-width="6" stroke-opacity="1" stroke-miterlimit="10"/></g></svg>