<svg xmlns="http://www.w3.org/2000/svg" xmlns:xlink="http://www.w3.org/1999/xlink" width="64" zoomAndPan="magnify" viewBox="0 0 48 48" height="64" preserveAspectRatio="xMidYMid meet" version="1.0"><defs><clipPath id="c56196cb30"><path d="M 15 11.203125 L 39 11.203125 L 39 30 L 15 30 Z M 15 11.203125 " clip-rule="nonzero"/></clipPath><clipPath id="9cd5c257fd"><path d="M 2.089844 18 L 46.171875 18 L 46.171875 36.179688 L 2.089844 36.179688 Z M 2.089844 18 " clip-rule="nonzero"/></clipPath></defs><g clip-path="url(#c56196cb30)"><path fill="#000000" d="M 36.089844 11.308594 C 35.996094 11.25 35.890625 11.203125 35.761719 11.203125 L 31.746094 11.203125 C 31.417969 11.203125 31.148438 11.472656 31.148438 11.804688 L 31.148438 15.5 L 19.652344 15.511719 L 16.625 15.511719 L 15.039062 18.285156 C 15.402344 18.460938 15.753906 18.652344 16.082031 18.863281 L 16.964844 17.300781 L 23.421875 28.292969 L 20.757812 28.292969 C 20.722656 28.707031 20.664062 29.109375 20.59375 29.5 L 24.429688 29.5 C 24.453125 29.5 24.464844 29.511719 24.488281 29.511719 C 24.640625 29.511719 24.773438 29.441406 24.878906 29.335938 C 24.902344 29.3125 24.914062 29.300781 24.9375 29.277344 C 24.960938 29.253906 24.996094 29.226562 25.007812 29.203125 L 28.128906 23.671875 L 29.492188 21.257812 L 31.78125 17.207031 L 32.683594 18.507812 C 33.035156 18.320312 33.414062 18.140625 33.789062 18 L 32.34375 15.902344 L 32.34375 12.398438 L 35.351562 12.398438 C 36.253906 12.398438 36.992188 13.144531 36.992188 14.054688 C 36.992188 14.96875 36.253906 15.714844 35.351562 15.714844 C 35.019531 15.714844 34.75 15.988281 34.75 16.316406 C 34.75 16.648438 35.019531 16.921875 35.351562 16.921875 C 36.910156 16.921875 38.191406 15.644531 38.191406 14.054688 C 38.191406 12.730469 37.296875 11.628906 36.089844 11.308594 Z M 24.488281 27.710938 L 18.019531 16.707031 L 30.722656 16.695312 Z M 24.488281 27.710938 " fill-opacity="1" fill-rule="nonzero"/></g><path fill="#000000" d="M 19.886719 13.285156 C 19.886719 13.960938 19.347656 14.503906 18.679688 14.503906 L 15.273438 14.503906 C 14.605469 14.503906 14.0625 13.960938 14.0625 13.285156 C 14.0625 12.609375 14.605469 12.066406 15.273438 12.066406 L 18.679688 12.066406 C 19.335938 12.066406 19.886719 12.609375 19.886719 13.285156 Z M 19.886719 13.285156 " fill-opacity="1" fill-rule="nonzero"/><g clip-path="url(#9cd5c257fd)"><path fill="#000000" d="M 19.429688 27.453125 C 19.429688 27.734375 19.417969 28.019531 19.382812 28.304688 L 10.753906 28.316406 L 15.402344 20.097656 C 17.808594 21.636719 19.429688 24.347656 19.429688 27.453125 Z M 9.71875 29.511719 C 9.507812 29.511719 9.308594 29.394531 9.203125 29.214844 C 9.097656 29.027344 9.097656 28.800781 9.203125 28.613281 L 14.359375 19.503906 C 13.265625 18.996094 12.058594 18.710938 10.777344 18.710938 C 6.011719 18.710938 2.125 22.632812 2.125 27.441406 C 2.125 32.25 6.011719 36.167969 10.777344 36.167969 C 14.851562 36.167969 18.253906 33.316406 19.183594 29.5 Z M 37.488281 18.710938 C 36.488281 18.710938 35.539062 18.886719 34.644531 19.207031 L 39.035156 25.542969 C 39.222656 25.816406 39.164062 26.195312 38.894531 26.386719 C 38.789062 26.457031 38.671875 26.492188 38.554688 26.492188 C 38.367188 26.492188 38.179688 26.398438 38.0625 26.230469 L 33.519531 19.695312 C 30.734375 21.152344 28.820312 24.074219 28.820312 27.453125 C 28.820312 32.261719 32.707031 36.179688 37.476562 36.179688 C 42.242188 36.179688 46.128906 32.261719 46.128906 27.453125 C 46.140625 22.632812 42.253906 18.710938 37.488281 18.710938 Z M 37.488281 18.710938 " fill-opacity="1" fill-rule="nonzero"/></g></svg>