<svg xmlns="http://www.w3.org/2000/svg" xmlns:xlink="http://www.w3.org/1999/xlink" width="64" zoomAndPan="magnify" viewBox="0 0 48 48" height="64" preserveAspectRatio="xMidYMid meet" version="1.0"><defs><clipPath id="b236011216"><path d="M 10.023438 2.351562 L 37.945312 2.351562 L 37.945312 44.964844 L 10.023438 44.964844 Z M 10.023438 2.351562 " clip-rule="nonzero"/></clipPath></defs><g clip-path="url(#b236011216)"><path fill="#040606" d="M 29.929688 27.15625 C 29.929688 25.683594 31.121094 24.480469 32.585938 24.480469 C 34.046875 24.480469 35.238281 25.683594 35.238281 27.15625 C 35.238281 28.632812 34.046875 29.832031 32.585938 29.832031 C 31.121094 29.832031 29.929688 28.632812 29.929688 27.15625 Z M 17.425781 40.019531 L 18.167969 37.761719 L 29.800781 37.761719 L 30.542969 40.019531 Z M 15.386719 29.832031 C 13.921875 29.832031 12.730469 28.632812 12.730469 27.15625 C 12.730469 25.683594 13.921875 24.480469 15.386719 24.480469 C 16.847656 24.480469 18.039062 25.683594 18.039062 27.15625 C 18.039062 28.632812 16.847656 29.832031 15.386719 29.832031 Z M 28.867188 34.917969 L 29.339844 36.355469 L 18.632812 36.355469 L 19.105469 34.917969 Z M 19.628906 28.707031 L 28.34375 28.707031 C 28.535156 28.707031 28.6875 28.863281 28.6875 29.054688 C 28.6875 29.25 28.535156 29.40625 28.34375 29.40625 L 19.628906 29.40625 C 19.4375 29.40625 19.28125 29.25 19.28125 29.054688 C 19.28125 28.863281 19.4375 28.707031 19.628906 28.707031 Z M 19.28125 22.398438 C 19.28125 22.207031 19.4375 22.050781 19.628906 22.050781 L 28.34375 22.050781 C 28.535156 22.050781 28.6875 22.207031 28.6875 22.398438 C 28.6875 22.589844 28.535156 22.746094 28.34375 22.746094 L 19.628906 22.746094 C 19.4375 22.746094 19.28125 22.589844 19.28125 22.398438 Z M 19.628906 25.378906 L 28.34375 25.378906 C 28.535156 25.378906 28.6875 25.535156 28.6875 25.726562 C 28.6875 25.921875 28.535156 26.074219 28.34375 26.074219 L 19.628906 26.074219 C 19.4375 26.074219 19.28125 25.921875 19.28125 25.726562 C 19.28125 25.535156 19.4375 25.378906 19.628906 25.378906 Z M 13.078125 9.265625 C 13.078125 7.992188 14.105469 6.960938 15.363281 6.960938 L 32.605469 6.960938 C 33.867188 6.960938 34.890625 7.992188 34.890625 9.265625 L 34.890625 17.191406 L 13.078125 17.191406 Z M 37.941406 29.542969 L 37.941406 9.265625 C 37.941406 6.292969 35.550781 3.886719 32.605469 3.886719 L 29.898438 3.886719 L 29.898438 3.117188 C 29.898438 2.695312 29.554688 2.351562 29.136719 2.351562 L 18.835938 2.351562 C 18.414062 2.351562 18.074219 2.695312 18.074219 3.117188 L 18.074219 3.886719 L 15.363281 3.886719 C 12.417969 3.886719 10.027344 6.292969 10.027344 9.265625 L 10.027344 29.542969 C 10.027344 32.511719 12.417969 34.917969 15.363281 34.917969 L 16.914062 34.917969 L 16.441406 36.355469 L 13.839844 36.355469 C 13.421875 36.355469 13.078125 36.671875 13.078125 37.058594 C 13.078125 37.445312 13.421875 37.761719 13.839844 37.761719 L 15.980469 37.761719 L 15.238281 40.019531 L 11.113281 40.019531 C 10.695312 40.019531 10.351562 40.363281 10.351562 40.789062 L 10.351562 41.011719 C 10.351562 41.433594 10.695312 41.777344 11.113281 41.777344 L 14.65625 41.777344 L 14.0625 43.585938 C 13.882812 44.132812 14.175781 44.726562 14.71875 44.910156 C 14.828125 44.945312 14.941406 44.960938 15.046875 44.960938 C 15.484375 44.960938 15.890625 44.683594 16.035156 44.246094 L 16.84375 41.777344 L 31.125 41.777344 L 31.9375 44.246094 C 32.082031 44.683594 32.488281 44.960938 32.921875 44.960938 C 33.03125 44.960938 33.140625 44.945312 33.25 44.910156 C 33.792969 44.726562 34.089844 44.132812 33.90625 43.585938 L 33.3125 41.777344 L 36.855469 41.777344 C 37.273438 41.777344 37.617188 41.433594 37.617188 41.011719 L 37.617188 40.789062 C 37.617188 40.363281 37.273438 40.019531 36.855469 40.019531 L 32.734375 40.019531 L 31.992188 37.761719 L 34.128906 37.761719 C 34.550781 37.761719 34.890625 37.445312 34.890625 37.058594 C 34.890625 36.671875 34.550781 36.355469 34.128906 36.355469 L 31.527344 36.355469 L 31.054688 34.917969 L 32.605469 34.917969 C 35.550781 34.917969 37.941406 32.511719 37.941406 29.542969 " fill-opacity="1" fill-rule="nonzero"/></g></svg>