<svg xmlns="http://www.w3.org/2000/svg" xmlns:xlink="http://www.w3.org/1999/xlink" width="64" zoomAndPan="magnify" viewBox="0 0 48 48" height="64" preserveAspectRatio="xMidYMid meet" version="1.0"><defs><clipPath id="5e834ec073"><path d="M 2 15.191406 L 46.082031 15.191406 L 46.082031 32.089844 L 2 32.089844 Z M 2 15.191406 " clip-rule="nonzero"/></clipPath></defs><g clip-path="url(#5e834ec073)"><path fill="#000000" d="M 40.519531 31.058594 C 40.785156 31.097656 40.992188 31.136719 41.140625 31.136719 C 42.382812 31.25 43.621094 31.382812 44.863281 31.554688 C 45.085938 31.59375 45.671875 31.628906 45.839844 31.78125 C 45.859375 31.800781 45.859375 31.800781 45.839844 31.820312 C 45.746094 31.859375 45.6875 31.898438 45.652344 31.898438 C 44.957031 31.972656 44.242188 32.011719 43.527344 32.011719 C 37.550781 32.089844 31.558594 31.878906 25.601562 31.574219 C 24.8125 31.535156 23.570312 31.441406 21.859375 31.308594 C 15.378906 30.773438 9.230469 30.222656 3.425781 29.6875 C 3.125 29.667969 2.898438 29.648438 2.730469 29.628906 C 3.386719 29.613281 4.027344 29.59375 4.683594 29.574219 C 4.703125 29.574219 4.703125 29.574219 4.683594 29.554688 C 3.761719 28.964844 3.3125 27.992188 3.164062 26.90625 C 3.164062 26.867188 3.144531 26.847656 3.105469 26.828125 L 2.089844 26.238281 C 2.035156 26.203125 2.015625 26.125 2.054688 26.066406 C 2.277344 25.726562 2.484375 25.535156 2.410156 25.097656 C 2.335938 24.660156 2.277344 24.238281 2.203125 23.820312 C 2.128906 23.382812 2.089844 23.058594 2.089844 22.847656 C 2.109375 22.046875 2.390625 21.097656 2.578125 20.449219 C 2.671875 20.105469 2.710938 19.839844 3.050781 19.6875 C 3.351562 19.550781 3.632812 19.476562 3.914062 19.4375 C 4.683594 19.34375 5.53125 19.285156 6.449219 19.265625 C 7.351562 19.246094 8.199219 19.230469 9.007812 19.304688 C 9.851562 19.382812 10.605469 19.78125 11.375 20.164062 C 11.46875 20.21875 11.695312 20.21875 11.824219 20.21875 C 15.507812 20.257812 18.777344 20.21875 22.875 20.238281 C 24.171875 20.238281 25.355469 20.277344 26.410156 20.332031 C 29.359375 20.503906 32.214844 21.097656 34.996094 22.125 C 35.277344 22.21875 35.578125 22.371094 35.859375 22.488281 C 35.878906 22.488281 35.878906 22.488281 35.878906 22.46875 C 35.878906 22.46875 35.878906 22.449219 35.878906 22.449219 C 33.003906 20.65625 29.585938 19.875 26.257812 19.859375 C 24.039062 19.839844 22.253906 19.839844 20.902344 19.859375 C 20.847656 19.859375 20.828125 19.839844 20.789062 19.820312 C 20.152344 19.039062 19.492188 18.296875 18.816406 17.550781 C 18.121094 16.789062 17.40625 16.179688 16.335938 16.066406 C 13.480469 15.78125 10.378906 17.113281 7.972656 18.714844 C 7.972656 18.714844 7.953125 18.714844 7.953125 18.734375 C 7.933594 18.753906 7.953125 18.753906 7.953125 18.734375 C 10.097656 17.457031 12.652344 16.3125 15.171875 16.179688 C 15.996094 16.144531 16.863281 16.238281 17.574219 16.695312 C 17.933594 16.941406 18.347656 17.285156 18.796875 17.78125 C 19.417969 18.449219 20 19.132812 20.582031 19.820312 C 20.582031 19.820312 20.582031 19.839844 20.582031 19.839844 C 18.929688 19.839844 17.257812 19.839844 15.601562 19.839844 C 14.476562 19.839844 13.347656 19.875 12.203125 19.839844 C 11.863281 19.820312 11.410156 19.550781 11.113281 19.398438 C 10.679688 19.191406 10.304688 19.039062 9.890625 19.019531 C 9.0625 18.980469 8.125 18.980469 7.035156 19.058594 C 7.015625 19.058594 7.015625 19.058594 7.035156 19.039062 C 9.851562 17.074219 12.765625 15.667969 16.167969 15.398438 C 18.964844 15.191406 22.03125 15.378906 24.90625 15.78125 C 25.222656 15.820312 25.5625 15.894531 25.917969 16.007812 C 28.304688 16.695312 30.65625 18.007812 32.628906 19.191406 C 32.664062 19.210938 32.664062 19.230469 32.628906 19.230469 C 32.347656 19.210938 32.046875 19.191406 31.78125 19.191406 C 30.167969 19.171875 28.53125 19.191406 26.914062 19.210938 C 26.914062 19.210938 26.898438 19.210938 26.914062 19.230469 C 26.914062 19.230469 26.914062 19.230469 26.914062 19.246094 C 28.625 19.34375 30.335938 19.476562 32.046875 19.648438 C 35.878906 20.027344 39.617188 20.90625 43.171875 22.410156 C 43.171875 22.410156 43.191406 22.410156 43.191406 22.410156 C 43.207031 22.410156 43.207031 22.390625 43.191406 22.390625 C 42.003906 21.707031 40.785156 21.097656 39.523438 20.542969 C 39.449219 20.503906 39.449219 20.484375 39.542969 20.484375 C 41.628906 20.503906 44.109375 20.714844 45.332031 22.734375 C 45.351562 22.753906 45.332031 22.773438 45.3125 22.773438 C 43.414062 23.039062 41.515625 23.363281 39.542969 23.25 C 38.003906 23.152344 36.460938 23 34.902344 22.867188 C 31.988281 22.640625 29.09375 22.296875 26.183594 22.011719 C 26.183594 22.011719 26.183594 22.011719 26.164062 22.011719 C 26.164062 22.011719 26.164062 22.011719 26.164062 22.027344 C 27.308594 22.523438 28.4375 23.039062 29.585938 23.535156 C 30.28125 23.839844 31.085938 24.183594 31.914062 24.21875 C 32.683594 24.257812 33.566406 24.296875 34.582031 24.296875 C 34.65625 24.296875 34.695312 24.316406 34.75 24.238281 C 35.335938 23.535156 36.105469 23.210938 37.027344 23.265625 C 37.832031 23.304688 38.625 23.402344 39.414062 23.457031 C 40.410156 23.535156 41.347656 23.496094 42.324219 23.363281 C 42.738281 23.304688 43.019531 23.285156 43.171875 23.304688 C 43.753906 23.363281 44.1875 23.707031 44.449219 24.296875 C 44.449219 24.316406 44.46875 24.316406 44.484375 24.316406 L 45.765625 24.183594 C 45.78125 24.183594 45.78125 24.183594 45.78125 24.199219 L 45.894531 24.867188 C 45.894531 24.886719 45.875 24.90625 45.859375 24.90625 C 43.433594 25.039062 40.992188 25.117188 38.566406 25.097656 C 35.785156 25.058594 33.304688 24.925781 30.785156 24.886719 C 30.785156 24.886719 30.785156 24.90625 30.785156 24.90625 C 30.863281 24.925781 30.917969 24.925781 30.992188 24.925781 C 33.378906 25.132812 35.746094 25.363281 38.132812 25.554688 C 39.09375 25.628906 39.957031 25.726562 40.878906 25.628906 C 42.457031 25.476562 44.542969 25.171875 45.894531 24.964844 C 45.914062 24.964844 45.914062 24.964844 45.933594 24.980469 L 46.007812 26.390625 C 46.007812 26.410156 45.988281 26.429688 45.972656 26.429688 L 43.527344 26.753906 C 43.507812 26.753906 43.492188 26.773438 43.492188 26.792969 C 43.492188 26.792969 43.492188 26.8125 43.507812 26.8125 C 43.527344 26.828125 43.566406 26.847656 43.621094 26.847656 C 44.242188 26.8125 44.882812 26.753906 45.5 26.695312 C 45.519531 26.695312 45.519531 26.695312 45.519531 26.714844 L 45.5 27.191406 C 45.5 27.210938 45.480469 27.210938 45.480469 27.210938 C 45.070312 27.191406 44.675781 27.25 44.335938 27.324219 C 42.832031 27.726562 41.855469 27.972656 41.441406 28.085938 C 40.785156 28.257812 40.3125 28.222656 39.601562 28.085938 C 38.398438 27.859375 37.195312 27.648438 35.972656 27.441406 C 35.730469 27.402344 35.484375 27.363281 35.222656 27.363281 C 33.585938 27.324219 31.933594 27.324219 30.296875 27.363281 C 30.28125 27.363281 30.28125 27.363281 30.261719 27.382812 C 30.261719 27.382812 30.242188 27.382812 30.242188 27.382812 C 30.222656 27.382812 30.222656 27.382812 30.242188 27.402344 C 30.242188 27.402344 30.261719 27.402344 30.261719 27.402344 C 30.261719 27.402344 30.28125 27.402344 30.28125 27.402344 C 31.726562 27.476562 33.15625 27.554688 34.601562 27.609375 C 34.863281 27.628906 35.109375 27.628906 35.390625 27.6875 C 36.742188 27.898438 38.117188 28.125 39.46875 28.335938 C 40.296875 28.46875 40.691406 28.542969 41.367188 28.375 C 42.90625 27.992188 43.902344 27.761719 44.335938 27.648438 C 44.65625 27.574219 45.707031 27.363281 45.933594 27.667969 C 46.066406 27.820312 45.988281 28.277344 45.972656 28.488281 C 45.914062 29.097656 45.371094 29.210938 44.882812 29.269531 C 44.316406 29.34375 43.753906 29.402344 43.191406 29.460938 C 43.171875 29.460938 43.152344 29.476562 43.152344 29.476562 C 42.570312 30.507812 41.6875 30.90625 40.519531 31.058594 C 40.484375 31.039062 40.484375 31.058594 40.519531 31.058594 Z M 5.644531 21.382812 C 6.921875 21.800781 7.804688 23.496094 8.234375 24.640625 C 8.234375 24.640625 8.253906 24.660156 8.253906 24.640625 C 8.253906 24.640625 8.253906 24.640625 8.253906 24.621094 C 8.011719 23.171875 7.050781 20.351562 5.078125 20.773438 C 4.347656 20.925781 3.59375 21.570312 3.105469 22.183594 C 3.105469 22.183594 3.105469 22.183594 3.105469 22.199219 C 3.105469 22.199219 3.105469 22.199219 3.125 22.199219 C 3.859375 21.609375 4.628906 21.058594 5.644531 21.382812 Z M 10.492188 21.648438 L 22.125 23.820312 C 22.140625 23.820312 22.160156 23.820312 22.160156 23.800781 C 22.347656 23.285156 22.613281 22.828125 22.949219 22.429688 C 22.949219 22.429688 22.949219 22.410156 22.949219 22.390625 C 22.949219 22.390625 22.949219 22.390625 22.933594 22.390625 C 18.929688 22.144531 14.925781 21.894531 10.921875 21.667969 C 10.792969 21.628906 10.640625 21.628906 10.492188 21.648438 C 10.492188 21.628906 10.492188 21.628906 10.492188 21.648438 C 10.492188 21.628906 10.492188 21.648438 10.492188 21.648438 Z M 4.214844 28.679688 C 4.496094 28.90625 4.777344 28.984375 5.097656 28.90625 C 5.625 28.773438 6.019531 28.238281 6.207031 27.746094 C 6.5625 26.847656 6.65625 25.839844 6.449219 24.90625 C 6.320312 24.277344 5.925781 23.285156 5.210938 23.132812 C 4.328125 22.945312 3.726562 24.085938 3.539062 24.773438 C 3.238281 25.933594 3.21875 27.859375 4.214844 28.679688 Z M 24.71875 30.527344 C 25.996094 30.527344 27.046875 28.945312 27.046875 26.964844 C 27.066406 25 26.03125 23.402344 24.753906 23.382812 C 23.476562 23.382812 22.425781 24.964844 22.425781 26.945312 C 22.40625 28.925781 23.4375 30.527344 24.71875 30.527344 Z M 10.285156 26.21875 C 13.121094 26.5625 15.960938 26.90625 18.796875 27.25 C 18.816406 27.25 18.816406 27.25 18.835938 27.25 C 18.855469 27.25 18.855469 27.230469 18.835938 27.230469 C 16.65625 26.867188 14.4375 26.5625 12.238281 26.257812 C 11.449219 26.144531 10.8125 26.105469 10.097656 26.183594 C 10.058594 26.183594 10.058594 26.203125 10.097656 26.203125 C 10.152344 26.203125 10.210938 26.21875 10.285156 26.21875 Z M 31.40625 26.734375 C 32.855469 26.886719 34.339844 26.964844 35.898438 26.964844 C 35.917969 26.964844 35.917969 26.964844 35.9375 26.964844 C 35.953125 26.964844 35.953125 26.945312 35.953125 26.945312 C 35.953125 26.925781 35.953125 26.90625 35.9375 26.90625 C 34.453125 26.792969 32.910156 26.675781 31.425781 26.695312 C 31.050781 26.675781 31.050781 26.695312 31.40625 26.734375 Z M 10.640625 29.574219 C 14.476562 29.648438 18.289062 29.746094 22.125 29.917969 C 22.367188 29.933594 22.613281 29.917969 22.875 29.898438 C 22.894531 29.898438 22.914062 29.878906 22.894531 29.859375 C 22.894531 29.839844 22.875 29.839844 22.855469 29.839844 C 22.742188 29.820312 22.632812 29.820312 22.519531 29.820312 C 20.019531 29.78125 17.574219 29.25 15.132812 28.792969 C 14.003906 28.582031 13.234375 28.46875 12.785156 28.410156 C 11.488281 28.277344 10.171875 28.222656 8.875 28.183594 C 8.855469 28.183594 8.835938 28.183594 8.835938 28.203125 C 8.5 28.792969 8.160156 29.230469 7.523438 29.496094 C 7.523438 29.496094 7.503906 29.515625 7.523438 29.515625 C 7.523438 29.515625 7.523438 29.515625 7.539062 29.515625 C 8.574219 29.554688 9.625 29.554688 10.640625 29.574219 Z M 29.714844 30.316406 C 32.664062 30.488281 35.636719 30.621094 38.566406 30.867188 C 38.585938 30.867188 38.585938 30.867188 38.585938 30.851562 C 38.585938 30.851562 38.585938 30.832031 38.566406 30.832031 C 37.945312 30.601562 37.457031 30.222656 37.082031 29.6875 C 37.082031 29.667969 37.0625 29.667969 37.042969 29.667969 L 29.453125 29.820312 C 29.433594 29.820312 29.433594 29.820312 29.414062 29.839844 C 29.339844 29.992188 29.246094 30.125 29.132812 30.238281 C 29.132812 30.238281 29.132812 30.257812 29.132812 30.277344 C 29.132812 30.277344 29.132812 30.277344 29.152344 30.277344 C 29.339844 30.296875 29.527344 30.316406 29.714844 30.316406 Z M 29.714844 30.316406 " fill-opacity="1" fill-rule="nonzero"/></g><path fill="#000000" d="M 3.988281 24.429688 C 4.195312 24.011719 4.496094 23.609375 4.984375 23.515625 C 5.003906 23.515625 5.023438 23.515625 5.023438 23.535156 C 4.984375 24.085938 4.949219 24.621094 4.910156 25.152344 C 4.910156 25.230469 4.871094 25.285156 4.835938 25.324219 C 4.796875 25.34375 4.757812 25.34375 4.742188 25.304688 L 4.027344 24.46875 C 3.96875 24.46875 3.96875 24.449219 3.988281 24.429688 Z M 3.988281 24.429688 " fill-opacity="1" fill-rule="nonzero"/><path fill="#000000" d="M 5.359375 25.515625 C 5.324219 25.476562 5.304688 25.421875 5.324219 25.34375 C 5.378906 24.773438 5.4375 24.21875 5.472656 23.6875 C 5.472656 23.628906 5.492188 23.609375 5.550781 23.648438 C 6 24.011719 6.226562 24.621094 6.320312 25.171875 C 6.320312 25.191406 6.320312 25.210938 6.300781 25.210938 L 5.472656 25.535156 C 5.417969 25.554688 5.378906 25.535156 5.359375 25.515625 Z M 5.359375 25.515625 " fill-opacity="1" fill-rule="nonzero"/><path fill="#000000" d="M 25.113281 23.878906 C 25.84375 24.066406 26.332031 24.792969 26.539062 25.496094 C 26.539062 25.515625 26.539062 25.515625 26.519531 25.535156 L 25.28125 26.203125 C 25.207031 26.238281 25.128906 26.21875 25.09375 26.144531 C 25.074219 26.125 25.074219 26.105469 25.074219 26.066406 L 25.09375 23.894531 C 25.09375 23.894531 25.09375 23.878906 25.113281 23.878906 Z M 25.113281 23.878906 " fill-opacity="1" fill-rule="nonzero"/><path fill="#000000" d="M 23.0625 25.421875 C 23.0625 25.421875 23.042969 25.402344 23.0625 25.402344 C 23.308594 24.734375 23.722656 24.164062 24.398438 23.914062 C 24.417969 23.914062 24.433594 23.914062 24.433594 23.933594 C 24.433594 23.933594 24.433594 23.933594 24.433594 23.953125 C 24.433594 24.640625 24.433594 25.324219 24.433594 26.011719 C 24.433594 26.144531 24.378906 26.203125 24.265625 26.257812 C 24.246094 26.257812 24.226562 26.257812 24.226562 26.257812 C 23.851562 25.933594 23.457031 25.667969 23.0625 25.421875 Z M 23.0625 25.421875 " fill-opacity="1" fill-rule="nonzero"/><path fill="#000000" d="M 3.746094 25.210938 C 3.96875 25.421875 4.308594 25.726562 4.441406 25.898438 C 4.554688 26.050781 4.570312 26.21875 4.457031 26.390625 C 4.253906 26.734375 4.027344 27.058594 3.800781 27.402344 C 3.78125 27.421875 3.78125 27.421875 3.761719 27.402344 C 3.539062 26.734375 3.539062 25.914062 3.707031 25.210938 C 3.707031 25.210938 3.726562 25.210938 3.746094 25.210938 Z M 3.746094 25.210938 " fill-opacity="1" fill-rule="nonzero"/><path fill="#000000" d="M 5.378906 26.660156 C 5.324219 26.542969 5.324219 26.316406 5.472656 26.257812 C 5.753906 26.183594 6.039062 26.085938 6.320312 26.011719 C 6.339844 26.011719 6.355469 26.011719 6.355469 26.03125 C 6.355469 26.695312 6.1875 27.304688 5.886719 27.878906 C 5.867188 27.914062 5.847656 27.914062 5.832031 27.878906 C 5.679688 27.496094 5.550781 27.078125 5.378906 26.660156 Z M 5.378906 26.660156 " fill-opacity="1" fill-rule="nonzero"/><path fill="#000000" d="M 23.964844 27 C 24.246094 27.191406 24.117188 27.496094 23.964844 27.761719 C 23.703125 28.164062 23.476562 28.601562 23.214844 29.019531 C 23.195312 29.039062 23.195312 29.039062 23.175781 29.019531 C 22.78125 28.183594 22.648438 27.304688 22.761719 26.390625 C 22.761719 26.371094 22.78125 26.371094 22.800781 26.371094 C 23.363281 26.640625 23.757812 26.867188 23.964844 27 Z M 23.964844 27 " fill-opacity="1" fill-rule="nonzero"/><path fill="#000000" d="M 25.414062 27.152344 C 25.429688 27.136719 25.449219 27.117188 25.46875 27.097656 L 26.746094 26.507812 C 26.765625 26.507812 26.765625 26.507812 26.765625 26.523438 C 26.839844 27.402344 26.691406 28.277344 26.257812 29.019531 C 26.238281 29.039062 26.21875 29.039062 26.203125 29.039062 C 26.203125 29.039062 26.183594 29.039062 26.183594 29.019531 C 25.957031 28.621094 25.730469 28.203125 25.488281 27.78125 C 25.375 27.535156 25.28125 27.402344 25.414062 27.152344 Z M 25.414062 27.152344 " fill-opacity="1" fill-rule="nonzero"/><path fill="#000000" d="M 5.378906 28.46875 C 4.871094 28.8125 4.363281 28.542969 4.101562 28.066406 C 4.101562 28.050781 4.101562 28.03125 4.101562 28.011719 C 4.308594 27.667969 4.515625 27.324219 4.742188 26.984375 C 4.757812 26.945312 4.796875 26.90625 4.816406 26.90625 C 4.855469 26.867188 4.910156 26.886719 4.949219 26.925781 C 4.949219 26.925781 4.964844 26.945312 4.964844 26.964844 L 5.398438 28.449219 C 5.398438 28.429688 5.398438 28.449219 5.378906 28.46875 Z M 5.378906 28.46875 " fill-opacity="1" fill-rule="nonzero"/><path fill="#000000" d="M 25.65625 29.800781 C 25.019531 30.296875 24.339844 30.296875 23.738281 29.746094 C 23.722656 29.726562 23.722656 29.707031 23.722656 29.6875 L 24.566406 28.144531 C 24.621094 28.050781 24.71875 28.03125 24.8125 28.066406 C 24.847656 28.085938 24.867188 28.105469 24.886719 28.144531 L 25.65625 29.746094 C 25.675781 29.78125 25.675781 29.78125 25.65625 29.800781 Z M 25.65625 29.800781 " fill-opacity="1" fill-rule="nonzero"/></svg>