<svg xmlns="http://www.w3.org/2000/svg" xmlns:xlink="http://www.w3.org/1999/xlink" width="64" zoomAndPan="magnify" viewBox="0 0 48 48" height="64" preserveAspectRatio="xMidYMid meet" version="1.0"><defs><clipPath id="32d6819f47"><path d="M 2.621094 5.5 L 45.234375 5.5 L 45.234375 41.5 L 2.621094 41.5 Z M 2.621094 5.5 " clip-rule="nonzero"/></clipPath></defs><g clip-path="url(#32d6819f47)"><path fill="#000000" d="M 16.507812 25.414062 L 15.457031 24.5625 C 15.28125 24.417969 15.09375 24.300781 14.898438 24.203125 C 14.867188 24.1875 14.851562 24.160156 14.851562 24.125 L 14.851562 22.109375 C 14.851562 22.0625 14.8125 22.023438 14.765625 22.023438 L 13.867188 22.023438 C 13.820312 22.023438 13.78125 21.984375 13.78125 21.9375 L 13.78125 16.464844 C 13.78125 16.433594 13.765625 16.40625 13.738281 16.390625 C 13.710938 16.375 13.683594 16.371094 13.65625 16.386719 L 11.566406 17.5625 C 10.527344 18.144531 9.460938 16.679688 10.335938 15.867188 L 14.917969 11.585938 C 15.1875 11.335938 15.488281 11.167969 15.820312 11.078125 C 15.855469 11.066406 15.878906 11.039062 15.882812 11.003906 C 15.886719 10.96875 15.871094 10.9375 15.84375 10.917969 C 14.984375 10.414062 14.410156 9.480469 14.410156 8.410156 C 14.410156 6.804688 15.707031 5.503906 17.304688 5.503906 C 18.90625 5.503906 20.203125 6.804688 20.203125 8.410156 C 20.203125 9.488281 19.617188 10.425781 18.753906 10.929688 C 18.722656 10.945312 18.707031 10.976562 18.710938 11.011719 C 18.714844 11.046875 18.738281 11.074219 18.769531 11.085938 C 19.09375 11.179688 19.386719 11.355469 19.667969 11.589844 L 23.851562 15.070312 C 23.882812 15.097656 23.929688 15.097656 23.960938 15.070312 L 28.144531 11.589844 C 28.429688 11.351562 28.726562 11.175781 29.054688 11.082031 C 29.089844 11.070312 29.113281 11.042969 29.117188 11.007812 C 29.121094 10.972656 29.105469 10.941406 29.074219 10.925781 C 28.214844 10.421875 27.632812 9.484375 27.632812 8.410156 C 27.632812 6.808594 28.929688 5.503906 30.53125 5.503906 C 32.128906 5.503906 33.425781 6.808594 33.425781 8.410156 C 33.425781 9.484375 32.847656 10.421875 31.988281 10.921875 C 31.957031 10.941406 31.941406 10.972656 31.945312 11.007812 C 31.949219 11.042969 31.972656 11.070312 32.007812 11.082031 C 32.332031 11.171875 32.625 11.339844 32.890625 11.589844 L 37.476562 15.867188 C 38.351562 16.683594 37.285156 18.144531 36.242188 17.5625 L 34.15625 16.386719 C 34.128906 16.375 34.097656 16.375 34.070312 16.390625 C 34.042969 16.40625 34.03125 16.433594 34.03125 16.464844 L 34.03125 23.828125 C 34.03125 23.875 33.996094 23.910156 33.953125 23.914062 C 33.402344 23.972656 32.859375 24.1875 32.398438 24.5625 L 31.128906 25.59375 C 31.105469 25.613281 31.070312 25.617188 31.042969 25.605469 C 31.011719 25.59375 30.992188 25.566406 30.988281 25.535156 L 30.558594 22.023438 L 30.554688 22.023438 C 30.511719 22.023438 30.476562 22.054688 30.472656 22.101562 L 30.011719 26.46875 C 30.007812 26.492188 29.996094 26.511719 29.976562 26.527344 L 27.148438 28.824219 C 27.121094 28.847656 27.085938 28.851562 27.054688 28.835938 C 27.027344 28.820312 27.007812 28.792969 27.007812 28.757812 L 27.007812 16.464844 C 27.007812 16.433594 26.992188 16.40625 26.964844 16.390625 C 26.9375 16.375 26.90625 16.375 26.878906 16.390625 L 23.96875 18.039062 C 23.941406 18.054688 23.910156 18.054688 23.882812 18.039062 L 20.933594 16.386719 C 20.90625 16.371094 20.875 16.371094 20.847656 16.390625 C 20.820312 16.40625 20.804688 16.429688 20.804688 16.464844 L 20.804688 21.9375 C 20.804688 21.984375 20.765625 22.023438 20.71875 22.023438 L 19.820312 22.023438 C 19.773438 22.023438 19.734375 22.0625 19.734375 22.109375 L 19.734375 27.851562 C 19.734375 27.886719 19.71875 27.917969 19.6875 27.929688 C 19.65625 27.945312 19.621094 27.941406 19.597656 27.921875 L 17.96875 26.601562 C 17.949219 26.582031 17.9375 26.558594 17.9375 26.53125 L 17.9375 22.109375 C 17.9375 22.0625 17.898438 22.023438 17.851562 22.023438 L 16.734375 22.023438 C 16.6875 22.023438 16.648438 22.0625 16.648438 22.109375 L 16.648438 25.347656 C 16.648438 25.382812 16.632812 25.410156 16.601562 25.425781 C 16.570312 25.441406 16.535156 25.4375 16.507812 25.414062 Z M 5.722656 11.542969 C 5.554688 10.863281 4.964844 10.402344 4.269531 10.402344 L 4.1875 10.402344 C 3.304688 10.402344 2.621094 11.148438 2.695312 12.03125 C 3.070312 16.5625 2.976562 24.050781 5.121094 27.902344 C 6.675781 30.6875 8.773438 31.648438 10.855469 33.917969 C 13.152344 36.417969 13.457031 37.542969 13.5 40.148438 C 13.511719 40.894531 14.117188 41.492188 14.859375 41.492188 C 17.644531 41.492188 20.429688 41.492188 23.214844 41.492188 C 23.261719 41.492188 23.300781 41.453125 23.300781 41.40625 C 23.300781 39.429688 23.300781 37.453125 23.300781 35.472656 C 23.300781 33.5625 22.515625 31.917969 21.035156 30.714844 L 14.667969 25.542969 C 13.925781 24.941406 12.832031 25.058594 12.234375 25.796875 C 11.859375 26.273438 11.933594 26.953125 12.398438 27.332031 L 17.976562 31.859375 C 18.25 32.082031 18.292969 32.488281 18.066406 32.765625 C 17.84375 33.039062 17.441406 33.082031 17.164062 32.859375 L 11.585938 28.328125 C 10.574219 27.507812 10.414062 26.003906 11.238281 24.984375 C 11.246094 24.976562 11.253906 24.96875 11.261719 24.960938 C 11.292969 24.925781 11.289062 24.871094 11.257812 24.839844 L 9.648438 23.261719 C 8.742188 22.371094 8.175781 21.386719 7.871094 20.152344 Z M 42.132812 11.542969 L 39.988281 20.152344 C 39.679688 21.386719 39.117188 22.371094 38.207031 23.261719 L 36.597656 24.839844 C 36.566406 24.871094 36.5625 24.925781 36.59375 24.960938 C 36.601562 24.96875 36.609375 24.976562 36.617188 24.984375 C 37.441406 26.003906 37.28125 27.507812 36.269531 28.332031 L 30.691406 32.859375 C 30.417969 33.082031 30.011719 33.039062 29.789062 32.765625 C 29.566406 32.488281 29.605469 32.082031 29.882812 31.859375 L 35.457031 27.332031 C 35.921875 26.953125 35.996094 26.273438 35.621094 25.796875 C 35.023438 25.058594 33.929688 24.941406 33.191406 25.542969 L 26.820312 30.714844 C 25.339844 31.917969 24.554688 33.5625 24.554688 35.472656 C 24.554688 37.453125 24.554688 39.429688 24.554688 41.40625 C 24.554688 41.453125 24.59375 41.492188 24.640625 41.492188 C 27.425781 41.492188 30.210938 41.492188 32.996094 41.492188 C 33.738281 41.492188 34.34375 40.894531 34.355469 40.148438 C 34.398438 37.542969 34.707031 36.417969 37 33.917969 C 39.082031 31.648438 41.179688 30.6875 42.734375 27.902344 C 44.878906 24.050781 44.785156 16.5625 45.164062 12.03125 C 45.234375 11.148438 44.550781 10.402344 43.667969 10.402344 L 43.585938 10.402344 C 42.890625 10.402344 42.300781 10.863281 42.132812 11.542969 Z M 42.132812 11.542969 " fill-opacity="1" fill-rule="evenodd"/></g></svg>