<svg xmlns="http://www.w3.org/2000/svg" xmlns:xlink="http://www.w3.org/1999/xlink" width="64" zoomAndPan="magnify" viewBox="0 0 48 48" height="64" preserveAspectRatio="xMidYMid meet" version="1.0"><defs><clipPath id="91897b617a"><path d="M 6.527344 2.769531 L 41.792969 2.769531 L 41.792969 43.914062 L 6.527344 43.914062 Z M 6.527344 2.769531 " clip-rule="nonzero"/></clipPath></defs><g clip-path="url(#91897b617a)"><path fill="#000000" d="M 32.34375 11.621094 C 33.292969 11.621094 34.058594 10.871094 34.058594 9.9375 C 34.058594 9.003906 33.292969 8.253906 32.34375 8.253906 C 31.394531 8.253906 30.628906 9.003906 30.628906 9.9375 C 30.628906 10.871094 31.394531 11.621094 32.34375 11.621094 Z M 31.179688 9.421875 C 31.292969 9.207031 31.453125 9.015625 31.667969 8.914062 C 31.875 8.804688 32.125 8.769531 32.34375 8.824219 C 31.488281 9.039062 31.074219 9.890625 31.488281 10.679688 C 31.304688 10.542969 31.167969 10.351562 31.109375 10.117188 C 31.050781 9.890625 31.085938 9.644531 31.179688 9.421875 Z M 41.792969 42.714844 C 41.792969 43.371094 41.25 43.902344 40.585938 43.902344 C 39.917969 43.902344 39.375 43.371094 39.375 42.714844 C 39.375 42.058594 39.917969 41.527344 40.585938 41.527344 C 41.25 41.527344 41.792969 42.058594 41.792969 42.714844 Z M 39.191406 39.542969 C 39.191406 40.109375 38.71875 40.574219 38.140625 40.574219 C 37.5625 40.574219 37.09375 40.109375 37.09375 39.542969 C 37.09375 38.972656 37.5625 38.511719 38.140625 38.511719 C 38.71875 38.511719 39.191406 38.972656 39.191406 39.542969 Z M 36.058594 16.847656 C 37.179688 16.847656 38.09375 15.957031 38.09375 14.859375 C 38.09375 13.746094 37.179688 12.859375 36.058594 12.859375 C 34.9375 12.859375 34.023438 13.746094 34.023438 14.859375 C 34.023438 15.957031 34.9375 16.847656 36.058594 16.847656 Z M 36.058594 13.25 C 36.960938 13.25 37.691406 13.96875 37.691406 14.859375 C 37.691406 15.734375 36.960938 16.464844 36.058594 16.464844 C 35.15625 16.464844 34.421875 15.734375 34.421875 14.859375 C 34.421875 13.96875 35.15625 13.25 36.058594 13.25 Z M 26.035156 16.65625 C 26.035156 17.800781 26.984375 18.734375 28.148438 18.734375 C 29.328125 18.734375 30.265625 17.800781 30.265625 16.65625 C 30.265625 15.507812 29.328125 14.578125 28.148438 14.578125 C 26.984375 14.578125 26.035156 15.507812 26.035156 16.65625 Z M 27.097656 17.554688 C 26.871094 17.40625 26.699219 17.160156 26.640625 16.867188 C 26.574219 16.585938 26.617188 16.285156 26.722656 16.015625 C 26.859375 15.757812 27.0625 15.519531 27.328125 15.386719 C 27.578125 15.25 27.886719 15.21875 28.148438 15.285156 C 27.085938 15.53125 26.582031 16.597656 27.097656 17.554688 Z M 34.863281 14.289062 C 34.984375 14.058594 35.164062 13.855469 35.394531 13.742188 C 35.625 13.621094 35.890625 13.597656 36.125 13.660156 C 35.214844 13.921875 34.804688 14.789062 35.210938 15.636719 C 35.007812 15.503906 34.851562 15.292969 34.792969 15.042969 C 34.726562 14.796875 34.769531 14.527344 34.863281 14.289062 Z M 37.53125 34.4375 C 37.359375 35.539062 36.402344 36.347656 35.28125 36.347656 L 31.019531 36.347656 C 31.761719 35.472656 32.113281 34.414062 32.171875 33.4375 C 32.195312 32.988281 32.035156 32.5625 31.726562 32.246094 C 31.417969 31.921875 30.984375 31.742188 30.527344 31.742188 C 30.433594 31.742188 30.355469 31.742188 30.265625 31.765625 C 29.773438 31.832031 29.292969 31.875 28.824219 31.875 C 27.488281 31.875 26.207031 31.5625 24.960938 30.898438 L 23.667969 22.652344 L 33.804688 21.742188 L 39.519531 21.742188 Z M 14.789062 24.496094 L 16.871094 23.699219 L 16.800781 23.519531 L 8.734375 3.277344 C 8.59375 2.9375 8.21875 2.78125 7.886719 2.90625 L 7.03125 3.242188 C 6.6875 3.367188 6.527344 3.738281 6.652344 4.074219 L 14.722656 24.316406 Z M 10.011719 11.117188 C 9.488281 9.746094 8.949219 8.375 8.539062 6.960938 C 9.210938 8.273438 9.773438 9.644531 10.332031 10.992188 C 10.859375 12.375 11.394531 13.746094 11.808594 15.160156 C 11.121094 13.847656 10.574219 12.476562 10.011719 11.117188 Z M 35.703125 42.359375 C 35.703125 43.160156 35.042969 43.8125 34.226562 43.8125 C 33.40625 43.8125 32.746094 43.160156 32.746094 42.359375 C 32.746094 41.554688 33.40625 40.90625 34.226562 40.90625 C 35.042969 40.90625 35.703125 41.554688 35.703125 42.359375 Z M 33.054688 38.511719 C 33.054688 38.0625 33.425781 37.703125 33.878906 37.703125 C 34.335938 37.703125 34.703125 38.0625 34.703125 38.511719 C 34.703125 38.960938 34.335938 39.320312 33.878906 39.320312 C 33.425781 39.320312 33.054688 38.960938 33.054688 38.511719 Z M 26.328125 9.972656 C 26.398438 9.835938 26.503906 9.714844 26.644531 9.648438 C 26.777344 9.582031 26.9375 9.570312 27.070312 9.613281 C 26.550781 9.789062 26.332031 10.253906 26.542969 10.757812 C 26.28125 10.617188 26.203125 10.25 26.328125 9.972656 Z M 30.527344 32.585938 C 30.480469 32.585938 30.433594 32.585938 30.390625 32.59375 C 29.863281 32.675781 29.339844 32.71875 28.824219 32.71875 C 27.53125 32.71875 26.296875 32.449219 25.121094 31.921875 C 22.960938 30.964844 20.949219 29.148438 18.960938 26.460938 L 18.183594 24.519531 C 18.09375 24.292969 17.875 24.148438 17.636719 24.148438 C 17.554688 24.148438 17.488281 24.160156 17.417969 24.191406 L 14.730469 25.226562 C 14.421875 25.339844 14.265625 25.675781 14.390625 25.980469 L 15.167969 27.921875 C 11.429688 31.585938 11.53125 35.832031 12.730469 38.378906 C 13.578125 40.179688 15.339844 41.929688 17.714844 41.929688 C 18.722656 41.929688 19.839844 41.628906 21.039062 40.863281 C 21.648438 41.109375 22.253906 41.222656 22.835938 41.222656 C 25.40625 41.222656 27.53125 39.097656 27.519531 37.335938 C 28.492188 37.167969 29.234375 36.808594 29.796875 36.347656 C 30.835938 35.527344 31.257812 34.359375 31.316406 33.382812 C 31.339844 32.933594 30.972656 32.585938 30.527344 32.585938 Z M 14.699219 37.257812 C 13.714844 35.683594 14.035156 33.574219 15.0625 32.515625 C 14.457031 35.808594 17.417969 38.503906 18.902344 39.121094 C 16.722656 39.378906 15.429688 38.414062 14.699219 37.257812 Z M 20.46875 36.503906 C 20.46875 36.503906 21.316406 37.132812 22.230469 37.839844 C 19.796875 38.210938 17.0625 34.71875 17.703125 31.496094 C 18.882812 34.492188 21.007812 36.078125 23.761719 36.660156 C 23.382812 36.886719 21.578125 37.347656 20.46875 36.503906 Z M 25.625 34.863281 C 21.863281 35.359375 19.625 32.574219 19.359375 30.144531 C 20.367188 31.449219 22.457031 33.460938 25.453125 34.066406 C 26.183594 34.222656 26.972656 34.292969 27.816406 34.246094 C 27.03125 34.574219 26.296875 34.773438 25.625 34.863281 Z M 22.378906 20.621094 C 22.378906 20 22.890625 19.496094 23.523438 19.496094 L 39.523438 19.496094 C 40.152344 19.496094 40.664062 20 40.664062 20.621094 C 40.664062 21.242188 40.152344 21.742188 39.523438 21.742188 L 23.523438 21.742188 C 22.890625 21.742188 22.378906 21.242188 22.378906 20.621094 Z M 26.960938 11.488281 C 27.625 11.488281 28.171875 10.960938 28.171875 10.308594 C 28.171875 9.644531 27.625 9.117188 26.960938 9.117188 C 26.296875 9.117188 25.761719 9.644531 25.761719 10.308594 C 25.761719 10.960938 26.296875 11.488281 26.960938 11.488281 Z M 26.960938 9.398438 C 27.476562 9.398438 27.886719 9.800781 27.886719 10.308594 C 27.886719 10.800781 27.476562 11.207031 26.960938 11.207031 C 26.457031 11.207031 26.046875 10.800781 26.046875 10.308594 C 26.046875 9.800781 26.457031 9.398438 26.960938 9.398438 Z M 26.960938 9.398438 " fill-opacity="1" fill-rule="nonzero"/></g></svg>