<svg xmlns="http://www.w3.org/2000/svg" xmlns:xlink="http://www.w3.org/1999/xlink" width="64" zoomAndPan="magnify" viewBox="0 0 48 48" height="64" preserveAspectRatio="xMidYMid meet" version="1.0"><defs><clipPath id="18698a8415"><path d="M 10 4.703125 L 38 4.703125 L 38 43.640625 L 10 43.640625 Z M 10 4.703125 " clip-rule="nonzero"/></clipPath><clipPath id="3df5b32e7e"><path d="M 18 4.703125 L 30 4.703125 L 30 9 L 18 9 Z M 18 4.703125 " clip-rule="nonzero"/></clipPath><clipPath id="0fc118eb30"><path d="M 3.402344 4.703125 L 44.546875 4.703125 L 44.546875 43.640625 L 3.402344 43.640625 Z M 3.402344 4.703125 " clip-rule="nonzero"/></clipPath></defs><path fill="#000000" d="M 37.105469 6.433594 C 35.816406 10.089844 35.539062 13.980469 35.308594 17.007812 C 35.292969 17.332031 35.277344 17.65625 35.261719 17.984375 C 35.988281 18.992188 37.25 20.613281 37.277344 20.578125 C 41.609375 19.007812 43.855469 16.332031 43.855469 16.332031 C 42.691406 13.628906 40.761719 10.582031 38.574219 7.972656 C 37.726562 6.953125 37.378906 6.53125 37.105469 6.433594 " fill-opacity="1" fill-rule="nonzero"/><path fill="#000000" d="M 10.894531 6.433594 C 10.621094 6.53125 10.273438 6.953125 9.421875 7.972656 C 7.238281 10.582031 5.304688 13.628906 4.140625 16.332031 C 4.140625 16.332031 6.390625 19.007812 10.71875 20.578125 C 10.746094 20.613281 12.007812 18.992188 12.738281 17.984375 C 12.722656 17.65625 12.707031 17.332031 12.6875 17.007812 C 12.457031 13.980469 12.183594 10.089844 10.894531 6.433594 " fill-opacity="1" fill-rule="nonzero"/><g clip-path="url(#18698a8415)"><path fill="#000000" d="M 36.976562 6.40625 C 35.5 6.390625 31.527344 5.710938 30.050781 4.878906 C 30.046875 4.902344 30.039062 4.925781 30.03125 4.945312 C 30.011719 5.015625 29.992188 5.085938 29.964844 5.167969 C 27.5625 10.894531 20.4375 10.898438 18.035156 5.167969 C 18 5.0625 17.96875 4.96875 17.945312 4.878906 C 16.46875 5.710938 12.5 6.390625 11.023438 6.40625 C 11.011719 6.40625 11.003906 6.410156 10.992188 6.410156 C 12.574219 10.019531 12.972656 13.960938 13.285156 16.96875 C 14.140625 27.761719 12.855469 38.375 11.691406 42.125 L 11.746094 42.140625 C 19.085938 43.523438 29.097656 43.488281 36.253906 42.140625 L 36.308594 42.125 C 35.140625 38.375 33.859375 27.761719 34.714844 16.96875 C 35.027344 13.960938 35.429688 10.019531 37.007812 6.410156 C 36.996094 6.410156 36.984375 6.40625 36.976562 6.40625 " fill-opacity="1" fill-rule="nonzero"/></g><g clip-path="url(#3df5b32e7e)"><path fill="#dedddb" d="M 29.796875 5.089844 C 29.84375 5.015625 29.886719 4.945312 29.917969 4.878906 L 29.921875 4.878906 C 29.921875 4.875 29.925781 4.871094 29.925781 4.867188 C 29.921875 4.871094 29.917969 4.875 29.910156 4.875 C 26.667969 7.171875 21.742188 7.230469 18.40625 5.089844 C 18.296875 5.019531 18.191406 4.949219 18.085938 4.875 C 18.082031 4.875 18.074219 4.871094 18.070312 4.867188 C 18.109375 4.933594 18.152344 5.011719 18.203125 5.089844 C 21.304688 10.339844 26.839844 10.097656 29.796875 5.089844 " fill-opacity="1" fill-rule="nonzero"/></g><g clip-path="url(#0fc118eb30)"><path fill="#1e1b1b" d="M 37.277344 20.578125 C 37.25 20.613281 35.988281 18.992188 35.261719 17.984375 C 35.277344 17.65625 35.292969 17.332031 35.308594 17.007812 C 35.539062 13.980469 35.816406 10.089844 37.105469 6.433594 C 37.378906 6.53125 37.726562 6.953125 38.574219 7.972656 C 40.761719 10.582031 42.691406 13.628906 43.855469 16.332031 C 43.855469 16.332031 41.609375 19.007812 37.277344 20.578125 Z M 34.714844 16.96875 C 33.859375 27.761719 35.140625 38.375 36.308594 42.125 L 36.253906 42.140625 C 29.097656 43.488281 19.085938 43.523438 11.746094 42.140625 L 11.691406 42.125 C 12.855469 38.375 14.140625 27.761719 13.285156 16.96875 C 12.972656 13.960938 12.574219 10.019531 10.992188 6.410156 C 11.003906 6.410156 11.011719 6.40625 11.023438 6.40625 C 12.5 6.390625 16.46875 5.710938 17.945312 4.878906 C 17.96875 4.96875 18 5.0625 18.035156 5.167969 C 20.4375 10.898438 27.5625 10.894531 29.964844 5.167969 C 29.992188 5.085938 30.011719 5.015625 30.03125 4.945312 C 30.039062 4.925781 30.046875 4.902344 30.050781 4.878906 C 31.527344 5.710938 35.5 6.390625 36.972656 6.40625 C 36.984375 6.40625 36.996094 6.410156 37.007812 6.410156 C 35.429688 10.019531 35.027344 13.960938 34.714844 16.96875 Z M 10.71875 20.578125 C 6.390625 19.007812 4.140625 16.332031 4.140625 16.332031 C 5.304688 13.628906 7.238281 10.582031 9.421875 7.972656 C 10.273438 6.953125 10.621094 6.53125 10.894531 6.433594 C 12.183594 10.089844 12.457031 13.980469 12.6875 17.007812 C 12.707031 17.332031 12.722656 17.65625 12.738281 17.984375 C 12.007812 18.992188 10.746094 20.613281 10.71875 20.578125 Z M 18.085938 4.875 C 18.191406 4.949219 18.296875 5.023438 18.40625 5.089844 C 21.742188 7.230469 26.667969 7.171875 29.910156 4.875 C 29.917969 4.875 29.921875 4.871094 29.925781 4.867188 C 29.925781 4.871094 29.921875 4.875 29.921875 4.878906 L 29.917969 4.878906 C 29.886719 4.945312 29.84375 5.015625 29.796875 5.089844 C 26.839844 10.097656 21.300781 10.339844 18.203125 5.089844 C 18.152344 5.011719 18.109375 4.9375 18.070312 4.867188 C 18.074219 4.871094 18.082031 4.875 18.085938 4.875 Z M 37.101562 6.195312 C 34.890625 5.785156 31.371094 5.027344 30.085938 4.722656 C 30.0625 4.71875 30.039062 4.714844 30.015625 4.703125 C 30.015625 4.703125 30.011719 4.707031 30.011719 4.707031 L 30.007812 4.707031 C 30.007812 4.707031 30.007812 4.710938 30.007812 4.710938 C 29.921875 4.757812 29.855469 4.785156 29.855469 4.785156 C 26.191406 6.554688 22.191406 6.621094 18.476562 4.941406 C 18.363281 4.890625 18.253906 4.835938 18.140625 4.785156 C 18.140625 4.785156 18.097656 4.765625 17.992188 4.710938 C 17.992188 4.710938 17.992188 4.707031 17.988281 4.707031 C 17.984375 4.707031 17.984375 4.703125 17.980469 4.703125 C 17.957031 4.714844 17.9375 4.71875 17.910156 4.722656 C 16.625 5.027344 13.109375 5.785156 10.898438 6.195312 C 10.195312 6.398438 9.742188 7.152344 9.179688 7.757812 C 5.488281 11.6875 3.40625 16.46875 3.40625 16.46875 C 4.746094 18.28125 8.164062 20.28125 10.800781 21.007812 C 10.804688 21.011719 10.8125 21.015625 10.816406 21.015625 C 10.933594 20.863281 12.089844 19.429688 12.757812 18.507812 C 13.101562 27.015625 12.546875 37.734375 11.59375 42.105469 C 11.578125 42.175781 11.5625 42.246094 11.546875 42.3125 C 11.566406 42.320312 11.609375 42.324219 11.625 42.332031 C 11.648438 42.339844 11.667969 42.34375 11.679688 42.347656 C 11.691406 42.347656 11.699219 42.351562 11.710938 42.351562 C 18.195312 43.960938 29.800781 43.960938 36.289062 42.351562 C 36.300781 42.351562 36.308594 42.347656 36.320312 42.347656 C 36.332031 42.34375 36.351562 42.339844 36.371094 42.332031 C 36.390625 42.324219 36.433594 42.320312 36.453125 42.3125 C 36.4375 42.246094 36.421875 42.175781 36.40625 42.105469 C 35.449219 37.734375 34.898438 27.015625 35.238281 18.507812 C 35.90625 19.429688 37.066406 20.863281 37.179688 21.015625 C 37.1875 21.015625 37.191406 21.011719 37.195312 21.007812 C 39.832031 20.28125 43.253906 18.28125 44.59375 16.46875 C 44.59375 16.46875 42.511719 11.6875 38.820312 7.757812 C 38.253906 7.152344 37.800781 6.398438 37.101562 6.195312 " fill-opacity="1" fill-rule="nonzero"/></g></svg>