<svg xmlns="http://www.w3.org/2000/svg" xmlns:xlink="http://www.w3.org/1999/xlink" width="64" zoomAndPan="magnify" viewBox="0 0 48 48" height="64" preserveAspectRatio="xMidYMid meet" version="1.0"><defs><clipPath id="adcc77813d"><path d="M 2.839844 2.351562 L 45.453125 2.351562 L 45.453125 44.964844 L 2.839844 44.964844 Z M 2.839844 2.351562 " clip-rule="nonzero"/></clipPath></defs><g clip-path="url(#adcc77813d)"><path fill="#000000" d="M 24.003906 42.480469 C 13.539062 42.480469 5.023438 33.96875 5.023438 23.503906 C 5.023438 13.039062 13.539062 4.527344 24.003906 4.527344 C 34.464844 4.527344 42.980469 13.039062 42.980469 23.503906 C 42.980469 33.96875 34.464844 42.480469 24.003906 42.480469 Z M 24.003906 2.347656 C 12.335938 2.347656 2.84375 11.835938 2.84375 23.503906 C 2.84375 35.167969 12.335938 44.660156 24.003906 44.660156 C 35.667969 44.660156 45.160156 35.167969 45.160156 23.503906 C 45.160156 11.835938 35.667969 2.347656 24.003906 2.347656 " fill-opacity="1" fill-rule="nonzero"/></g><path fill="#000000" d="M 33.726562 10.667969 C 33.726562 10.667969 28.0625 8.792969 27.160156 18.414062 C 26.257812 28.039062 30.253906 26.925781 30.253906 26.925781 L 30.253906 35.160156 C 30.253906 35.160156 30.566406 36.691406 32.234375 36.691406 C 33.902344 36.691406 33.726562 34.988281 33.726562 34.988281 L 33.726562 10.667969 " fill-opacity="1" fill-rule="nonzero"/><path fill="#000000" d="M 23.386719 10.320312 C 22.101562 10.320312 22.199219 12.089844 22.199219 12.089844 L 22.199219 19.511719 C 22.199219 19.511719 22.21875 20.304688 21.015625 20.304688 C 20.042969 20.304688 20.066406 19.457031 20.066406 19.457031 L 20.066406 12.128906 C 20.066406 12.128906 20.066406 10.582031 19.160156 10.582031 C 18.257812 10.582031 18.105469 12.089844 18.105469 12.089844 L 18.105469 19.375 C 18.105469 19.375 18.105469 20.125 17.050781 20.125 C 16.277344 20.125 15.757812 19.605469 15.804688 19.144531 L 15.804688 12.019531 C 15.804688 12.019531 15.652344 10.695312 14.859375 10.695312 C 14.066406 10.695312 13.84375 11.902344 13.84375 11.902344 C 13.84375 11.902344 13.277344 17.75 13.578125 21.148438 C 13.878906 24.542969 17.328125 25.183594 17.328125 25.183594 L 17.328125 34.539062 C 17.328125 34.539062 17.328125 36.5 18.988281 36.5 C 20.648438 36.5 20.609375 34.5 20.609375 34.5 L 20.609375 25.222656 C 23.515625 24.203125 24.539062 22.371094 24.539062 21.351562 C 24.539062 20.332031 24.445312 12.054688 24.445312 12.054688 C 24.445312 12.054688 24.40625 10.320312 23.386719 10.320312 " fill-opacity="1" fill-rule="nonzero"/></svg>