<svg xmlns="http://www.w3.org/2000/svg" xmlns:xlink="http://www.w3.org/1999/xlink" width="64" zoomAndPan="magnify" viewBox="0 0 48 48" height="64" preserveAspectRatio="xMidYMid meet" version="1.0"><defs><clipPath id="1043787277"><path d="M 14 3.550781 L 36 3.550781 L 36 43.222656 L 14 43.222656 Z M 14 3.550781 " clip-rule="nonzero"/></clipPath><clipPath id="d63b24273c"><path d="M 20 7.15625 L 41.773438 7.15625 L 41.773438 39.617188 L 20 39.617188 Z M 20 7.15625 " clip-rule="nonzero"/></clipPath></defs><g clip-path="url(#1043787277)"><path fill="#100f0d" d="M 35.546875 16.9375 L 27.175781 16.9375 L 33.925781 3.550781 L 23.125 3.550781 L 14.964844 23.632812 L 23.132812 23.632812 L 16.230469 43.222656 L 35.546875 16.9375 " fill-opacity="1" fill-rule="nonzero"/></g><g clip-path="url(#d63b24273c)"><path fill="#100f0d" d="M 20.613281 38.953125 L 21.894531 37.207031 C 29.851562 38.941406 37.699219 33.890625 39.429688 25.921875 C 40.835938 19.453125 37.769531 12.832031 31.925781 9.738281 L 32.828125 7.949219 C 41.007812 12.257812 44.148438 22.398438 39.839844 30.59375 C 36.183594 37.550781 28.1875 41.03125 20.613281 38.953125 " fill-opacity="1" fill-rule="nonzero"/></g><path fill="#100f0d" d="M 20.824219 6.554688 L 19.84375 8.964844 C 12.226562 11.832031 8.371094 20.347656 11.234375 27.980469 C 12.460938 31.242188 14.796875 33.964844 17.832031 35.664062 L 17.160156 37.582031 C 9 33.226562 5.910156 23.074219 10.253906 14.902344 C 12.457031 10.757812 16.289062 7.734375 20.824219 6.554688 " fill-opacity="1" fill-rule="nonzero"/></svg>