<svg xmlns="http://www.w3.org/2000/svg" xmlns:xlink="http://www.w3.org/1999/xlink" width="64" zoomAndPan="magnify" viewBox="0 0 48 48" height="64" preserveAspectRatio="xMidYMid meet" version="1.0"><defs><clipPath id="a3a5dfb5a7"><path d="M 2.835938 17.371094 L 45.449219 17.371094 L 45.449219 27.65625 L 2.835938 27.65625 Z M 2.835938 17.371094 " clip-rule="nonzero"/></clipPath></defs><g clip-path="url(#a3a5dfb5a7)"><path fill="#000000" d="M 13.492188 22.511719 C 13.492188 19.679688 11.105469 17.382812 8.164062 17.382812 C 5.222656 17.382812 2.835938 19.679688 2.835938 22.511719 C 2.835938 25.347656 5.222656 27.640625 8.164062 27.640625 C 11.105469 27.640625 13.492188 25.347656 13.492188 22.511719 Z M 18.816406 22.511719 C 18.816406 25.347656 21.199219 27.640625 24.144531 27.640625 C 27.085938 27.640625 29.46875 25.347656 29.46875 22.511719 C 29.46875 19.679688 27.085938 17.382812 24.144531 17.382812 C 21.199219 17.382812 18.816406 19.679688 18.816406 22.511719 Z M 34.796875 22.511719 C 34.796875 25.347656 37.179688 27.640625 40.125 27.640625 C 43.066406 27.640625 45.449219 25.347656 45.449219 22.511719 C 45.449219 19.679688 43.066406 17.382812 40.125 17.382812 C 37.179688 17.382812 34.796875 19.679688 34.796875 22.511719 Z M 34.796875 22.511719 " fill-opacity="1" fill-rule="nonzero"/></g></svg>