<svg xmlns="http://www.w3.org/2000/svg" xmlns:xlink="http://www.w3.org/1999/xlink" width="64" zoomAndPan="magnify" viewBox="0 0 48 48" height="64" preserveAspectRatio="xMidYMid meet" version="1.0"><defs><clipPath id="ea529de2ba"><path d="M 3 16 L 44 16 L 44 37.394531 L 3 37.394531 Z M 3 16 " clip-rule="nonzero"/></clipPath><clipPath id="8258443b7f"><path d="M 7 9.476562 L 41 9.476562 L 41 26 L 7 26 Z M 7 9.476562 " clip-rule="nonzero"/></clipPath></defs><g clip-path="url(#ea529de2ba)"><path fill="#000000" d="M 23.867188 26.679688 L 13.492188 26.613281 C 12.976562 26.609375 12.542969 26.292969 12.386719 25.800781 L 9.558594 17.0625 C 9.558594 17.0625 6.964844 14.746094 4.578125 17.695312 C 2.195312 20.640625 6.824219 31.027344 6.824219 31.027344 L 7.222656 31.0625 C 7.785156 31.113281 8.226562 31.550781 8.28125 32.117188 L 8.789062 37.378906 L 9.699219 37.378906 L 10.140625 32.503906 C 10.199219 31.863281 10.769531 31.386719 11.410156 31.445312 L 23.761719 32.5625 C 23.835938 32.570312 23.898438 32.570312 23.972656 32.5625 L 36.324219 31.445312 C 36.964844 31.386719 37.535156 31.859375 37.59375 32.503906 L 38.03125 37.378906 L 38.945312 37.378906 L 39.453125 32.117188 C 39.507812 31.550781 39.945312 31.113281 40.511719 31.0625 L 40.910156 31.027344 C 40.910156 31.027344 45.539062 20.640625 43.152344 17.695312 C 40.769531 14.746094 38.171875 17.0625 38.171875 17.0625 L 35.347656 25.800781 C 35.1875 26.292969 34.753906 26.609375 34.242188 26.613281 Z M 23.867188 26.679688 " fill-opacity="1" fill-rule="evenodd"/></g><g clip-path="url(#8258443b7f)"><path fill="#000000" d="M 23.851562 24.992188 L 15.0625 25.121094 C 14.535156 25.128906 14.085938 24.800781 13.929688 24.300781 L 11.59375 16.78125 C 11.59375 16.78125 10.585938 14.945312 8.5625 14.503906 C 8.15625 14.414062 7.851562 14.144531 7.710938 13.757812 C 7.570312 13.367188 7.636719 12.964844 7.890625 12.636719 C 9.035156 11.183594 11.511719 9.488281 16.765625 10.113281 C 16.777344 10.113281 16.789062 10.117188 16.796875 10.117188 C 17.09375 10.144531 22.671875 10.660156 23.820312 10.609375 C 23.855469 10.609375 23.882812 10.609375 23.921875 10.609375 C 25.066406 10.660156 30.628906 10.144531 30.941406 10.117188 C 30.949219 10.117188 30.960938 10.113281 30.96875 10.113281 C 36.226562 9.488281 38.707031 11.183594 39.847656 12.636719 C 40.101562 12.964844 40.167969 13.367188 40.027344 13.757812 C 39.886719 14.144531 39.582031 14.414062 39.175781 14.503906 C 37.15625 14.945312 36.144531 16.78125 36.144531 16.78125 L 33.808594 24.300781 C 33.652344 24.800781 33.203125 25.128906 32.675781 25.121094 L 23.886719 24.992188 C 23.871094 24.992188 23.863281 24.992188 23.851562 24.992188 " fill-opacity="1" fill-rule="evenodd"/></g></svg>