<svg xmlns="http://www.w3.org/2000/svg" xmlns:xlink="http://www.w3.org/1999/xlink" width="64" zoomAndPan="magnify" viewBox="0 0 48 48" height="64" preserveAspectRatio="xMidYMid meet" version="1.0"><defs><clipPath id="63f5d5ff8c"><path d="M 22 37 L 28 37 L 28 43.042969 L 22 43.042969 Z M 22 37 " clip-rule="nonzero"/></clipPath><clipPath id="37b4de27de"><path d="M 3.1875 24 L 13 24 L 13 34 L 3.1875 34 Z M 3.1875 24 " clip-rule="nonzero"/></clipPath><clipPath id="a38dfa4a67"><path d="M 3.1875 32 L 10 32 L 10 39 L 3.1875 39 Z M 3.1875 32 " clip-rule="nonzero"/></clipPath><clipPath id="83662064e6"><path d="M 27 4.101562 L 45 4.101562 L 45 25 L 27 25 Z M 27 4.101562 " clip-rule="nonzero"/></clipPath></defs><path fill="#000000" d="M 6.488281 38.703125 C 7.992188 40.078125 9.75 40.921875 11.765625 41.234375 C 11.984375 40.140625 11.945312 39.054688 11.652344 37.980469 C 11.355469 36.90625 10.835938 35.953125 10.085938 35.125 Z M 6.488281 38.703125 " fill-opacity="1" fill-rule="nonzero"/><g clip-path="url(#63f5d5ff8c)"><path fill="#000000" d="M 25.070312 37.195312 C 24.683594 37.195312 24.308594 37.269531 23.949219 37.417969 C 23.589844 37.566406 23.273438 37.777344 23 38.050781 C 22.722656 38.324219 22.511719 38.640625 22.363281 39 C 22.214844 39.355469 22.140625 39.730469 22.140625 40.117188 C 22.140625 40.503906 22.214844 40.878906 22.363281 41.234375 C 22.511719 41.59375 22.722656 41.910156 23 42.183594 C 23.273438 42.457031 23.589844 42.667969 23.949219 42.816406 C 24.308594 42.964844 24.683594 43.039062 25.070312 43.039062 C 25.460938 43.039062 25.832031 42.964844 26.191406 42.816406 C 26.550781 42.667969 26.867188 42.457031 27.144531 42.183594 C 27.417969 41.910156 27.628906 41.59375 27.777344 41.234375 C 27.925781 40.878906 28 40.503906 28 40.117188 C 28 39.730469 27.925781 39.359375 27.777344 39 C 27.628906 38.640625 27.417969 38.328125 27.140625 38.050781 C 26.867188 37.777344 26.550781 37.566406 26.191406 37.417969 C 25.832031 37.269531 25.460938 37.195312 25.070312 37.195312 Z M 25.070312 37.195312 " fill-opacity="1" fill-rule="nonzero"/></g><path fill="#000000" d="M 23.449219 30.558594 C 22.957031 30.648438 22.464844 30.691406 21.964844 30.695312 C 20.976562 30.695312 20.019531 30.515625 19.09375 30.160156 C 18.171875 29.804688 17.339844 29.296875 16.605469 28.636719 L 13.953125 31.277344 L 20.804688 38.097656 C 21.664062 37.167969 22.324219 36.117188 22.785156 34.941406 C 23.246094 33.761719 23.476562 32.542969 23.472656 31.277344 C 23.472656 31.035156 23.464844 30.796875 23.449219 30.558594 Z M 23.449219 30.558594 " fill-opacity="1" fill-rule="nonzero"/><path fill="#000000" d="M 10.699219 34.515625 C 11.53125 35.441406 12.117188 36.503906 12.453125 37.699219 C 12.792969 38.898438 12.851562 40.105469 12.628906 41.332031 C 14.015625 41.429688 15.367188 41.25 16.683594 40.796875 C 17.996094 40.339844 19.167969 39.640625 20.191406 38.703125 L 13.339844 31.886719 Z M 10.699219 34.515625 " fill-opacity="1" fill-rule="nonzero"/><path fill="#000000" d="M 31.539062 41.609375 C 31.410156 41.699219 31.390625 41.808594 31.480469 41.9375 C 31.589844 42.097656 31.726562 42.226562 31.890625 42.332031 C 32.054688 42.4375 32.234375 42.507812 32.425781 42.542969 C 32.617188 42.578125 32.808594 42.578125 32.996094 42.535156 C 33.1875 42.496094 33.363281 42.421875 33.523438 42.3125 L 34.886719 41.375 C 35.074219 41.246094 35.222656 41.082031 35.335938 40.882812 L 33.804688 40.058594 Z M 31.539062 41.609375 " fill-opacity="1" fill-rule="nonzero"/><path fill="#000000" d="M 32.953125 39.597656 L 30.480469 38.261719 L 31.902344 40.316406 Z M 32.953125 39.597656 " fill-opacity="1" fill-rule="nonzero"/><path fill="#000000" d="M 39.847656 28.648438 L 29.972656 29.28125 L 29.527344 31.359375 L 39.402344 32.082031 C 39.671875 32.101562 39.921875 32.039062 40.148438 31.894531 L 42.714844 30.261719 L 40.964844 28.96875 C 40.632812 28.722656 40.261719 28.617188 39.847656 28.648438 Z M 39.847656 28.648438 " fill-opacity="1" fill-rule="nonzero"/><path fill="#000000" d="M 41.804688 8.953125 C 41.367188 8.128906 40.75 7.480469 39.945312 7.003906 L 39.3125 8.375 L 41.589844 9.417969 Z M 41.804688 8.953125 " fill-opacity="1" fill-rule="nonzero"/><path fill="#000000" d="M 38.242188 37.613281 L 28.90625 34.238281 L 28.484375 36.203125 L 37.160156 40.890625 C 37.546875 41.101562 37.957031 41.148438 38.386719 41.03125 L 40.527344 40.457031 L 38.824219 38.054688 C 38.675781 37.847656 38.484375 37.699219 38.242188 37.613281 Z M 38.242188 37.613281 " fill-opacity="1" fill-rule="nonzero"/><path fill="#000000" d="M 39.488281 32.945312 C 39.4375 32.945312 39.386719 32.941406 39.339844 32.941406 L 29.34375 32.207031 L 29.089844 33.386719 L 38.535156 36.800781 C 38.628906 36.835938 38.71875 36.875 38.804688 36.921875 L 42.367188 35.421875 L 39.800781 32.921875 C 39.699219 32.9375 39.59375 32.945312 39.488281 32.945312 Z M 39.488281 32.945312 " fill-opacity="1" fill-rule="nonzero"/><path fill="#000000" d="M 26.398438 35.648438 L 27.835938 28.933594 L 29.101562 29.203125 L 27.664062 35.917969 Z M 26.398438 35.648438 " fill-opacity="1" fill-rule="nonzero"/><path fill="#000000" d="M 30.484375 28.386719 L 32.199219 24.679688 C 31.933594 24.597656 31.675781 24.496094 31.421875 24.378906 C 31.171875 24.265625 30.925781 24.132812 30.6875 23.988281 L 28.71875 28.242188 L 29.648438 28.441406 Z M 30.484375 28.386719 " fill-opacity="1" fill-rule="nonzero"/><path fill="#000000" d="M 25.796875 27.972656 L 25.679688 27.808594 C 25.226562 27.152344 25.050781 26.425781 25.152344 25.636719 C 25.226562 25.0625 25.097656 24.539062 24.769531 24.0625 L 13.375 7.605469 C 13.195312 7.347656 12.976562 7.132812 12.710938 6.964844 C 12.449219 6.796875 12.164062 6.683594 11.855469 6.625 C 11.546875 6.570312 11.238281 6.574219 10.933594 6.640625 C 10.625 6.703125 10.34375 6.824219 10.085938 7 C 9.824219 7.179688 9.613281 7.398438 9.441406 7.660156 C 9.269531 7.921875 9.15625 8.207031 9.101562 8.511719 C 9.042969 8.820312 9.046875 9.125 9.113281 9.429688 C 9.179688 9.738281 9.300781 10.015625 9.476562 10.273438 L 16.835938 20.90625 C 17.730469 21.203125 18.570312 21.605469 19.359375 22.121094 C 20.144531 22.632812 20.855469 23.234375 21.488281 23.929688 C 22.121094 24.625 22.65625 25.386719 23.089844 26.214844 C 23.527344 27.046875 23.851562 27.921875 24.0625 28.832031 C 24.554688 28.375 25.132812 28.089844 25.796875 27.972656 Z M 10.980469 9.515625 C 10.882812 9.582031 10.773438 9.605469 10.65625 9.582031 C 10.542969 9.558594 10.449219 9.496094 10.382812 9.398438 L 10.285156 9.25 C 10.21875 9.152344 10.199219 9.042969 10.222656 8.925781 C 10.246094 8.808594 10.304688 8.71875 10.40625 8.652344 C 10.503906 8.585938 10.613281 8.566406 10.730469 8.589844 C 10.847656 8.613281 10.9375 8.671875 11.003906 8.773438 L 11.101562 8.921875 C 11.167969 9.019531 11.191406 9.128906 11.167969 9.242188 C 11.144531 9.359375 11.082031 9.453125 10.980469 9.515625 Z M 15.550781 16.359375 C 15.453125 16.425781 15.34375 16.449219 15.226562 16.425781 C 15.109375 16.402344 15.019531 16.339844 14.953125 16.242188 L 11.257812 10.707031 C 11.191406 10.609375 11.167969 10.5 11.191406 10.382812 C 11.214844 10.265625 11.277344 10.171875 11.375 10.105469 C 11.476562 10.039062 11.585938 10.019531 11.703125 10.042969 C 11.820312 10.066406 11.914062 10.132812 11.976562 10.230469 L 15.671875 15.765625 C 15.738281 15.863281 15.757812 15.96875 15.734375 16.085938 C 15.710938 16.203125 15.652344 16.292969 15.550781 16.359375 Z M 15.550781 16.359375 " fill-opacity="1" fill-rule="nonzero"/><path fill="#000000" d="M 25.542969 35.507812 L 26.992188 28.777344 C 25.726562 28.648438 24.550781 29.191406 24.269531 30.070312 C 24.3125 30.472656 24.335938 30.875 24.335938 31.277344 C 24.335938 32.449219 24.15625 33.589844 23.789062 34.699219 C 24.273438 35.335938 25.066406 35.460938 25.542969 35.507812 Z M 25.542969 35.507812 " fill-opacity="1" fill-rule="nonzero"/><path fill="#000000" d="M 35.695312 14.128906 L 33.417969 13.082031 L 32.542969 14.96875 L 34.820312 16.011719 Z M 35.695312 14.128906 " fill-opacity="1" fill-rule="nonzero"/><g clip-path="url(#37b4de27de)"><path fill="#000000" d="M 10.089844 33.90625 L 12.730469 31.277344 L 5.878906 24.460938 C 5.015625 25.386719 4.355469 26.4375 3.894531 27.617188 C 3.433594 28.792969 3.207031 30.015625 3.207031 31.277344 C 3.207031 31.515625 3.21875 31.753906 3.234375 31.988281 C 4.464844 31.765625 5.679688 31.820312 6.882812 32.160156 C 8.085938 32.496094 9.15625 33.078125 10.089844 33.90625 Z M 10.089844 33.90625 " fill-opacity="1" fill-rule="nonzero"/></g><g clip-path="url(#a38dfa4a67)"><path fill="#000000" d="M 3.332031 32.847656 C 3.644531 34.855469 4.492188 36.605469 5.878906 38.097656 L 9.476562 34.515625 C 8.640625 33.773438 7.683594 33.253906 6.601562 32.960938 C 5.519531 32.664062 4.429688 32.628906 3.332031 32.847656 Z M 3.332031 32.847656 " fill-opacity="1" fill-rule="nonzero"/></g><path fill="#000000" d="M 15.996094 28.027344 C 15.15625 27.105469 14.570312 26.050781 14.230469 24.851562 C 13.890625 23.65625 13.835938 22.449219 14.066406 21.226562 C 13.824219 21.210938 13.582031 21.199219 13.339844 21.199219 C 12.074219 21.199219 10.847656 21.425781 9.664062 21.882812 C 8.484375 22.339844 7.425781 22.996094 6.488281 23.851562 L 13.339844 30.667969 Z M 15.996094 28.027344 " fill-opacity="1" fill-rule="nonzero"/><path fill="#000000" d="M 20.191406 23.851562 C 18.691406 22.480469 16.9375 21.636719 14.925781 21.324219 C 14.710938 22.414062 14.75 23.496094 15.046875 24.570312 C 15.34375 25.640625 15.863281 26.589844 16.609375 27.417969 Z M 20.191406 23.851562 " fill-opacity="1" fill-rule="nonzero"/><path fill="#000000" d="M 23.347656 29.699219 C 23.035156 27.695312 22.1875 25.949219 20.804688 24.460938 L 17.21875 28.027344 C 18.054688 28.769531 19.007812 29.285156 20.085938 29.582031 C 21.164062 29.875 22.253906 29.914062 23.347656 29.699219 Z M 23.347656 29.699219 " fill-opacity="1" fill-rule="nonzero"/><path fill="#000000" d="M 30.070312 18.253906 L 30.164062 18.054688 L 29.984375 17.972656 C 30.011719 18.066406 30.039062 18.160156 30.070312 18.253906 Z M 30.070312 18.253906 " fill-opacity="1" fill-rule="nonzero"/><path fill="#000000" d="M 36.976562 21.425781 C 37.070312 21.386719 37.160156 21.347656 37.25 21.304688 L 37.070312 21.222656 Z M 36.976562 21.425781 " fill-opacity="1" fill-rule="nonzero"/><path fill="#000000" d="M 29.777344 14.644531 C 29.671875 15.40625 29.671875 16.167969 29.769531 16.925781 L 30.523438 17.273438 L 31.398438 15.390625 Z M 29.777344 14.644531 " fill-opacity="1" fill-rule="nonzero"/><path fill="#000000" d="M 33.167969 21.632812 C 34.054688 21.929688 34.953125 21.980469 35.867188 21.773438 L 36.285156 20.863281 L 34.007812 19.820312 Z M 33.167969 21.632812 " fill-opacity="1" fill-rule="nonzero"/><path fill="#000000" d="M 30.949219 18.414062 L 30.527344 19.320312 C 30.960938 20.148438 31.582031 20.796875 32.386719 21.273438 L 33.226562 19.460938 Z M 30.949219 18.414062 " fill-opacity="1" fill-rule="nonzero"/><path fill="#000000" d="M 37.433594 20.441406 L 38.1875 20.789062 C 38.832031 20.367188 39.410156 19.871094 39.925781 19.300781 L 38.304688 18.558594 Z M 37.433594 20.441406 " fill-opacity="1" fill-rule="nonzero"/><path fill="#000000" d="M 35.242188 17.152344 L 34.371094 19.039062 L 36.648438 20.082031 L 37.519531 18.199219 Z M 35.242188 17.152344 " fill-opacity="1" fill-rule="nonzero"/><g clip-path="url(#83662064e6)"><path fill="#000000" d="M 40.546875 4.679688 C 39.699219 4.292969 38.808594 4.101562 37.875 4.105469 C 34.441406 4.105469 30.785156 6.683594 28.878906 10.796875 C 27.507812 13.757812 27.28125 16.972656 28.257812 19.613281 C 28.949219 21.480469 30.167969 22.855469 31.785156 23.597656 C 35.804688 25.441406 41.039062 22.699219 43.453125 17.480469 C 44.824219 14.519531 45.050781 11.304688 44.074219 8.664062 C 43.382812 6.800781 42.164062 5.421875 40.546875 4.679688 Z M 42.453125 17.023438 C 40.820312 20.546875 37.675781 22.75 34.722656 22.75 C 33.914062 22.753906 33.144531 22.589844 32.410156 22.253906 C 31.003906 21.609375 29.945312 20.417969 29.347656 18.804688 C 28.511719 16.542969 28.703125 13.792969 29.878906 11.253906 C 31.953125 6.78125 36.457031 4.433594 39.925781 6.023438 C 41.332031 6.667969 42.386719 7.863281 42.984375 9.472656 C 43.820312 11.734375 43.628906 14.484375 42.453125 17.023438 Z M 42.453125 17.023438 " fill-opacity="1" fill-rule="nonzero"/></g><path fill="#000000" d="M 42.011719 10.558594 L 41.136719 12.445312 L 42.609375 13.117188 C 42.671875 12.328125 42.625 11.542969 42.460938 10.765625 Z M 42.011719 10.558594 " fill-opacity="1" fill-rule="nonzero"/><path fill="#000000" d="M 39.902344 15.109375 L 41.933594 16.039062 C 42.191406 15.386719 42.378906 14.710938 42.5 14.015625 L 40.777344 13.226562 Z M 39.902344 15.109375 " fill-opacity="1" fill-rule="nonzero"/><path fill="#000000" d="M 38.667969 17.777344 L 40.496094 18.613281 C 40.917969 18.054688 41.285156 17.460938 41.589844 16.832031 L 39.539062 15.890625 Z M 38.667969 17.777344 " fill-opacity="1" fill-rule="nonzero"/><path fill="#000000" d="M 36.929688 11.460938 L 34.652344 10.417969 L 33.777344 12.300781 L 36.054688 13.34375 Z M 36.929688 11.460938 " fill-opacity="1" fill-rule="nonzero"/><path fill="#000000" d="M 41.226562 10.199219 L 38.949219 9.15625 L 38.074219 11.039062 L 40.351562 12.082031 Z M 41.226562 10.199219 " fill-opacity="1" fill-rule="nonzero"/><path fill="#000000" d="M 31.308594 17.632812 L 33.585938 18.679688 L 34.460938 16.792969 L 32.183594 15.75 Z M 31.308594 17.632812 " fill-opacity="1" fill-rule="nonzero"/><path fill="#000000" d="M 32.632812 12.722656 L 30.585938 11.785156 C 30.304688 12.425781 30.085938 13.085938 29.929688 13.769531 L 31.757812 14.605469 Z M 32.632812 12.722656 " fill-opacity="1" fill-rule="nonzero"/><path fill="#000000" d="M 39.992188 12.867188 L 37.714844 11.820312 L 36.839844 13.707031 L 39.117188 14.75 Z M 39.992188 12.867188 " fill-opacity="1" fill-rule="nonzero"/><path fill="#000000" d="M 39.160156 6.644531 C 38.652344 6.46875 38.128906 6.382812 37.59375 6.382812 C 37.210938 6.386719 36.835938 6.425781 36.464844 6.507812 L 36.25 6.96875 L 38.527344 8.011719 Z M 39.160156 6.644531 " fill-opacity="1" fill-rule="nonzero"/><path fill="#000000" d="M 38.757812 15.53125 L 36.480469 14.488281 L 35.605469 16.371094 L 37.882812 17.417969 Z M 38.757812 15.53125 " fill-opacity="1" fill-rule="nonzero"/><path fill="#000000" d="M 33.867188 10.058594 L 32.148438 9.269531 C 31.695312 9.808594 31.300781 10.390625 30.96875 11.011719 L 32.996094 11.941406 Z M 33.867188 10.058594 " fill-opacity="1" fill-rule="nonzero"/><path fill="#000000" d="M 35.101562 7.390625 L 34.65625 7.1875 C 33.957031 7.570312 33.328125 8.042969 32.765625 8.605469 L 34.230469 9.273438 Z M 35.101562 7.390625 " fill-opacity="1" fill-rule="nonzero"/><path fill="#000000" d="M 37.292969 10.679688 L 38.164062 8.796875 L 35.886719 7.75 L 35.015625 9.636719 Z M 37.292969 10.679688 " fill-opacity="1" fill-rule="nonzero"/></svg>