<svg xmlns="http://www.w3.org/2000/svg" xmlns:xlink="http://www.w3.org/1999/xlink" width="64" zoomAndPan="magnify" viewBox="0 0 48 48" height="64" preserveAspectRatio="xMidYMid meet" version="1.0"><defs><clipPath id="853243045b"><path d="M 8.320312 4.703125 L 39.910156 4.703125 L 39.910156 42.171875 L 8.320312 42.171875 Z M 8.320312 4.703125 " clip-rule="nonzero"/></clipPath></defs><g clip-path="url(#853243045b)"><path fill="#000000" d="M 37.761719 20.613281 C 37.761719 20.675781 37.710938 20.722656 37.644531 20.726562 L 36.246094 20.746094 C 36.15625 20.746094 36.097656 20.660156 36.136719 20.582031 L 37.089844 18.460938 C 37.105469 18.433594 37.105469 18.402344 37.09375 18.371094 L 36.847656 17.71875 C 36.820312 17.652344 36.859375 17.582031 36.925781 17.5625 L 37.675781 17.378906 C 37.695312 17.375 37.714844 17.375 37.734375 17.378906 L 37.789062 17.394531 C 37.839844 17.410156 37.875 17.457031 37.871094 17.511719 Z M 35.4375 20.757812 C 35.367188 20.757812 35.3125 20.703125 35.316406 20.632812 L 35.441406 18.019531 C 35.441406 17.964844 35.480469 17.921875 35.53125 17.910156 L 35.871094 17.824219 C 35.914062 17.816406 35.957031 17.828125 35.988281 17.859375 L 36.46875 18.378906 C 36.5 18.414062 36.507812 18.460938 36.488281 18.503906 L 35.542969 20.6875 C 35.523438 20.726562 35.484375 20.757812 35.4375 20.757812 Z M 26.875 17.929688 L 13.515625 17.929688 L 13.515625 7.652344 L 26.875 7.652344 Z M 39.894531 15.539062 L 39.203125 14.175781 C 39.183594 14.140625 39.15625 14.117188 39.117188 14.113281 L 38.078125 13.90625 C 38.058594 13.902344 38.039062 13.890625 38.023438 13.878906 L 37.023438 12.980469 C 37.019531 12.976562 37.015625 12.972656 37.011719 12.964844 L 35.335938 10.953125 C 35.328125 10.945312 35.316406 10.9375 35.308594 10.929688 L 31.863281 8.753906 C 31.808594 8.71875 31.734375 8.738281 31.699219 8.792969 L 31.304688 9.433594 C 31.269531 9.488281 31.285156 9.558594 31.339844 9.59375 L 34.480469 11.585938 C 34.496094 11.59375 34.503906 11.605469 34.515625 11.617188 L 35.90625 13.546875 C 35.921875 13.570312 35.929688 13.601562 35.925781 13.632812 L 35.832031 14.355469 C 35.828125 14.371094 35.824219 14.386719 35.8125 14.402344 L 34.929688 15.753906 C 34.917969 15.773438 34.914062 15.792969 34.914062 15.816406 L 34.910156 16.425781 C 34.910156 16.472656 34.882812 16.511719 34.839844 16.53125 L 34.746094 16.574219 C 34.703125 16.59375 34.679688 16.632812 34.679688 16.679688 L 34.738281 21.144531 C 34.742188 21.199219 34.78125 21.246094 34.835938 21.257812 L 37.621094 21.746094 C 37.679688 21.757812 37.71875 21.808594 37.71875 21.867188 L 37.710938 22.019531 C 37.710938 22.027344 37.71875 22.03125 37.71875 22.039062 L 37.851562 33.082031 C 37.867188 34.179688 37.878906 35.320312 37.464844 36.304688 C 37.132812 37.09375 36.328125 37.933594 35.378906 37.890625 C 34.441406 37.855469 33.683594 36.953125 33.421875 36.085938 C 33.109375 35.046875 33.253906 33.894531 33.394531 32.78125 C 33.472656 32.171875 33.585938 31.546875 33.707031 30.882812 C 34.164062 28.351562 34.683594 25.484375 33.003906 23.171875 C 32.199219 22.0625 31.078125 21.265625 29.84375 20.828125 L 29.84375 5.921875 C 29.84375 5.253906 29.300781 4.71875 28.628906 4.71875 L 11.765625 4.71875 C 11.09375 4.71875 10.546875 5.253906 10.546875 5.921875 L 10.546875 37.996094 L 9.246094 37.996094 C 8.734375 37.996094 8.320312 38.40625 8.320312 38.910156 L 8.320312 41.242188 C 8.320312 41.746094 8.734375 42.15625 9.246094 42.15625 L 31.148438 42.15625 C 31.65625 42.15625 32.070312 41.746094 32.070312 41.242188 L 32.070312 38.910156 C 32.070312 38.40625 31.65625 37.996094 31.148438 37.996094 L 29.84375 37.996094 L 29.84375 22.140625 C 30.679688 22.519531 31.433594 23.109375 32 23.886719 C 33.371094 25.777344 32.921875 28.265625 32.488281 30.667969 C 32.371094 31.316406 32.25 31.988281 32.167969 32.628906 C 32.019531 33.8125 31.851562 35.148438 32.238281 36.433594 C 32.613281 37.679688 33.742188 39.050781 35.328125 39.113281 C 35.367188 39.117188 35.410156 39.117188 35.449219 39.117188 C 36.949219 39.117188 38.113281 37.953125 38.609375 36.773438 C 39.121094 35.558594 39.105469 34.234375 39.089844 33.066406 L 38.953125 21.964844 L 38.945312 21.964844 L 39.128906 17.886719 C 39.128906 17.84375 39.152344 17.808594 39.1875 17.789062 L 39.367188 17.691406 C 39.402344 17.671875 39.425781 17.632812 39.429688 17.59375 L 39.472656 16.453125 C 39.472656 16.433594 39.476562 16.417969 39.484375 16.402344 L 39.894531 15.648438 C 39.910156 15.613281 39.910156 15.574219 39.894531 15.539062 " fill-opacity="1" fill-rule="nonzero"/></g></svg>