<svg xmlns="http://www.w3.org/2000/svg" xmlns:xlink="http://www.w3.org/1999/xlink" width="64" zoomAndPan="magnify" viewBox="0 0 48 48" height="64" preserveAspectRatio="xMidYMid meet" version="1.0"><defs><clipPath id="6bf5d5e92f"><path d="M 4.457031 4.703125 L 28 4.703125 L 28 38 L 4.457031 38 Z M 4.457031 4.703125 " clip-rule="nonzero"/></clipPath><clipPath id="7614199263"><path d="M 19 20 L 43.394531 20 L 43.394531 45 L 19 45 Z M 19 20 " clip-rule="nonzero"/></clipPath><clipPath id="124a75fb2f"><path d="M 4.457031 4.703125 L 13 4.703125 L 13 13 L 4.457031 13 Z M 4.457031 4.703125 " clip-rule="nonzero"/></clipPath></defs><g clip-path="url(#6bf5d5e92f)"><path fill="#000000" d="M 9.730469 32.371094 C 9.640625 32.371094 9.5625 32.339844 9.5 32.277344 C 9.4375 32.210938 9.40625 32.136719 9.40625 32.046875 C 9.40625 31.957031 9.4375 31.878906 9.5 31.816406 C 9.5625 31.753906 9.640625 31.71875 9.730469 31.71875 L 18.871094 31.71875 C 18.945312 29.667969 19.488281 27.75 20.503906 25.96875 L 9.730469 25.96875 C 9.640625 25.96875 9.5625 25.9375 9.5 25.875 C 9.4375 25.8125 9.40625 25.734375 9.40625 25.644531 C 9.40625 25.554688 9.4375 25.476562 9.5 25.414062 C 9.5625 25.351562 9.640625 25.320312 9.730469 25.320312 L 20.898438 25.320312 C 21.636719 24.179688 22.535156 23.1875 23.589844 22.339844 C 24.644531 21.488281 25.804688 20.828125 27.070312 20.351562 L 27.070312 4.703125 L 13.386719 4.703125 L 13.386719 12.949219 C 13.386719 13.128906 13.324219 13.28125 13.199219 13.410156 C 13.070312 13.535156 12.917969 13.601562 12.738281 13.601562 L 4.535156 13.601562 L 4.535156 37.644531 L 20.078125 37.644531 C 19.292969 35.980469 18.886719 34.230469 18.863281 32.390625 Z M 15.34375 8.726562 C 15.339844 8.691406 15.339844 8.65625 15.34375 8.621094 C 15.339844 8.609375 15.339844 8.601562 15.34375 8.589844 C 15.355469 8.566406 15.371094 8.542969 15.386719 8.523438 L 15.414062 8.496094 L 15.480469 8.453125 L 15.511719 8.453125 C 15.546875 8.4375 15.585938 8.429688 15.625 8.429688 L 24.257812 8.429688 C 24.300781 8.429688 24.339844 8.4375 24.375 8.453125 L 24.40625 8.453125 C 24.429688 8.464844 24.453125 8.476562 24.46875 8.496094 L 24.5 8.523438 C 24.519531 8.542969 24.53125 8.566406 24.542969 8.589844 C 24.542969 8.601562 24.542969 8.609375 24.542969 8.621094 C 24.550781 8.65625 24.550781 8.691406 24.542969 8.726562 L 24.542969 13.699219 C 24.550781 13.734375 24.550781 13.769531 24.542969 13.804688 C 24.542969 13.804688 24.542969 13.824219 24.542969 13.839844 C 24.53125 13.859375 24.515625 13.882812 24.5 13.902344 L 24.46875 13.929688 C 24.453125 13.949219 24.429688 13.960938 24.40625 13.972656 L 24.375 13.972656 C 24.339844 13.988281 24.300781 13.996094 24.257812 13.996094 L 15.625 13.996094 C 15.585938 13.992188 15.546875 13.988281 15.511719 13.972656 L 15.476562 13.972656 L 15.414062 13.929688 L 15.386719 13.902344 L 15.34375 13.839844 C 15.339844 13.828125 15.339844 13.816406 15.34375 13.804688 C 15.339844 13.769531 15.339844 13.734375 15.34375 13.699219 Z M 9.730469 18.90625 L 22.144531 18.90625 C 22.234375 18.90625 22.308594 18.941406 22.371094 19.003906 C 22.4375 19.066406 22.46875 19.144531 22.46875 19.234375 C 22.46875 19.324219 22.4375 19.398438 22.371094 19.464844 C 22.308594 19.527344 22.234375 19.558594 22.144531 19.558594 L 9.730469 19.558594 C 9.640625 19.558594 9.5625 19.527344 9.5 19.464844 C 9.4375 19.398438 9.40625 19.324219 9.40625 19.234375 C 9.40625 19.144531 9.4375 19.066406 9.5 19.003906 C 9.5625 18.941406 9.640625 18.90625 9.730469 18.90625 Z M 9.730469 18.90625 " fill-opacity="1" fill-rule="nonzero"/></g><g clip-path="url(#7614199263)"><path fill="#000000" d="M 31.417969 20.222656 C 30.636719 20.222656 29.859375 20.300781 29.09375 20.453125 C 28.328125 20.605469 27.582031 20.832031 26.859375 21.132812 C 26.136719 21.433594 25.449219 21.804688 24.800781 22.242188 C 24.148438 22.679688 23.546875 23.175781 22.996094 23.730469 C 22.441406 24.285156 21.949219 24.890625 21.511719 25.546875 C 21.078125 26.199219 20.710938 26.890625 20.410156 27.613281 C 20.113281 28.339844 19.886719 29.089844 19.734375 29.863281 C 19.582031 30.632812 19.503906 31.410156 19.503906 32.199219 C 19.503906 32.984375 19.582031 33.761719 19.734375 34.535156 C 19.886719 35.304688 20.113281 36.054688 20.410156 36.78125 C 20.710938 37.507812 21.078125 38.195312 21.511719 38.851562 C 21.949219 39.503906 22.441406 40.109375 22.996094 40.664062 C 23.546875 41.222656 24.148438 41.71875 24.800781 42.15625 C 25.449219 42.589844 26.136719 42.960938 26.859375 43.261719 C 27.582031 43.5625 28.328125 43.789062 29.09375 43.941406 C 29.859375 44.097656 30.636719 44.171875 31.417969 44.171875 C 32.199219 44.171875 32.972656 44.097656 33.742188 43.941406 C 34.507812 43.789062 35.253906 43.5625 35.976562 43.261719 C 36.699219 42.960938 37.386719 42.589844 38.035156 42.15625 C 38.6875 41.71875 39.289062 41.222656 39.839844 40.664062 C 40.394531 40.109375 40.886719 39.503906 41.324219 38.851562 C 41.757812 38.195312 42.125 37.507812 42.421875 36.78125 C 42.722656 36.054688 42.949219 35.304688 43.101562 34.535156 C 43.253906 33.761719 43.328125 32.984375 43.328125 32.199219 C 43.328125 31.410156 43.253906 30.632812 43.101562 29.863281 C 42.949219 29.089844 42.722656 28.339844 42.421875 27.613281 C 42.125 26.890625 41.757812 26.199219 41.324219 25.546875 C 40.886719 24.890625 40.394531 24.285156 39.839844 23.730469 C 39.289062 23.175781 38.6875 22.679688 38.035156 22.242188 C 37.386719 21.804688 36.699219 21.433594 35.976562 21.132812 C 35.253906 20.832031 34.507812 20.605469 33.742188 20.453125 C 32.972656 20.300781 32.199219 20.222656 31.417969 20.222656 Z M 38.839844 39.070312 C 38.839844 39.160156 38.808594 39.234375 38.746094 39.296875 C 38.679688 39.363281 38.605469 39.394531 38.515625 39.394531 L 24.320312 39.394531 C 24.230469 39.394531 24.152344 39.363281 24.089844 39.296875 C 24.027344 39.234375 23.996094 39.160156 23.996094 39.070312 L 23.996094 27.652344 C 23.996094 27.613281 24.003906 27.578125 24.015625 27.539062 C 24.015625 27.539062 24.015625 27.5 24.046875 27.484375 L 26.414062 24.316406 C 26.476562 24.230469 26.566406 24.1875 26.671875 24.1875 L 36.148438 24.1875 C 36.257812 24.1875 36.34375 24.230469 36.410156 24.316406 L 38.773438 27.484375 C 38.785156 27.503906 38.796875 27.519531 38.804688 27.539062 C 38.8125 27.578125 38.8125 27.617188 38.804688 27.652344 L 38.804688 39.070312 Z M 38.839844 39.070312 " fill-opacity="1" fill-rule="nonzero"/></g><g clip-path="url(#124a75fb2f)"><path fill="#000000" d="M 12.738281 4.703125 L 4.550781 12.929688 L 12.738281 12.929688 Z M 12.738281 4.703125 " fill-opacity="1" fill-rule="nonzero"/></g><path fill="#000000" d="M 33.800781 31.808594 C 33.800781 31.898438 33.769531 31.976562 33.707031 32.039062 C 33.644531 32.101562 33.566406 32.132812 33.476562 32.132812 L 29.359375 32.132812 C 29.269531 32.132812 29.191406 32.101562 29.128906 32.039062 C 29.0625 31.976562 29.03125 31.898438 29.035156 31.808594 L 29.035156 27.988281 L 24.660156 27.988281 L 24.660156 38.742188 L 38.191406 38.742188 L 38.191406 27.988281 L 33.800781 27.988281 Z M 33.800781 31.808594 " fill-opacity="1" fill-rule="nonzero"/><path fill="#000000" d="M 37.867188 27.335938 L 35.984375 24.820312 L 33.191406 24.820312 L 33.742188 27.335938 Z M 37.867188 27.335938 " fill-opacity="1" fill-rule="nonzero"/><path fill="#000000" d="M 29.644531 24.820312 L 26.847656 24.820312 L 24.96875 27.335938 L 29.09375 27.335938 Z M 29.644531 24.820312 " fill-opacity="1" fill-rule="nonzero"/><path fill="#000000" d="M 32.53125 24.820312 L 30.304688 24.820312 L 29.757812 27.335938 L 33.074219 27.335938 Z M 32.53125 24.820312 " fill-opacity="1" fill-rule="nonzero"/><path fill="#000000" d="M 29.683594 27.988281 L 33.15625 27.988281 L 33.15625 31.480469 L 29.683594 31.480469 Z M 29.683594 27.988281 " fill-opacity="1" fill-rule="nonzero"/><path fill="#000000" d="M 16.007812 9.394531 L 16.007812 13.046875 L 18.371094 11.261719 Z M 16.007812 9.394531 " fill-opacity="1" fill-rule="nonzero"/><path fill="#000000" d="M 23.996094 13.046875 L 23.996094 9.394531 L 21.636719 11.261719 Z M 23.996094 13.046875 " fill-opacity="1" fill-rule="nonzero"/><path fill="#000000" d="M 20.203125 12.398438 C 20.070312 12.5 19.9375 12.5 19.804688 12.398438 L 18.898438 11.679688 L 16.65625 13.382812 L 23.367188 13.382812 L 21.125 11.691406 Z M 20.203125 12.398438 " fill-opacity="1" fill-rule="nonzero"/><path fill="#000000" d="M 23.386719 9.050781 L 16.621094 9.050781 L 20 11.730469 Z M 23.386719 9.050781 " fill-opacity="1" fill-rule="nonzero"/></svg>