<svg xmlns="http://www.w3.org/2000/svg" xmlns:xlink="http://www.w3.org/1999/xlink" width="64" zoomAndPan="magnify" viewBox="0 0 48 48" height="64" preserveAspectRatio="xMidYMid meet" version="1.0"><defs><clipPath id="93c0cca8ca"><path d="M 6.027344 4.027344 L 42.027344 4.027344 L 42.027344 23 L 6.027344 23 Z M 6.027344 4.027344 " clip-rule="nonzero"/></clipPath><clipPath id="d831694319"><path d="M 8 23 L 40 23 L 40 42.96875 L 8 42.96875 Z M 8 23 " clip-rule="nonzero"/></clipPath></defs><g clip-path="url(#93c0cca8ca)"><path fill="#000000" d="M 18.054688 22.375 L 8.117188 22.375 C 6.414062 22.371094 6.054688 22.359375 6.050781 20.675781 L 6.046875 14.804688 C 6.039062 13.429688 7.132812 13.515625 8.148438 13.511719 L 17.539062 13.507812 C 17.359375 13.476562 17.175781 13.367188 17.003906 13.296875 L 16.410156 13.0625 C 15.585938 12.726562 14.714844 12.375 13.984375 11.871094 C 11.105469 9.886719 11.457031 5.835938 15.078125 4.917969 C 18.5625 4.027344 21.253906 6.417969 22.949219 9.257812 L 23.519531 10.273438 C 23.683594 10.589844 23.839844 10.914062 24.03125 11.214844 C 24.082031 11.167969 24.113281 11.089844 24.144531 11.027344 L 24.824219 9.773438 C 26.199219 7.410156 28.296875 4.769531 31.308594 4.742188 C 31.585938 4.738281 31.875 4.726562 32.148438 4.753906 C 34.851562 5.007812 36.878906 7.371094 35.6875 10.007812 C 34.984375 11.566406 33.519531 12.289062 32.023438 12.886719 L 30.414062 13.515625 L 39.769531 13.511719 C 40.722656 13.515625 42.003906 13.378906 42.011719 14.714844 L 42.015625 20.722656 C 42.015625 21.421875 41.988281 22.238281 41.050781 22.367188 C 40.902344 22.386719 40.738281 22.375 40.589844 22.375 L 27.144531 22.375 L 27.148438 14.777344 L 20.925781 14.769531 L 20.925781 22.375 Z M 16.195312 6.71875 C 14.160156 6.820312 13.03125 8.617188 14.824219 10.136719 C 15.613281 10.804688 17.226562 11.289062 18.199219 11.601562 L 20.699219 12.382812 L 22.515625 12.871094 C 22.054688 12.34375 21.699219 11.742188 21.3125 11.160156 C 20.339844 9.707031 18.71875 7.25 16.945312 6.761719 C 16.726562 6.703125 16.421875 6.703125 16.195312 6.71875 Z M 31.527344 6.714844 C 30.039062 6.878906 28.945312 8.246094 28.070312 9.332031 L 25.507812 12.90625 L 27.582031 12.296875 C 29.078125 11.847656 30.589844 11.449219 32.023438 10.824219 C 32.769531 10.496094 33.4375 10.167969 33.835938 9.417969 C 34.796875 7.609375 33.144531 6.589844 31.527344 6.714844 Z M 31.527344 6.714844 " fill-opacity="1" fill-rule="nonzero"/></g><g clip-path="url(#d831694319)"><path fill="#000000" d="M 39.882812 25.082031 L 39.867188 40.816406 C 39.789062 41.894531 39.003906 42.8125 37.902344 42.921875 C 37.414062 42.964844 36.894531 42.933594 36.402344 42.933594 L 11.628906 42.933594 C 11.113281 42.933594 10.574219 42.964844 10.058594 42.917969 C 9.082031 42.828125 8.300781 41.90625 8.1875 40.96875 C 8.160156 40.71875 8.179688 40.445312 8.179688 40.195312 L 8.179688 25.113281 C 8.179688 24.71875 8.164062 24.316406 8.199219 23.925781 L 20.917969 23.9375 C 20.9375 24.125 20.921875 24.324219 20.921875 24.511719 L 20.925781 41.691406 L 27.144531 41.691406 L 27.140625 23.933594 L 39.875 23.929688 C 39.914062 24.300781 39.882812 24.707031 39.882812 25.082031 Z M 39.882812 25.082031 " fill-opacity="1" fill-rule="nonzero"/></g></svg>