<svg xmlns="http://www.w3.org/2000/svg" xmlns:xlink="http://www.w3.org/1999/xlink" width="64" zoomAndPan="magnify" viewBox="0 0 48 48" height="64" preserveAspectRatio="xMidYMid meet" version="1.0"><defs><clipPath id="e39aef5bb8"><path d="M 3.386719 4.703125 L 44.53125 4.703125 L 44.53125 42.171875 L 3.386719 42.171875 Z M 3.386719 4.703125 " clip-rule="nonzero"/></clipPath></defs><g clip-path="url(#e39aef5bb8)"><path fill="#000000" d="M 22.851562 6.871094 L 25.4375 11.347656 L 25.4375 13.621094 L 20.261719 13.621094 L 20.261719 11.347656 Z M 40.539062 14.964844 L 11.523438 14.964844 L 10.152344 9.300781 C 9.855469 8.078125 8.785156 7.230469 7.527344 7.230469 L 4.648438 7.230469 C 3.953125 7.230469 3.386719 7.792969 3.386719 8.488281 C 3.386719 9.183594 3.953125 9.746094 4.648438 9.746094 L 7.527344 9.746094 C 7.621094 9.746094 7.691406 9.796875 7.710938 9.890625 L 12.511719 29.738281 C 10.625 30.394531 9.339844 32.175781 9.339844 34.179688 C 9.339844 36.722656 11.378906 38.800781 13.902344 38.878906 C 14.292969 40.75 15.953125 42.15625 17.941406 42.15625 C 19.929688 42.15625 21.589844 40.75 21.976562 38.878906 L 29.15625 38.878906 C 29.542969 40.75 31.203125 42.15625 33.191406 42.15625 C 35.46875 42.15625 37.316406 40.3125 37.316406 38.039062 C 37.316406 35.769531 35.46875 33.925781 33.191406 33.925781 C 31.515625 33.925781 30.070312 34.925781 29.425781 36.363281 L 21.707031 36.363281 C 21.0625 34.925781 19.621094 33.925781 17.941406 33.925781 C 16.261719 33.925781 14.816406 34.925781 14.175781 36.363281 L 14.046875 36.363281 C 12.84375 36.363281 11.859375 35.378906 11.859375 34.179688 C 11.859375 32.984375 12.84375 31.996094 14.046875 31.996094 L 33.46875 31.996094 C 35.578125 31.996094 37.390625 30.65625 38.011719 28.644531 L 41.707031 16.683594 C 42.03125 15.871094 41.433594 14.964844 40.539062 14.964844 Z M 33.191406 36.363281 C 34.121094 36.363281 34.871094 37.113281 34.871094 38.039062 C 34.871094 38.964844 34.121094 39.714844 33.191406 39.714844 C 32.265625 39.714844 31.515625 38.964844 31.515625 38.039062 C 31.515625 37.113281 32.265625 36.363281 33.191406 36.363281 Z M 17.941406 36.363281 C 18.867188 36.363281 19.617188 37.113281 19.617188 38.039062 C 19.617188 38.964844 18.867188 39.714844 17.941406 39.714844 C 17.015625 39.714844 16.261719 38.964844 16.261719 38.039062 C 16.261719 37.113281 17.011719 36.363281 17.941406 36.363281 Z M 18.894531 29.484375 L 15.03125 29.484375 L 14.21875 26.113281 L 18.894531 26.113281 Z M 18.894531 24.769531 L 13.894531 24.769531 L 13.25 22.113281 L 18.894531 22.113281 Z M 18.894531 20.769531 L 12.925781 20.769531 L 12.128906 17.476562 L 18.894531 17.476562 Z M 24.675781 29.484375 L 20.242188 29.484375 L 20.242188 26.113281 L 24.675781 26.113281 Z M 24.675781 24.769531 L 20.242188 24.769531 L 20.242188 22.113281 L 24.675781 22.113281 Z M 24.675781 20.769531 L 20.242188 20.769531 L 20.242188 17.476562 L 24.675781 17.476562 Z M 30.453125 29.484375 L 26.019531 29.484375 L 26.019531 26.113281 L 30.453125 26.113281 Z M 30.453125 24.769531 L 26.019531 24.769531 L 26.019531 22.113281 L 30.453125 22.113281 Z M 30.453125 20.769531 L 26.019531 20.769531 L 26.019531 17.476562 L 30.453125 17.476562 Z M 35.613281 27.910156 C 35.3125 28.875 34.480469 29.484375 33.46875 29.484375 L 31.800781 29.484375 L 31.800781 26.113281 L 36.167969 26.113281 Z M 36.582031 24.769531 L 31.800781 24.769531 L 31.800781 22.113281 L 37.402344 22.113281 Z M 37.816406 20.769531 L 31.800781 20.769531 L 31.800781 17.476562 L 38.835938 17.476562 Z M 36.382812 8.609375 C 36.253906 8.457031 36.113281 8.3125 35.960938 8.175781 L 37.164062 6.09375 C 37.378906 5.722656 37.25 5.242188 36.878906 5.027344 C 36.507812 4.8125 36.027344 4.941406 35.8125 5.3125 L 34.605469 7.398438 C 32.867188 6.8125 30.894531 7.511719 29.941406 9.160156 C 29.480469 9.957031 29.140625 11.5 28.675781 13.621094 L 36.394531 13.621094 C 36.542969 13.433594 36.667969 13.257812 36.765625 13.09375 C 37.613281 11.625 37.40625 9.839844 36.382812 8.609375 Z M 34.933594 9.734375 C 34.746094 10.054688 34.335938 10.164062 34.015625 9.980469 C 33.382812 9.613281 32.570312 9.832031 32.203125 10.464844 C 32.019531 10.785156 31.605469 10.894531 31.285156 10.710938 C 30.964844 10.523438 30.855469 10.113281 31.042969 9.792969 C 31.78125 8.519531 33.410156 8.082031 34.6875 8.820312 C 35.007812 9.003906 35.117188 9.414062 34.933594 9.734375 Z M 14.109375 6.199219 L 21.683594 6.199219 L 22.535156 4.726562 L 14.109375 4.726562 Z M 12.195312 12.019531 L 18.914062 12.019531 L 18.914062 13.621094 L 12.582031 13.621094 Z M 20.90625 7.542969 L 13.722656 7.542969 L 11.910156 10.675781 L 19.09375 10.675781 Z M 37.617188 8.003906 L 37.625 7.984375 C 38.449219 7.777344 39.335938 7.902344 40.078125 8.355469 C 40.101562 8.34375 40.125 8.332031 40.148438 8.324219 C 40.386719 7.601562 40.410156 6.851562 40.128906 5.917969 C 40.023438 5.5625 40.226562 5.1875 40.582031 5.082031 C 40.9375 4.976562 41.3125 5.179688 41.417969 5.535156 C 41.570312 6.042969 41.652344 6.515625 41.675781 6.960938 L 42.609375 6.078125 C 42.878906 5.824219 43.300781 5.835938 43.554688 6.105469 C 43.8125 6.375 43.796875 6.796875 43.53125 7.050781 L 42.695312 7.839844 C 43.097656 7.871094 43.519531 7.949219 43.972656 8.085938 C 44.332031 8.191406 44.53125 8.566406 44.425781 8.921875 C 44.320312 9.277344 43.945312 9.476562 43.589844 9.371094 C 42.652344 9.09375 41.902344 9.117188 41.179688 9.355469 C 41.171875 9.378906 41.160156 9.402344 41.148438 9.421875 C 41.878906 10.617188 41.753906 12.179688 40.777344 13.246094 L 38.402344 12.679688 C 38.894531 11.089844 38.601562 9.347656 37.617188 8.003906 Z M 24.917969 6.523438 C 27.636719 7.550781 28.074219 8.746094 27.617188 10.007812 C 27.222656 9.355469 26.558594 9.097656 25.402344 8.597656 L 26.785156 10.988281 L 26.785156 13.621094 L 27.296875 13.621094 C 27.363281 13.324219 27.429688 13.027344 27.492188 12.730469 C 27.769531 11.472656 28.132812 9.597656 28.773438 8.488281 C 29.082031 7.957031 29.46875 7.5 29.914062 7.121094 C 28.566406 6.128906 26.695312 5.761719 24.917969 6.523438 Z M 24.917969 6.523438 " fill-opacity="1" fill-rule="evenodd"/></g></svg>