<svg xmlns="http://www.w3.org/2000/svg" xmlns:xlink="http://www.w3.org/1999/xlink" width="64" zoomAndPan="magnify" viewBox="0 0 48 48" height="64" preserveAspectRatio="xMidYMid meet" version="1.0"><defs><clipPath id="9d236564ff"><path d="M 13.339844 3.296875 L 34.644531 3.296875 L 34.644531 43.707031 L 13.339844 43.707031 Z M 13.339844 3.296875 " clip-rule="nonzero"/></clipPath></defs><g clip-path="url(#9d236564ff)"><path fill="#000000" d="M 29.910156 9.140625 L 29.910156 4.230469 L 30.332031 4.230469 L 30.332031 3.296875 L 17.269531 3.296875 L 17.269531 4.230469 L 17.695312 4.230469 L 17.695312 9.230469 C 15.179688 9.945312 13.339844 12.257812 13.339844 14.996094 L 13.339844 37.429688 C 13.339844 39.53125 15.03125 41.242188 17.128906 41.261719 C 17.109375 41.296875 17.09375 41.339844 17.082031 41.378906 L 16.734375 42.457031 C 16.5625 42.996094 16.960938 43.550781 17.523438 43.558594 L 30.644531 43.703125 C 31.164062 43.707031 31.566406 43.242188 31.480469 42.726562 L 31.289062 41.503906 C 31.273438 41.410156 31.242188 41.324219 31.199219 41.242188 C 33.132812 41.046875 34.644531 39.414062 34.644531 37.429688 L 34.644531 14.996094 C 34.644531 12.121094 32.609375 9.714844 29.910156 9.140625 Z M 29.210938 25.085938 C 29.796875 25.085938 30.210938 25.199219 30.515625 25.34375 L 30.253906 26.269531 C 30.058594 26.171875 29.6875 26.027344 29.195312 26.027344 C 28.695312 26.027344 28.453125 26.261719 28.453125 26.519531 C 28.453125 26.847656 28.730469 26.988281 29.402344 27.238281 C 30.300781 27.570312 30.71875 28.039062 30.71875 28.761719 C 30.71875 29.617188 30.066406 30.347656 28.667969 30.347656 C 28.082031 30.347656 27.507812 30.191406 27.21875 30.027344 L 27.453125 29.082031 C 27.753906 29.238281 28.238281 29.398438 28.730469 29.398438 C 29.257812 29.398438 29.542969 29.179688 29.542969 28.847656 C 29.542969 28.527344 29.300781 28.347656 28.6875 28.132812 C 27.839844 27.832031 27.28125 27.359375 27.28125 26.617188 C 27.28125 25.75 28.015625 25.085938 29.210938 25.085938 Z M 25.503906 22.457031 C 24.511719 22.953125 23.402344 22.777344 22.191406 21.929688 C 21.9375 21.6875 21.742188 21.414062 21.613281 21.105469 C 21.476562 20.785156 21.421875 20.445312 21.441406 20.097656 C 21.492188 19.257812 21.863281 18.390625 22.539062 17.523438 C 22.804688 17.183594 23.117188 16.839844 23.472656 16.507812 C 23.984375 16.070312 24.585938 15.566406 25.207031 15.183594 C 24.910156 17.125 25.25 18.5 26.25 19.378906 C 26.542969 19.722656 26.777344 20.054688 26.703125 20.605469 L 26.703125 20.613281 C 26.695312 21.371094 26.222656 22.097656 25.503906 22.457031 Z M 23.636719 25.164062 L 25.15625 25.164062 L 26.742188 30.269531 L 25.492188 30.269531 L 25.097656 28.960938 L 23.636719 28.960938 L 23.277344 30.269531 L 22.085938 30.269531 Z M 19.59375 4.230469 L 28.046875 4.230469 L 28.046875 9.003906 L 25.171875 9.003906 L 25.171875 7.355469 L 25.40625 7.355469 C 25.8125 7.355469 26.144531 7.023438 26.144531 6.617188 C 26.144531 6.210938 25.8125 5.878906 25.40625 5.878906 L 22.613281 5.878906 C 22.207031 5.878906 21.875 6.210938 21.875 6.617188 C 21.875 7.023438 22.207031 7.355469 22.613281 7.355469 L 22.847656 7.355469 L 22.847656 9.003906 L 19.59375 9.003906 Z M 17.050781 27.777344 C 17.058594 26.078125 18.292969 25.113281 19.964844 25.113281 C 20.621094 25.113281 21.128906 25.242188 21.378906 25.355469 L 21.136719 26.285156 C 20.859375 26.15625 20.515625 26.066406 19.957031 26.066406 C 18.992188 26.066406 18.257812 26.605469 18.257812 27.71875 C 18.257812 28.777344 18.925781 29.390625 19.871094 29.390625 C 20.128906 29.390625 20.339844 29.359375 20.433594 29.324219 L 20.433594 28.246094 L 19.644531 28.246094 L 19.644531 27.347656 L 21.546875 27.347656 L 21.546875 30.035156 C 21.191406 30.15625 20.515625 30.324219 19.839844 30.324219 C 18.910156 30.324219 18.234375 30.089844 17.761719 29.640625 C 17.308594 29.195312 17.050781 28.527344 17.050781 27.777344 Z M 22.976562 42.742188 L 19.128906 42.742188 L 19.128906 41.980469 L 22.976562 41.980469 Z M 28.382812 42.742188 L 24.539062 42.742188 L 24.539062 41.980469 L 28.382812 41.980469 Z M 28.382812 42.742188 " fill-opacity="1" fill-rule="nonzero"/></g><path fill="#000000" d="M 24.613281 27.011719 C 24.523438 26.710938 24.433594 26.328125 24.355469 26.027344 L 24.339844 26.027344 C 24.261719 26.328125 24.1875 26.71875 24.105469 27.011719 L 23.804688 28.097656 L 24.933594 28.097656 Z M 24.613281 27.011719 " fill-opacity="1" fill-rule="nonzero"/></svg>