<svg xmlns="http://www.w3.org/2000/svg" xmlns:xlink="http://www.w3.org/1999/xlink" width="64" zoomAndPan="magnify" viewBox="0 0 48 48" height="64" preserveAspectRatio="xMidYMid meet" version="1.0"><defs><clipPath id="f0b23f5537"><path d="M 7.878906 40 L 40.207031 40 L 40.207031 43.546875 L 7.878906 43.546875 Z M 7.878906 40 " clip-rule="nonzero"/></clipPath><clipPath id="70cb002ea1"><path d="M 11 3.136719 L 37 3.136719 L 37 9 L 11 9 Z M 11 3.136719 " clip-rule="nonzero"/></clipPath></defs><path fill="#000000" d="M 31.484375 38.917969 L 31.484375 31.351562 C 31.484375 30.632812 30.878906 30 30.117188 30 L 24.246094 30 C 24.179688 29.980469 24.113281 29.972656 24.039062 29.972656 C 23.972656 29.972656 23.90625 29.980469 23.839844 30 L 18.007812 30 C 17.234375 30 16.605469 30.597656 16.605469 31.351562 L 16.605469 38.917969 L 9.640625 38.917969 L 9.640625 12.34375 C 9.640625 12.019531 9.902344 11.75 10.234375 11.75 L 37.917969 11.75 C 38.25 11.75 38.511719 12.019531 38.511719 12.34375 L 38.511719 38.917969 Z M 24.640625 38.917969 L 24.640625 31.15625 L 30.117188 31.15625 C 30.222656 31.15625 30.316406 31.257812 30.316406 31.351562 L 30.316406 38.917969 Z M 23.445312 31.15625 L 23.445312 38.917969 L 17.769531 38.917969 L 17.769531 31.351562 C 17.769531 31.257812 17.863281 31.15625 18.007812 31.15625 Z M 16.605469 17.957031 L 13.121094 17.957031 C 12.792969 17.957031 12.527344 17.695312 12.527344 17.371094 L 12.527344 14.046875 C 12.527344 13.722656 12.792969 13.460938 13.121094 13.460938 L 16.605469 13.460938 C 16.941406 13.460938 17.207031 13.722656 17.207031 14.046875 L 17.207031 17.371094 C 17.207031 17.695312 16.941406 17.957031 16.605469 17.957031 Z M 13.722656 16.8125 L 16.039062 16.8125 L 16.039062 14.644531 L 13.722656 14.644531 Z M 22.710938 17.957031 L 19.230469 17.957031 C 18.898438 17.957031 18.636719 17.695312 18.636719 17.371094 L 18.636719 14.046875 C 18.636719 13.722656 18.898438 13.460938 19.230469 13.460938 L 22.710938 13.460938 C 23.050781 13.460938 23.3125 13.722656 23.3125 14.046875 L 23.3125 17.371094 C 23.3125 17.695312 23.050781 17.957031 22.710938 17.957031 Z M 19.832031 16.8125 L 22.148438 16.8125 L 22.148438 14.644531 L 19.832031 14.644531 Z M 28.855469 17.957031 L 25.375 17.957031 C 25.035156 17.957031 24.773438 17.695312 24.773438 17.371094 L 24.773438 14.046875 C 24.773438 13.722656 25.035156 13.460938 25.375 13.460938 L 28.855469 13.460938 C 29.1875 13.460938 29.449219 13.722656 29.449219 14.046875 L 29.449219 17.371094 C 29.421875 17.695312 29.15625 17.957031 28.855469 17.957031 Z M 25.941406 16.8125 L 28.253906 16.8125 L 28.253906 14.644531 L 25.941406 14.644531 Z M 34.992188 17.957031 L 31.511719 17.957031 C 31.179688 17.957031 30.917969 17.695312 30.917969 17.371094 L 30.917969 14.046875 C 30.917969 13.722656 31.179688 13.460938 31.511719 13.460938 L 34.992188 13.460938 C 35.332031 13.460938 35.59375 13.722656 35.59375 14.046875 L 35.59375 17.371094 C 35.558594 17.695312 35.292969 17.957031 34.992188 17.957031 Z M 32.074219 16.8125 L 34.398438 16.8125 L 34.398438 14.644531 L 32.074219 14.644531 Z M 16.605469 23.335938 L 13.121094 23.335938 C 12.792969 23.335938 12.527344 23.078125 12.527344 22.75 L 12.527344 19.4375 C 12.527344 19.101562 12.792969 18.839844 13.121094 18.839844 L 16.605469 18.839844 C 16.941406 18.839844 17.207031 19.101562 17.207031 19.4375 L 17.207031 22.789062 C 17.207031 23.078125 16.941406 23.335938 16.605469 23.335938 Z M 13.722656 22.191406 L 16.039062 22.191406 L 16.039062 19.996094 L 13.722656 19.996094 Z M 22.710938 23.335938 L 19.230469 23.335938 C 18.898438 23.335938 18.636719 23.078125 18.636719 22.75 L 18.636719 19.4375 C 18.636719 19.101562 18.898438 18.839844 19.230469 18.839844 L 22.710938 18.839844 C 23.050781 18.839844 23.3125 19.101562 23.3125 19.4375 L 23.3125 22.789062 C 23.3125 23.078125 23.050781 23.335938 22.710938 23.335938 Z M 19.832031 22.191406 L 22.148438 22.191406 L 22.148438 19.996094 L 19.832031 19.996094 Z M 28.855469 23.335938 L 25.375 23.335938 C 25.035156 23.335938 24.773438 23.078125 24.773438 22.75 L 24.773438 19.4375 C 24.773438 19.101562 25.035156 18.839844 25.375 18.839844 L 28.855469 18.839844 C 29.1875 18.839844 29.449219 19.101562 29.449219 19.4375 L 29.449219 22.789062 C 29.421875 23.078125 29.15625 23.335938 28.855469 23.335938 Z M 25.941406 22.191406 L 28.253906 22.191406 L 28.253906 19.996094 L 25.941406 19.996094 Z M 34.992188 23.335938 L 31.511719 23.335938 C 31.179688 23.335938 30.917969 23.078125 30.917969 22.75 L 30.917969 19.4375 C 30.917969 19.101562 31.179688 18.839844 31.511719 18.839844 L 34.992188 18.839844 C 35.332031 18.839844 35.59375 19.101562 35.59375 19.4375 L 35.59375 22.789062 C 35.558594 23.078125 35.292969 23.335938 34.992188 23.335938 Z M 32.074219 22.191406 L 34.398438 22.191406 L 34.398438 19.996094 L 32.074219 19.996094 Z M 16.605469 28.726562 L 13.121094 28.726562 C 12.792969 28.726562 12.527344 28.464844 12.527344 28.128906 L 12.527344 24.816406 C 12.527344 24.492188 12.792969 24.230469 13.121094 24.230469 L 16.605469 24.230469 C 16.941406 24.230469 17.207031 24.492188 17.207031 24.816406 L 17.207031 28.128906 C 17.207031 28.464844 16.941406 28.726562 16.605469 28.726562 Z M 13.722656 27.570312 L 16.039062 27.570312 L 16.039062 25.375 L 13.722656 25.375 Z M 22.710938 28.726562 L 19.230469 28.726562 C 18.898438 28.726562 18.636719 28.464844 18.636719 28.128906 L 18.636719 24.816406 C 18.636719 24.492188 18.898438 24.230469 19.230469 24.230469 L 22.710938 24.230469 C 23.050781 24.230469 23.3125 24.492188 23.3125 24.816406 L 23.3125 28.128906 C 23.3125 28.464844 23.050781 28.726562 22.710938 28.726562 Z M 19.832031 27.570312 L 22.148438 27.570312 L 22.148438 25.375 L 19.832031 25.375 Z M 28.855469 28.726562 L 25.375 28.726562 C 25.035156 28.726562 24.773438 28.464844 24.773438 28.128906 L 24.773438 24.816406 C 24.773438 24.492188 25.035156 24.230469 25.375 24.230469 L 28.855469 24.230469 C 29.1875 24.230469 29.449219 24.492188 29.449219 24.816406 L 29.449219 28.128906 C 29.421875 28.464844 29.15625 28.726562 28.855469 28.726562 Z M 25.941406 27.570312 L 28.253906 27.570312 L 28.253906 25.375 L 25.941406 25.375 Z M 34.992188 28.726562 L 31.511719 28.726562 C 31.179688 28.726562 30.917969 28.464844 30.917969 28.128906 L 30.917969 24.816406 C 30.917969 24.492188 31.179688 24.230469 31.511719 24.230469 L 34.992188 24.230469 C 35.332031 24.230469 35.59375 24.492188 35.59375 24.816406 L 35.59375 28.128906 C 35.558594 28.464844 35.292969 28.726562 34.992188 28.726562 Z M 32.074219 27.570312 L 34.398438 27.570312 L 34.398438 25.375 L 32.074219 25.375 Z M 32.074219 27.570312 " fill-opacity="1" fill-rule="evenodd"/><g clip-path="url(#f0b23f5537)"><path fill="#000000" d="M 39.613281 43.535156 L 8.472656 43.535156 C 8.144531 43.535156 7.878906 43.265625 7.878906 42.9375 L 7.878906 40.613281 C 7.878906 40.277344 8.144531 40.015625 8.472656 40.015625 L 39.613281 40.015625 C 39.941406 40.015625 40.207031 40.277344 40.207031 40.613281 L 40.207031 42.9375 C 40.179688 43.265625 39.941406 43.535156 39.613281 43.535156 Z M 39.613281 43.535156 " fill-opacity="1" fill-rule="evenodd"/></g><path fill="#000000" d="M 10.730469 10.652344 L 10.730469 9.878906 C 10.730469 9.550781 10.996094 9.292969 11.332031 9.292969 L 36.6875 9.292969 C 37.027344 9.292969 37.289062 9.550781 37.289062 9.878906 L 37.289062 10.652344 Z M 10.730469 10.652344 " fill-opacity="1" fill-rule="evenodd"/><g clip-path="url(#70cb002ea1)"><path fill="#000000" d="M 11.730469 8.183594 L 11.730469 4.136719 C 11.730469 3.613281 12.191406 3.148438 12.753906 3.148438 L 35.058594 3.148438 C 35.625 3.148438 36.09375 3.578125 36.09375 4.136719 L 36.09375 8.183594 Z M 16.40625 6.257812 L 15.839844 6.257812 L 15.839844 7.140625 C 15.839844 7.441406 15.578125 7.699219 15.25 7.699219 C 14.910156 7.699219 14.644531 7.441406 14.644531 7.152344 L 14.644531 4.226562 C 14.644531 3.894531 14.910156 3.632812 15.25 3.632812 C 15.578125 3.632812 15.839844 3.894531 15.839844 4.226562 L 15.839844 5.074219 L 16.40625 5.074219 L 16.40625 4.226562 C 16.40625 3.894531 16.667969 3.632812 17.007812 3.632812 C 17.339844 3.632812 17.601562 3.894531 17.601562 4.226562 L 17.601562 7.140625 C 17.574219 7.441406 17.300781 7.699219 17.007812 7.699219 C 16.667969 7.699219 16.40625 7.441406 16.40625 7.152344 Z M 24.773438 7.699219 C 24.441406 7.699219 24.179688 7.441406 24.179688 7.152344 L 24.179688 4.851562 L 24.011719 4.851562 C 23.679688 4.851562 23.40625 4.582031 23.40625 4.257812 C 23.40625 3.929688 23.710938 3.699219 24.011719 3.699219 L 25.574219 3.699219 C 25.902344 3.699219 26.164062 3.957031 26.164062 4.292969 C 26.164062 4.621094 25.902344 4.851562 25.574219 4.851562 L 25.375 4.851562 L 25.375 7.152344 C 25.375 7.441406 25.101562 7.699219 24.773438 7.699219 Z M 29.316406 6.292969 L 28.359375 6.292969 L 28.359375 6.554688 L 29.316406 6.554688 C 29.65625 6.554688 29.921875 6.816406 29.921875 7.152344 C 29.921875 7.476562 29.65625 7.699219 29.316406 7.699219 L 27.765625 7.699219 C 27.425781 7.699219 27.164062 7.441406 27.164062 7.152344 L 27.164062 4.257812 C 27.164062 4.03125 27.304688 3.855469 27.492188 3.761719 C 27.558594 3.726562 27.644531 3.707031 27.71875 3.699219 L 29.316406 3.699219 C 29.65625 3.699219 29.921875 3.957031 29.921875 4.292969 C 29.921875 4.621094 29.65625 4.851562 29.316406 4.851562 L 28.359375 4.851562 L 28.359375 5.113281 L 29.316406 5.113281 C 29.65625 5.113281 29.921875 5.375 29.921875 5.699219 C 29.921875 6.035156 29.65625 6.292969 29.316406 6.292969 Z M 32.640625 7.699219 L 31.511719 7.699219 C 31.179688 7.699219 30.917969 7.441406 30.917969 7.152344 L 30.917969 4.292969 C 30.917969 3.957031 31.179688 3.699219 31.511719 3.699219 C 31.839844 3.699219 32.113281 3.957031 32.113281 4.292969 L 32.113281 6.59375 L 32.640625 6.59375 C 32.96875 6.59375 33.234375 6.851562 33.234375 7.179688 C 33.234375 7.503906 32.96875 7.699219 32.640625 7.699219 Z M 20.6875 7.699219 C 19.558594 7.699219 18.636719 6.789062 18.636719 5.699219 C 18.636719 4.582031 19.558594 3.671875 20.6875 3.671875 C 21.816406 3.671875 22.710938 4.582031 22.710938 5.699219 C 22.710938 6.816406 21.789062 7.699219 20.6875 7.699219 Z M 20.6875 4.816406 C 20.191406 4.816406 19.792969 5.207031 19.792969 5.699219 C 19.792969 6.191406 20.191406 6.554688 20.6875 6.554688 C 21.1875 6.554688 21.554688 6.164062 21.554688 5.699219 C 21.554688 5.207031 21.160156 4.816406 20.6875 4.816406 Z M 20.6875 4.816406 " fill-opacity="1" fill-rule="evenodd"/></g></svg>