<svg xmlns="http://www.w3.org/2000/svg" xmlns:xlink="http://www.w3.org/1999/xlink" width="64" zoomAndPan="magnify" viewBox="0 0 48 48" height="64" preserveAspectRatio="xMidYMid meet" version="1.0"><defs><clipPath id="49e73e59dc"><path d="M 4.679688 2.734375 L 43.617188 2.734375 L 43.617188 44.613281 L 4.679688 44.613281 Z M 4.679688 2.734375 " clip-rule="nonzero"/></clipPath></defs><g clip-path="url(#49e73e59dc)"><path fill="#000000" d="M 25.371094 6.382812 C 34.941406 7.019531 42.574219 15.074219 42.574219 24.773438 C 42.574219 34.9375 34.308594 43.203125 24.148438 43.203125 C 23.863281 43.203125 23.628906 43.4375 23.628906 43.726562 C 23.628906 44.011719 23.863281 44.246094 24.148438 44.246094 C 29.347656 44.246094 34.234375 42.21875 37.914062 38.542969 C 41.589844 34.863281 43.613281 29.972656 43.613281 24.773438 C 43.613281 19.621094 41.625 14.765625 38.007812 11.097656 C 34.628906 7.675781 30.199219 5.652344 25.4375 5.34375 L 27.226562 3.695312 C 27.4375 3.503906 27.453125 3.175781 27.257812 2.960938 C 27.0625 2.75 26.730469 2.734375 26.519531 2.929688 L 23.796875 5.4375 C 23.585938 5.632812 23.570312 5.960938 23.765625 6.171875 L 26.273438 8.898438 C 26.375 9.011719 26.515625 9.066406 26.65625 9.066406 C 26.78125 9.066406 26.90625 9.019531 27.007812 8.929688 C 27.21875 8.734375 27.234375 8.40625 27.039062 8.195312 Z M 5.722656 24.773438 C 5.722656 16.609375 10.960938 9.523438 18.761719 7.144531 C 19.035156 7.058594 19.191406 6.769531 19.105469 6.492188 C 19.023438 6.21875 18.730469 6.0625 18.457031 6.148438 C 14.550781 7.339844 11.046875 9.804688 8.578125 13.082031 C 6.03125 16.476562 4.683594 20.515625 4.683594 24.773438 C 4.683594 32.683594 9.449219 39.753906 16.667969 42.753906 L 14.484375 43.605469 C 14.214844 43.710938 14.082031 44.011719 14.1875 44.28125 C 14.265625 44.484375 14.464844 44.609375 14.671875 44.609375 C 14.734375 44.609375 14.796875 44.597656 14.859375 44.574219 L 18.308594 43.230469 C 18.578125 43.125 18.710938 42.824219 18.605469 42.554688 L 17.261719 39.105469 C 17.15625 38.839844 16.855469 38.707031 16.589844 38.808594 C 16.320312 38.914062 16.1875 39.214844 16.292969 39.484375 L 17.214844 41.855469 C 10.300781 39.050781 5.722656 32.316406 5.722656 24.773438 Z M 20.253906 26.855469 L 9.28125 21.515625 L 12.207031 17.707031 L 23.363281 22.148438 Z M 23.628906 34.914062 L 12.554688 29.628906 L 12.554688 24.265625 L 20.210938 27.992188 C 20.28125 28.027344 20.359375 28.042969 20.4375 28.042969 C 20.605469 28.042969 20.773438 27.960938 20.871094 27.808594 L 23.628906 23.632812 Z M 35.746094 24.265625 L 35.746094 29.628906 L 24.667969 34.914062 L 24.667969 23.632812 L 27.425781 27.808594 C 27.527344 27.960938 27.691406 28.042969 27.863281 28.042969 C 27.9375 28.042969 28.015625 28.027344 28.089844 27.992188 Z M 36.09375 17.707031 L 39.015625 21.515625 L 28.042969 26.855469 L 24.933594 22.148438 Z M 34.855469 17.078125 L 24.148438 21.339844 L 13.441406 17.078125 L 24.148438 12.816406 Z M 34.855469 17.078125 " fill-opacity="1" fill-rule="evenodd"/></g></svg>