<svg xmlns="http://www.w3.org/2000/svg" xmlns:xlink="http://www.w3.org/1999/xlink" width="64" zoomAndPan="magnify" viewBox="0 0 48 48" height="64" preserveAspectRatio="xMidYMid meet" version="1.0"><defs><clipPath id="ac5a153268"><path d="M 11 39 L 22 39 L 22 42.171875 L 11 42.171875 Z M 11 39 " clip-rule="nonzero"/></clipPath><clipPath id="8e2ee934e6"><path d="M 3.828125 20 L 20 20 L 20 39 L 3.828125 39 Z M 3.828125 20 " clip-rule="nonzero"/></clipPath><clipPath id="f12aeb0854"><path d="M 26 20 L 42.765625 20 L 42.765625 39 L 26 39 Z M 26 20 " clip-rule="nonzero"/></clipPath><clipPath id="a219d35253"><path d="M 25 39 L 35 39 L 35 42.171875 L 25 42.171875 Z M 25 39 " clip-rule="nonzero"/></clipPath><clipPath id="b40d68e48d"><path d="M 11 4.703125 L 36 4.703125 L 36 27 L 11 27 Z M 11 4.703125 " clip-rule="nonzero"/></clipPath></defs><g clip-path="url(#ac5a153268)"><path fill="#000000" d="M 11.890625 39.496094 L 21.285156 39.496094 L 21.285156 42.171875 L 11.890625 42.171875 Z M 11.890625 39.496094 " fill-opacity="1" fill-rule="nonzero"/></g><path fill="#000000" d="M 8.058594 21.898438 L 9.414062 25.953125 C 9.742188 25.558594 10.167969 25.277344 10.621094 25.101562 L 8.796875 19.644531 C 8.621094 19.113281 8.242188 18.699219 7.738281 18.464844 C 7.226562 18.230469 6.664062 18.21875 6.140625 18.425781 L 6 18.480469 L 6.449219 20.03125 C 7.199219 20.425781 7.785156 21.082031 8.058594 21.898438 Z M 8.058594 21.898438 " fill-opacity="1" fill-rule="nonzero"/><g clip-path="url(#8e2ee934e6)"><path fill="#000000" d="M 13.234375 36.820312 L 13.234375 38.15625 L 19.941406 38.15625 L 19.941406 32.84375 C 19.941406 32.195312 19.625 31.585938 19.097656 31.210938 L 12.527344 26.527344 C 11.863281 26.058594 10.945312 26.1875 10.441406 26.824219 C 10.125 27.210938 10.03125 27.710938 10.152344 28.167969 L 10.1875 28.273438 L 10.207031 28.335938 C 10.300781 28.574219 10.460938 28.796875 10.675781 28.96875 L 15.660156 32.953125 C 15.957031 33.179688 16.003906 33.601562 15.769531 33.886719 C 15.539062 34.183594 15.117188 34.230469 14.828125 33.996094 L 9.835938 30.019531 C 9.355469 29.625 9.027344 29.109375 8.863281 28.546875 L 6.785156 22.324219 C 6.597656 21.765625 6.175781 21.316406 5.636719 21.101562 C 5.148438 20.90625 4.609375 20.90625 4.128906 21.101562 L 3.988281 21.15625 L 6.925781 31.117188 C 7.039062 31.527344 7.28125 31.875 7.617188 32.136719 L 12.972656 36.289062 C 13.136719 36.417969 13.234375 36.609375 13.234375 36.820312 Z M 13.234375 36.820312 " fill-opacity="1" fill-rule="nonzero"/></g><g clip-path="url(#f12aeb0854)"><path fill="#000000" d="M 42.464844 21.101562 C 41.984375 20.90625 41.445312 20.90625 40.957031 21.101562 C 40.417969 21.316406 39.996094 21.765625 39.808594 22.324219 L 37.722656 28.5625 C 37.566406 29.117188 37.238281 29.632812 36.757812 30.019531 L 31.765625 33.996094 C 31.476562 34.230469 31.054688 34.183594 30.824219 33.886719 C 30.589844 33.601562 30.636719 33.179688 30.933594 32.953125 L 35.917969 28.96875 C 36.125 28.804688 36.285156 28.589844 36.378906 28.347656 C 36.386719 28.320312 36.394531 28.292969 36.40625 28.269531 C 36.40625 28.261719 36.433594 28.195312 36.433594 28.179688 L 36.433594 28.167969 C 36.5625 27.710938 36.46875 27.210938 36.152344 26.824219 C 35.644531 26.1875 34.730469 26.058594 34.066406 26.527344 L 27.496094 31.210938 C 26.96875 31.585938 26.652344 32.195312 26.652344 32.84375 L 26.652344 38.15625 L 33.363281 38.15625 L 33.363281 36.820312 C 33.363281 36.609375 33.457031 36.417969 33.621094 36.289062 L 38.976562 32.136719 C 39.3125 31.875 39.554688 31.527344 39.667969 31.117188 L 42.605469 21.15625 Z M 42.464844 21.101562 " fill-opacity="1" fill-rule="nonzero"/></g><path fill="#000000" d="M 37.179688 25.953125 L 38.535156 21.898438 C 38.808594 21.082031 39.394531 20.425781 40.144531 20.023438 L 40.59375 18.480469 L 40.453125 18.425781 C 39.929688 18.21875 39.367188 18.230469 38.855469 18.464844 C 38.351562 18.699219 37.972656 19.113281 37.796875 19.648438 L 35.972656 25.101562 C 36.425781 25.277344 36.851562 25.558594 37.179688 25.953125 Z M 37.179688 25.953125 " fill-opacity="1" fill-rule="nonzero"/><g clip-path="url(#a219d35253)"><path fill="#000000" d="M 25.308594 39.496094 L 34.703125 39.496094 L 34.703125 42.171875 L 25.308594 42.171875 Z M 25.308594 39.496094 " fill-opacity="1" fill-rule="nonzero"/></g><g clip-path="url(#b40d68e48d)"><path fill="#000000" d="M 35.375 12.328125 L 35.375 11.554688 C 35.375 7.765625 32.292969 4.703125 28.503906 4.703125 L 28.160156 4.703125 C 26.335938 4.703125 24.59375 5.425781 23.304688 6.710938 C 22.015625 5.425781 20.265625 4.703125 18.445312 4.703125 L 18.105469 4.703125 C 14.304688 4.703125 11.234375 7.773438 11.234375 11.554688 L 11.234375 12.328125 C 11.234375 14.289062 12.070312 16.148438 13.542969 17.453125 L 23.308594 26.113281 L 33.078125 17.453125 C 34.550781 16.15625 35.386719 14.289062 35.386719 12.328125 Z M 27.324219 15.40625 L 24.640625 15.40625 L 24.640625 18.082031 L 21.953125 18.082031 L 21.953125 15.40625 L 19.269531 15.40625 L 19.269531 12.730469 L 21.953125 12.730469 L 21.953125 10.054688 L 24.640625 10.054688 L 24.640625 12.730469 L 27.324219 12.730469 Z M 27.324219 15.40625 " fill-opacity="1" fill-rule="nonzero"/></g></svg>