<svg xmlns="http://www.w3.org/2000/svg" xmlns:xlink="http://www.w3.org/1999/xlink" width="64" zoomAndPan="magnify" viewBox="0 0 48 48" height="64" preserveAspectRatio="xMidYMid meet" version="1.0"><defs><clipPath id="84a417cd13"><path d="M 21 4 L 32.347656 4 L 32.347656 43.238281 L 21 43.238281 Z M 21 4 " clip-rule="nonzero"/></clipPath><clipPath id="45a98da618"><path d="M 25 3.5625 L 29 3.5625 L 29 11 L 25 11 Z M 25 3.5625 " clip-rule="nonzero"/></clipPath><clipPath id="8501541f81"><path d="M 21 22 L 32.347656 22 L 32.347656 37 L 21 37 Z M 21 22 " clip-rule="nonzero"/></clipPath><clipPath id="63f0dc709a"><path d="M 21 21 L 32.347656 21 L 32.347656 38 L 21 38 Z M 21 21 " clip-rule="nonzero"/></clipPath><clipPath id="5d964cdda7"><path d="M 21 25 L 32.347656 25 L 32.347656 35 L 21 35 Z M 21 25 " clip-rule="nonzero"/></clipPath><clipPath id="7ab0e17e70"><path d="M 13.246094 31 L 23 31 L 23 43.238281 L 13.246094 43.238281 Z M 13.246094 31 " clip-rule="nonzero"/></clipPath><clipPath id="9414fb0fc4"><path d="M 13.246094 31 L 23 31 L 23 33 L 13.246094 33 Z M 13.246094 31 " clip-rule="nonzero"/></clipPath></defs><g clip-path="url(#84a417cd13)"><path fill="#000000" d="M 32.476562 42.324219 C 32.476562 42.800781 32.085938 43.183594 31.601562 43.183594 L 22.347656 43.183594 C 21.863281 43.183594 21.472656 42.800781 21.472656 42.324219 L 21.472656 17.976562 C 21.472656 17.714844 23.632812 15.394531 24.707031 13.398438 C 25.609375 11.726562 25.65625 4.675781 25.65625 4.675781 L 28.421875 4.675781 C 28.421875 4.675781 28.410156 11.757812 29.273438 13.398438 C 30.328125 15.414062 32.476562 17.710938 32.476562 17.976562 L 32.476562 42.324219 " fill-opacity="1" fill-rule="nonzero"/><path fill="#dedddb" d="M 32.476562 42.324219 L 32.265625 42.324219 C 32.265625 42.503906 32.195312 42.664062 32.074219 42.78125 C 31.953125 42.902344 31.789062 42.972656 31.601562 42.972656 L 22.347656 42.972656 C 22.164062 42.972656 21.996094 42.902344 21.878906 42.78125 C 21.757812 42.664062 21.683594 42.503906 21.683594 42.324219 L 21.683594 17.976562 L 21.566406 17.976562 L 21.679688 18.011719 C 21.679688 18.011719 21.683594 18.003906 21.683594 17.976562 L 21.566406 17.976562 L 21.679688 18.011719 C 21.679688 18.007812 21.691406 17.984375 21.710938 17.949219 C 21.75 17.890625 21.816406 17.796875 21.902344 17.683594 C 22.199219 17.285156 22.730469 16.636719 23.296875 15.890625 C 23.863281 15.144531 24.460938 14.304688 24.894531 13.5 C 25.019531 13.265625 25.121094 12.957031 25.210938 12.59375 C 25.371094 11.960938 25.488281 11.152344 25.578125 10.292969 C 25.847656 7.71875 25.867188 4.679688 25.867188 4.675781 L 25.65625 4.675781 L 25.65625 4.886719 L 28.421875 4.886719 L 28.421875 4.675781 L 28.207031 4.671875 L 28.207031 4.683594 C 28.207031 4.820312 28.210938 6.601562 28.320312 8.550781 C 28.371094 9.527344 28.453125 10.546875 28.574219 11.425781 C 28.632812 11.867188 28.703125 12.273438 28.789062 12.625 C 28.871094 12.976562 28.964844 13.269531 29.085938 13.5 C 29.625 14.527344 30.429688 15.609375 31.105469 16.472656 C 31.441406 16.90625 31.742188 17.28125 31.957031 17.5625 C 32.066406 17.703125 32.152344 17.820312 32.207031 17.902344 C 32.234375 17.945312 32.253906 17.976562 32.265625 17.996094 L 32.269531 18.007812 L 32.273438 18.011719 L 32.324219 17.992188 L 32.269531 18.007812 L 32.273438 18.011719 L 32.324219 17.992188 L 32.269531 18.007812 L 32.40625 17.976562 L 32.265625 17.976562 C 32.265625 17.992188 32.269531 18 32.269531 18.007812 L 32.40625 17.976562 L 32.265625 17.976562 L 32.265625 42.324219 L 32.6875 42.324219 L 32.6875 17.976562 C 32.6875 17.929688 32.679688 17.902344 32.671875 17.878906 C 32.65625 17.828125 32.632812 17.789062 32.609375 17.746094 C 32.558594 17.664062 32.492188 17.566406 32.402344 17.449219 C 32.101562 17.042969 31.574219 16.402344 31.011719 15.664062 C 30.457031 14.921875 29.867188 14.085938 29.457031 13.300781 C 29.367188 13.128906 29.277344 12.859375 29.199219 12.527344 C 29.058594 11.945312 28.953125 11.175781 28.875 10.347656 C 28.636719 7.863281 28.632812 4.859375 28.632812 4.683594 L 28.632812 4.679688 C 28.632812 4.621094 28.609375 4.566406 28.570312 4.527344 C 28.53125 4.484375 28.476562 4.464844 28.421875 4.464844 L 25.65625 4.464844 C 25.539062 4.464844 25.445312 4.554688 25.445312 4.671875 C 25.445312 4.671875 25.445312 4.699219 25.445312 4.75 C 25.441406 5.140625 25.414062 6.90625 25.285156 8.765625 C 25.21875 9.695312 25.128906 10.652344 25.003906 11.464844 C 24.941406 11.871094 24.867188 12.242188 24.785156 12.558594 C 24.707031 12.871094 24.613281 13.128906 24.523438 13.300781 C 23.996094 14.277344 23.191406 15.347656 22.519531 16.207031 C 22.183594 16.636719 21.882812 17.015625 21.660156 17.300781 C 21.546875 17.449219 21.457031 17.570312 21.390625 17.667969 C 21.359375 17.71875 21.332031 17.765625 21.308594 17.808594 C 21.296875 17.828125 21.289062 17.851562 21.277344 17.875 C 21.269531 17.902344 21.261719 17.929688 21.261719 17.976562 L 21.261719 42.324219 C 21.261719 42.621094 21.382812 42.890625 21.582031 43.082031 C 21.777344 43.277344 22.050781 43.398438 22.347656 43.394531 L 31.601562 43.394531 C 31.902344 43.398438 32.175781 43.277344 32.371094 43.082031 C 32.566406 42.890625 32.691406 42.621094 32.6875 42.324219 L 32.476562 42.324219 " fill-opacity="1" fill-rule="nonzero"/></g><g clip-path="url(#45a98da618)"><path fill="#000000" d="M 28.648438 10.542969 L 28.648438 4.035156 C 28.648438 3.917969 28.550781 3.820312 28.429688 3.820312 L 25.519531 3.820312 C 25.402344 3.820312 25.304688 3.917969 25.304688 4.035156 L 25.304688 10.542969 L 28.648438 10.542969 " fill-opacity="1" fill-rule="nonzero"/><path fill="#dedddb" d="M 28.648438 10.542969 L 28.859375 10.542969 L 28.859375 4.035156 C 28.859375 3.800781 28.667969 3.609375 28.429688 3.609375 L 25.519531 3.609375 C 25.285156 3.609375 25.09375 3.800781 25.09375 4.035156 L 25.09375 10.542969 C 25.09375 10.597656 25.113281 10.652344 25.152344 10.691406 C 25.195312 10.730469 25.25 10.753906 25.304688 10.753906 L 28.648438 10.753906 C 28.703125 10.753906 28.757812 10.730469 28.796875 10.691406 C 28.835938 10.652344 28.859375 10.597656 28.859375 10.542969 L 28.648438 10.542969 L 28.648438 10.332031 L 25.515625 10.332031 L 25.515625 4.035156 L 25.519531 4.03125 L 28.429688 4.03125 L 28.4375 4.035156 L 28.4375 10.542969 L 28.648438 10.542969 L 28.648438 10.332031 L 28.648438 10.542969 " fill-opacity="1" fill-rule="nonzero"/></g><g clip-path="url(#8501541f81)"><path fill="#000000" d="M 26.976562 22.40625 C 23.9375 22.40625 21.472656 22.28125 21.472656 22.121094 L 21.472656 36.578125 C 21.472656 36.738281 23.9375 36.863281 26.976562 36.863281 C 30.015625 36.863281 32.476562 36.738281 32.476562 36.578125 L 32.476562 22.121094 C 32.476562 22.28125 30.015625 22.40625 26.976562 22.40625 " fill-opacity="1" fill-rule="nonzero"/></g><g clip-path="url(#63f0dc709a)"><path fill="#dedddb" d="M 26.976562 22.40625 L 26.976562 22.195312 C 25.460938 22.195312 24.085938 22.164062 23.09375 22.113281 C 22.601562 22.085938 22.199219 22.058594 21.929688 22.023438 C 21.796875 22.007812 21.695312 21.988281 21.636719 21.976562 C 21.621094 21.972656 21.613281 21.96875 21.605469 21.964844 L 21.597656 21.964844 L 21.550781 22.0625 L 21.625 21.984375 C 21.605469 21.964844 21.597656 21.964844 21.597656 21.964844 L 21.550781 22.0625 L 21.625 21.984375 L 21.503906 22.113281 L 21.660156 22.027344 C 21.648438 22.003906 21.632812 21.992188 21.625 21.984375 L 21.503906 22.113281 L 21.660156 22.027344 L 21.488281 22.121094 L 21.683594 22.121094 C 21.683594 22.085938 21.671875 22.050781 21.660156 22.027344 L 21.488281 22.121094 L 21.683594 22.121094 C 21.683594 22.066406 21.664062 22.011719 21.621094 21.972656 C 21.582031 21.933594 21.53125 21.910156 21.472656 21.910156 C 21.417969 21.910156 21.363281 21.933594 21.324219 21.972656 C 21.285156 22.011719 21.261719 22.066406 21.261719 22.121094 L 21.261719 36.578125 C 21.261719 36.617188 21.273438 36.652344 21.285156 36.679688 C 21.3125 36.734375 21.34375 36.757812 21.367188 36.773438 C 21.417969 36.804688 21.453125 36.816406 21.492188 36.832031 C 21.566406 36.851562 21.660156 36.871094 21.773438 36.886719 C 22.175781 36.941406 22.875 36.988281 23.777344 37.023438 C 24.683594 37.054688 25.785156 37.074219 26.976562 37.074219 C 28.496094 37.074219 29.875 37.042969 30.878906 36.992188 C 31.378906 36.964844 31.785156 36.933594 32.070312 36.898438 C 32.214844 36.882812 32.328125 36.863281 32.417969 36.839844 C 32.464844 36.828125 32.5 36.820312 32.546875 36.796875 C 32.566406 36.785156 32.59375 36.769531 32.621094 36.742188 C 32.636719 36.726562 32.652344 36.707031 32.664062 36.679688 C 32.679688 36.652344 32.691406 36.617188 32.6875 36.578125 L 32.6875 22.121094 C 32.6875 22.066406 32.667969 22.011719 32.628906 21.972656 C 32.585938 21.933594 32.535156 21.910156 32.476562 21.910156 C 32.421875 21.910156 32.367188 21.933594 32.328125 21.972656 C 32.289062 22.011719 32.265625 22.066406 32.265625 22.121094 L 32.460938 22.121094 L 32.285156 22.039062 C 32.277344 22.058594 32.265625 22.089844 32.265625 22.121094 L 32.460938 22.121094 L 32.285156 22.039062 L 32.441406 22.113281 L 32.34375 21.96875 C 32.332031 21.976562 32.308594 21.992188 32.285156 22.039062 L 32.441406 22.113281 L 32.34375 21.96875 L 32.398438 22.054688 L 32.351562 21.964844 L 32.34375 21.96875 L 32.398438 22.054688 L 32.351562 21.964844 L 32.371094 22 L 32.355469 21.964844 L 32.351562 21.964844 L 32.371094 22 L 32.355469 21.964844 L 32.351562 21.964844 C 32.34375 21.96875 32.324219 21.972656 32.292969 21.980469 C 32.230469 21.992188 32.140625 22.007812 32.027344 22.023438 C 31.625 22.074219 30.929688 22.117188 30.050781 22.148438 C 29.175781 22.179688 28.117188 22.195312 26.976562 22.195312 L 26.976562 22.617188 C 28.496094 22.617188 29.875 22.585938 30.878906 22.535156 C 31.378906 22.507812 31.785156 22.476562 32.070312 22.441406 C 32.214844 22.425781 32.328125 22.40625 32.417969 22.382812 C 32.464844 22.375 32.5 22.363281 32.546875 22.339844 C 32.566406 22.328125 32.59375 22.316406 32.621094 22.285156 C 32.636719 22.269531 32.652344 22.25 32.664062 22.222656 C 32.679688 22.195312 32.691406 22.160156 32.6875 22.121094 C 32.6875 22.066406 32.667969 22.011719 32.628906 21.972656 C 32.585938 21.933594 32.535156 21.910156 32.476562 21.910156 C 32.421875 21.910156 32.367188 21.933594 32.328125 21.972656 C 32.289062 22.011719 32.265625 22.066406 32.265625 22.121094 L 32.265625 36.578125 L 32.460938 36.578125 L 32.285156 36.492188 C 32.277344 36.515625 32.265625 36.546875 32.265625 36.578125 L 32.460938 36.578125 L 32.285156 36.492188 L 32.441406 36.570312 L 32.34375 36.425781 C 32.332031 36.433594 32.308594 36.449219 32.285156 36.492188 L 32.441406 36.570312 L 32.34375 36.425781 L 32.398438 36.511719 L 32.351562 36.421875 L 32.34375 36.425781 L 32.398438 36.511719 L 32.351562 36.421875 L 32.371094 36.457031 L 32.355469 36.421875 L 32.351562 36.421875 L 32.371094 36.457031 L 32.355469 36.421875 L 32.351562 36.421875 C 32.34375 36.421875 32.324219 36.429688 32.292969 36.4375 C 32.230469 36.449219 32.140625 36.464844 32.027344 36.480469 C 31.625 36.53125 30.929688 36.574219 30.050781 36.605469 C 29.175781 36.636719 28.117188 36.652344 26.976562 36.652344 C 25.460938 36.652344 24.085938 36.621094 23.09375 36.570312 C 22.601562 36.542969 22.199219 36.515625 21.929688 36.480469 C 21.796875 36.464844 21.695312 36.445312 21.636719 36.433594 C 21.621094 36.429688 21.613281 36.425781 21.605469 36.421875 L 21.597656 36.421875 L 21.550781 36.519531 L 21.625 36.441406 C 21.605469 36.421875 21.597656 36.421875 21.597656 36.421875 L 21.550781 36.519531 L 21.625 36.441406 L 21.503906 36.570312 L 21.660156 36.484375 C 21.648438 36.460938 21.632812 36.449219 21.625 36.441406 L 21.503906 36.570312 L 21.660156 36.484375 L 21.488281 36.578125 L 21.683594 36.578125 C 21.683594 36.542969 21.671875 36.507812 21.660156 36.484375 L 21.488281 36.578125 L 21.683594 36.578125 L 21.683594 22.121094 C 21.683594 22.066406 21.664062 22.011719 21.621094 21.972656 C 21.582031 21.933594 21.53125 21.910156 21.472656 21.910156 C 21.417969 21.910156 21.363281 21.933594 21.324219 21.972656 C 21.285156 22.011719 21.261719 22.066406 21.261719 22.121094 C 21.261719 22.160156 21.273438 22.195312 21.285156 22.222656 C 21.3125 22.277344 21.34375 22.300781 21.367188 22.316406 C 21.417969 22.347656 21.453125 22.359375 21.492188 22.375 C 21.566406 22.394531 21.660156 22.414062 21.773438 22.429688 C 22.175781 22.484375 22.875 22.53125 23.777344 22.566406 C 24.683594 22.597656 25.785156 22.617188 26.976562 22.617188 L 26.976562 22.40625 " fill-opacity="1" fill-rule="nonzero"/></g><path fill="#000000" d="M 31.996094 29.679688 C 31.996094 28.886719 31.722656 28.148438 31.253906 27.519531 L 31.253906 26.519531 L 30.210938 26.519531 C 29.335938 25.914062 28.207031 25.546875 26.976562 25.546875 C 25.742188 25.546875 24.613281 25.914062 23.738281 26.519531 L 22.695312 26.519531 L 22.695312 27.519531 C 22.226562 28.148438 21.953125 28.886719 21.953125 29.679688 C 21.953125 30.472656 22.226562 31.210938 22.695312 31.839844 L 22.695312 32.839844 L 23.738281 32.839844 C 24.613281 33.445312 25.742188 33.8125 26.976562 33.8125 C 28.207031 33.8125 29.335938 33.445312 30.210938 32.839844 L 31.253906 32.839844 L 31.253906 31.839844 C 31.722656 31.210938 31.996094 30.472656 31.996094 29.679688 " fill-opacity="1" fill-rule="nonzero"/><g clip-path="url(#5d964cdda7)"><path fill="#dedddb" d="M 31.996094 29.679688 L 32.207031 29.679688 C 32.207031 28.839844 31.917969 28.050781 31.425781 27.390625 L 31.253906 27.519531 L 31.464844 27.519531 L 31.464844 26.519531 C 31.464844 26.464844 31.441406 26.410156 31.402344 26.371094 C 31.363281 26.332031 31.308594 26.308594 31.253906 26.308594 L 30.210938 26.308594 L 30.210938 26.519531 L 30.332031 26.347656 C 29.421875 25.714844 28.25 25.335938 26.976562 25.335938 C 25.699219 25.335938 24.53125 25.714844 23.617188 26.347656 L 23.738281 26.519531 L 23.738281 26.308594 L 22.695312 26.308594 C 22.640625 26.308594 22.585938 26.332031 22.546875 26.371094 C 22.507812 26.410156 22.484375 26.464844 22.484375 26.519531 L 22.484375 27.519531 L 22.695312 27.519531 L 22.527344 27.390625 C 22.03125 28.050781 21.742188 28.839844 21.742188 29.679688 C 21.742188 30.519531 22.03125 31.304688 22.527344 31.96875 L 22.695312 31.839844 L 22.484375 31.839844 L 22.484375 32.839844 C 22.484375 32.894531 22.507812 32.949219 22.546875 32.988281 C 22.585938 33.027344 22.640625 33.050781 22.695312 33.050781 L 23.738281 33.050781 L 23.738281 32.839844 L 23.617188 33.011719 C 24.53125 33.644531 25.699219 34.023438 26.976562 34.023438 C 28.25 34.023438 29.421875 33.644531 30.332031 33.011719 L 30.210938 32.839844 L 30.210938 33.050781 L 31.253906 33.050781 C 31.308594 33.050781 31.363281 33.027344 31.402344 32.988281 C 31.441406 32.949219 31.464844 32.894531 31.464844 32.839844 L 31.464844 31.839844 L 31.253906 31.839844 L 31.425781 31.96875 C 31.917969 31.308594 32.207031 30.519531 32.207031 29.679688 L 31.785156 29.679688 C 31.785156 30.421875 31.53125 31.117188 31.085938 31.714844 C 31.058594 31.75 31.042969 31.796875 31.042969 31.839844 L 31.042969 32.625 L 30.210938 32.625 C 30.167969 32.625 30.125 32.640625 30.089844 32.664062 C 29.253906 33.246094 28.167969 33.601562 26.976562 33.601562 C 25.785156 33.601562 24.695312 33.246094 23.859375 32.664062 C 23.824219 32.640625 23.78125 32.625 23.738281 32.625 L 22.90625 32.625 L 22.90625 31.839844 C 22.90625 31.796875 22.890625 31.75 22.867188 31.714844 C 22.417969 31.117188 22.167969 30.421875 22.167969 29.679688 C 22.167969 28.9375 22.417969 28.242188 22.867188 27.644531 C 22.890625 27.609375 22.90625 27.5625 22.90625 27.519531 L 22.90625 26.730469 L 23.738281 26.730469 C 23.78125 26.730469 23.824219 26.71875 23.859375 26.695312 C 24.695312 26.113281 25.785156 25.757812 26.976562 25.757812 C 28.167969 25.757812 29.253906 26.113281 30.089844 26.695312 C 30.125 26.71875 30.167969 26.730469 30.210938 26.730469 L 31.042969 26.730469 L 31.042969 27.519531 C 31.042969 27.5625 31.058594 27.609375 31.085938 27.644531 C 31.53125 28.242188 31.785156 28.9375 31.785156 29.679688 L 31.996094 29.679688 " fill-opacity="1" fill-rule="nonzero"/></g><g clip-path="url(#7ab0e17e70)"><path fill="#000000" d="M 20.300781 43.1875 L 15.71875 43.1875 L 13.460938 31.847656 L 22.578125 31.847656 L 20.300781 43.1875 " fill-opacity="1" fill-rule="nonzero"/><path fill="#dedddb" d="M 20.300781 43.1875 L 20.300781 42.976562 L 15.890625 42.976562 L 13.71875 32.058594 L 22.320312 32.058594 L 20.09375 43.144531 L 20.300781 43.1875 L 20.300781 42.976562 L 20.300781 43.1875 L 20.507812 43.230469 L 22.785156 31.886719 C 22.796875 31.824219 22.78125 31.761719 22.742188 31.710938 C 22.703125 31.664062 22.644531 31.636719 22.578125 31.636719 L 13.460938 31.636719 C 13.398438 31.636719 13.339844 31.664062 13.300781 31.710938 C 13.257812 31.761719 13.242188 31.824219 13.253906 31.886719 L 15.511719 43.226562 C 15.53125 43.328125 15.617188 43.398438 15.71875 43.398438 L 20.300781 43.398438 C 20.402344 43.398438 20.488281 43.328125 20.507812 43.230469 L 20.300781 43.1875 " fill-opacity="1" fill-rule="nonzero"/></g><path fill="#000000" d="M 14.878906 37.417969 L 15.933594 42.742188 L 20.089844 42.742188 L 21.234375 37.417969 L 14.878906 37.417969 " fill-opacity="1" fill-rule="nonzero"/><path fill="#dedddb" d="M 14.878906 37.417969 L 14.671875 37.457031 L 15.726562 42.78125 C 15.746094 42.878906 15.832031 42.953125 15.933594 42.953125 L 20.089844 42.953125 C 20.191406 42.953125 20.277344 42.882812 20.296875 42.785156 L 21.441406 37.460938 C 21.453125 37.398438 21.4375 37.335938 21.398438 37.285156 C 21.359375 37.234375 21.296875 37.207031 21.234375 37.207031 L 14.878906 37.207031 C 14.816406 37.207031 14.757812 37.234375 14.714844 37.28125 C 14.675781 37.332031 14.660156 37.394531 14.671875 37.457031 L 14.878906 37.417969 L 14.878906 37.628906 L 20.972656 37.628906 L 19.921875 42.53125 L 16.105469 42.53125 L 15.085938 37.375 L 14.878906 37.417969 L 14.878906 37.628906 L 14.878906 37.417969 " fill-opacity="1" fill-rule="nonzero"/><path fill="#000000" d="M 15.730469 41.714844 L 15.933594 42.742188 L 20.089844 42.742188 L 20.3125 41.714844 L 15.730469 41.714844 " fill-opacity="1" fill-rule="nonzero"/><path fill="#dedddb" d="M 15.730469 41.714844 L 15.523438 41.757812 L 15.726562 42.78125 C 15.746094 42.878906 15.832031 42.953125 15.933594 42.953125 L 20.089844 42.953125 C 20.191406 42.953125 20.277344 42.882812 20.296875 42.785156 L 20.515625 41.761719 C 20.53125 41.699219 20.515625 41.632812 20.476562 41.582031 C 20.433594 41.535156 20.375 41.503906 20.3125 41.503906 L 15.730469 41.503906 C 15.667969 41.503906 15.605469 41.535156 15.566406 41.582031 C 15.527344 41.632812 15.511719 41.695312 15.523438 41.757812 L 15.730469 41.714844 L 15.730469 41.929688 L 20.050781 41.929688 L 19.921875 42.53125 L 16.105469 42.53125 L 15.9375 41.675781 L 15.730469 41.714844 L 15.730469 41.929688 L 15.730469 41.714844 " fill-opacity="1" fill-rule="nonzero"/><path fill="#000000" d="M 21.226562 37.417969 C 21.226562 37.523438 19.804688 37.613281 18.054688 37.613281 C 16.300781 37.613281 14.878906 37.523438 14.878906 37.417969 C 14.878906 37.308594 16.300781 37.222656 18.054688 37.222656 C 19.804688 37.222656 21.226562 37.308594 21.226562 37.417969 " fill-opacity="1" fill-rule="nonzero"/><path fill="#dedddb" d="M 21.226562 37.417969 L 21.015625 37.417969 L 21.214844 37.417969 L 21.03125 37.339844 C 21.023438 37.363281 21.015625 37.390625 21.015625 37.417969 L 21.214844 37.417969 L 21.03125 37.339844 L 21.203125 37.414062 L 21.082031 37.269531 C 21.070312 37.28125 21.046875 37.300781 21.03125 37.339844 L 21.203125 37.414062 L 21.082031 37.269531 L 21.167969 37.371094 L 21.109375 37.253906 C 21.105469 37.253906 21.097656 37.257812 21.082031 37.269531 L 21.167969 37.371094 L 21.109375 37.253906 L 21.128906 37.292969 L 21.109375 37.25 L 21.109375 37.253906 L 21.128906 37.292969 L 21.109375 37.25 C 21.109375 37.25 21.101562 37.253906 21.085938 37.257812 C 21.054688 37.265625 21.003906 37.277344 20.941406 37.285156 C 20.710938 37.316406 20.3125 37.347656 19.808594 37.367188 C 19.308594 37.390625 18.703125 37.402344 18.054688 37.402344 C 17.179688 37.402344 16.390625 37.378906 15.820312 37.34375 C 15.539062 37.328125 15.308594 37.304688 15.160156 37.285156 C 15.085938 37.273438 15.027344 37.261719 15.003906 37.253906 L 14.996094 37.25 L 14.953125 37.351562 L 15.019531 37.269531 C 15 37.25 14.996094 37.25 14.996094 37.25 L 14.953125 37.351562 L 15.019531 37.269531 L 14.90625 37.410156 L 15.0625 37.3125 C 15.046875 37.289062 15.03125 37.277344 15.019531 37.269531 L 14.90625 37.410156 L 15.0625 37.3125 L 14.894531 37.417969 L 15.089844 37.417969 C 15.089844 37.375 15.078125 37.335938 15.0625 37.3125 L 14.894531 37.417969 L 15.089844 37.417969 L 14.894531 37.417969 L 15.074219 37.492188 C 15.085938 37.472656 15.089844 37.445312 15.089844 37.417969 L 14.894531 37.417969 L 15.074219 37.492188 L 14.90625 37.421875 L 15.023438 37.566406 C 15.035156 37.554688 15.058594 37.535156 15.074219 37.492188 L 14.90625 37.421875 L 15.023438 37.566406 L 14.9375 37.464844 L 14.996094 37.582031 C 15 37.578125 15.007812 37.578125 15.023438 37.566406 L 14.9375 37.464844 L 14.996094 37.582031 L 14.976562 37.539062 L 14.996094 37.582031 L 14.976562 37.539062 L 14.996094 37.582031 C 14.996094 37.582031 15.003906 37.578125 15.019531 37.574219 C 15.050781 37.566406 15.101562 37.558594 15.167969 37.550781 C 15.394531 37.515625 15.792969 37.488281 16.296875 37.464844 C 16.796875 37.445312 17.402344 37.433594 18.054688 37.433594 C 18.925781 37.433594 19.714844 37.457031 20.285156 37.488281 C 20.566406 37.507812 20.796875 37.527344 20.945312 37.550781 C 21.019531 37.5625 21.078125 37.574219 21.101562 37.578125 L 21.109375 37.582031 L 21.152344 37.484375 L 21.085938 37.566406 C 21.105469 37.582031 21.109375 37.582031 21.109375 37.582031 L 21.152344 37.484375 L 21.085938 37.566406 L 21.199219 37.425781 L 21.042969 37.519531 C 21.058594 37.546875 21.074219 37.558594 21.085938 37.566406 L 21.199219 37.425781 L 21.042969 37.519531 L 21.210938 37.417969 L 21.015625 37.417969 C 21.015625 37.457031 21.03125 37.496094 21.042969 37.519531 L 21.210938 37.417969 L 21.015625 37.417969 L 21.4375 37.417969 C 21.4375 37.386719 21.429688 37.355469 21.421875 37.332031 C 21.398438 37.28125 21.371094 37.257812 21.351562 37.238281 C 21.308594 37.207031 21.28125 37.195312 21.25 37.183594 C 21.195312 37.164062 21.140625 37.152344 21.070312 37.140625 C 20.949219 37.121094 20.789062 37.105469 20.59375 37.089844 C 20.003906 37.042969 19.085938 37.011719 18.054688 37.011719 C 17.171875 37.011719 16.375 37.03125 15.796875 37.070312 C 15.503906 37.085938 15.269531 37.109375 15.097656 37.132812 C 15.011719 37.144531 14.945312 37.15625 14.882812 37.175781 C 14.851562 37.183594 14.824219 37.195312 14.785156 37.214844 C 14.769531 37.226562 14.746094 37.242188 14.722656 37.273438 C 14.707031 37.289062 14.695312 37.308594 14.683594 37.332031 C 14.675781 37.355469 14.667969 37.386719 14.667969 37.417969 C 14.667969 37.449219 14.675781 37.476562 14.683594 37.503906 C 14.707031 37.550781 14.734375 37.578125 14.753906 37.597656 C 14.796875 37.628906 14.824219 37.636719 14.855469 37.648438 C 14.910156 37.667969 14.964844 37.679688 15.035156 37.691406 C 15.15625 37.710938 15.316406 37.730469 15.515625 37.746094 C 16.101562 37.792969 17.019531 37.824219 18.054688 37.824219 C 18.933594 37.824219 19.730469 37.800781 20.308594 37.765625 C 20.601562 37.746094 20.835938 37.726562 21.007812 37.703125 C 21.09375 37.6875 21.164062 37.675781 21.222656 37.660156 C 21.253906 37.648438 21.28125 37.640625 21.320312 37.617188 C 21.339844 37.605469 21.359375 37.589844 21.386719 37.5625 C 21.398438 37.546875 21.410156 37.527344 21.421875 37.503906 C 21.429688 37.476562 21.4375 37.449219 21.4375 37.417969 L 21.226562 37.417969 " fill-opacity="1" fill-rule="nonzero"/><path fill="#000000" d="M 18.433594 38.523438 C 18.433594 38.59375 18.375 38.652344 18.304688 38.652344 C 18.234375 38.652344 18.175781 38.59375 18.175781 38.523438 C 18.175781 38.453125 18.234375 38.398438 18.304688 38.398438 C 18.375 38.398438 18.433594 38.453125 18.433594 38.523438 " fill-opacity="1" fill-rule="nonzero"/><path fill="#dedddb" d="M 18.433594 38.523438 L 18.222656 38.523438 L 18.304688 38.523438 L 18.304688 38.441406 C 18.257812 38.441406 18.222656 38.476562 18.222656 38.523438 L 18.304688 38.523438 L 18.304688 38.441406 L 18.304688 38.523438 L 18.386719 38.523438 C 18.386719 38.476562 18.347656 38.441406 18.304688 38.441406 L 18.304688 38.523438 L 18.386719 38.523438 L 18.304688 38.523438 L 18.304688 38.609375 C 18.347656 38.609375 18.386719 38.570312 18.386719 38.523438 L 18.304688 38.523438 L 18.304688 38.609375 L 18.304688 38.523438 L 18.222656 38.523438 C 18.222656 38.570312 18.257812 38.609375 18.304688 38.609375 L 18.304688 38.523438 L 18.222656 38.523438 L 18.644531 38.523438 C 18.644531 38.429688 18.605469 38.34375 18.542969 38.285156 C 18.484375 38.222656 18.398438 38.1875 18.304688 38.1875 C 18.210938 38.1875 18.125 38.222656 18.066406 38.285156 C 18.003906 38.347656 17.964844 38.433594 17.964844 38.523438 C 17.964844 38.617188 18.003906 38.703125 18.066406 38.765625 C 18.125 38.824219 18.210938 38.863281 18.304688 38.863281 C 18.492188 38.863281 18.644531 38.710938 18.644531 38.523438 L 18.433594 38.523438 " fill-opacity="1" fill-rule="nonzero"/><path fill="#000000" d="M 20.289062 41.253906 C 20.289062 41.324219 20.230469 41.378906 20.160156 41.378906 C 20.089844 41.378906 20.035156 41.324219 20.035156 41.253906 C 20.035156 41.183594 20.089844 41.125 20.160156 41.125 C 20.230469 41.125 20.289062 41.183594 20.289062 41.253906 " fill-opacity="1" fill-rule="nonzero"/><path fill="#dedddb" d="M 20.289062 41.253906 L 20.078125 41.253906 L 20.160156 41.253906 L 20.160156 41.167969 C 20.117188 41.167969 20.078125 41.207031 20.078125 41.253906 L 20.160156 41.253906 L 20.160156 41.167969 L 20.160156 41.253906 L 20.246094 41.253906 C 20.246094 41.207031 20.207031 41.167969 20.160156 41.167969 L 20.160156 41.253906 L 20.246094 41.253906 L 20.160156 41.253906 L 20.160156 41.335938 C 20.207031 41.335938 20.246094 41.300781 20.246094 41.253906 L 20.160156 41.253906 L 20.160156 41.335938 L 20.160156 41.253906 L 20.078125 41.253906 C 20.078125 41.300781 20.117188 41.335938 20.160156 41.335938 L 20.160156 41.253906 L 20.078125 41.253906 L 20.5 41.253906 C 20.5 41.160156 20.460938 41.074219 20.402344 41.015625 C 20.339844 40.953125 20.253906 40.914062 20.160156 40.914062 C 19.976562 40.914062 19.824219 41.066406 19.824219 41.253906 C 19.824219 41.347656 19.859375 41.433594 19.921875 41.492188 C 19.984375 41.554688 20.070312 41.59375 20.160156 41.59375 C 20.253906 41.59375 20.339844 41.554688 20.402344 41.492188 C 20.460938 41.433594 20.5 41.347656 20.5 41.253906 L 20.289062 41.253906 " fill-opacity="1" fill-rule="nonzero"/><path fill="#000000" d="M 18.6875 41 C 18.6875 41.070312 18.628906 41.125 18.558594 41.125 C 18.488281 41.125 18.433594 41.070312 18.433594 41 C 18.433594 40.929688 18.488281 40.871094 18.558594 40.871094 C 18.628906 40.871094 18.6875 40.929688 18.6875 41 " fill-opacity="1" fill-rule="nonzero"/><path fill="#dedddb" d="M 18.6875 41 L 18.476562 41 L 18.558594 41 L 18.5 40.9375 C 18.484375 40.953125 18.476562 40.976562 18.476562 41 L 18.558594 41 L 18.5 40.9375 L 18.558594 40.996094 L 18.558594 40.914062 C 18.535156 40.914062 18.515625 40.925781 18.5 40.9375 L 18.558594 40.996094 L 18.558594 40.914062 L 18.558594 41 L 18.644531 41 C 18.644531 40.953125 18.605469 40.914062 18.558594 40.914062 L 18.558594 41 L 18.644531 41 L 18.558594 41 L 18.558594 41.082031 C 18.605469 41.082031 18.644531 41.046875 18.644531 41 L 18.558594 41 L 18.558594 41.082031 L 18.558594 41 L 18.5 41.058594 C 18.515625 41.074219 18.535156 41.082031 18.558594 41.082031 L 18.558594 41 L 18.5 41.058594 L 18.558594 41 L 18.476562 41 C 18.476562 41.023438 18.484375 41.046875 18.5 41.058594 L 18.558594 41 L 18.476562 41 L 18.898438 41 C 18.898438 40.90625 18.859375 40.820312 18.796875 40.761719 C 18.738281 40.699219 18.652344 40.660156 18.558594 40.660156 C 18.464844 40.660156 18.378906 40.699219 18.320312 40.761719 C 18.257812 40.820312 18.21875 40.90625 18.222656 41 C 18.222656 41.1875 18.371094 41.335938 18.558594 41.335938 C 18.652344 41.335938 18.738281 41.300781 18.796875 41.238281 C 18.859375 41.179688 18.898438 41.09375 18.898438 41 L 18.6875 41 " fill-opacity="1" fill-rule="nonzero"/><path fill="#000000" d="M 18 40.019531 C 18 40.054688 17.96875 40.085938 17.933594 40.085938 C 17.898438 40.085938 17.867188 40.054688 17.867188 40.019531 C 17.867188 39.984375 17.898438 39.953125 17.933594 39.953125 C 17.96875 39.953125 18 39.984375 18 40.019531 " fill-opacity="1" fill-rule="nonzero"/><path fill="#dedddb" d="M 18 40.019531 L 17.789062 40.019531 L 17.933594 40.019531 L 17.933594 39.875 C 17.855469 39.875 17.789062 39.9375 17.789062 40.019531 L 17.933594 40.019531 L 17.933594 39.875 L 17.933594 40.019531 L 18.039062 39.917969 C 18.011719 39.890625 17.972656 39.875 17.933594 39.875 L 17.933594 40.019531 L 18.039062 39.917969 L 17.933594 40.019531 L 18.078125 40.019531 C 18.082031 39.980469 18.0625 39.941406 18.039062 39.917969 L 17.933594 40.019531 L 18.078125 40.019531 L 17.933594 40.019531 L 18.039062 40.121094 C 18.0625 40.097656 18.082031 40.058594 18.078125 40.019531 L 17.933594 40.019531 L 18.039062 40.121094 L 17.933594 40.019531 L 17.933594 40.164062 C 17.972656 40.164062 18.011719 40.148438 18.039062 40.121094 L 17.933594 40.019531 L 17.933594 40.164062 L 17.933594 40.019531 L 17.832031 40.125 C 17.859375 40.148438 17.894531 40.164062 17.933594 40.164062 L 17.933594 40.019531 L 17.832031 40.125 L 17.933594 40.019531 L 17.789062 40.019531 C 17.789062 40.058594 17.804688 40.097656 17.832031 40.125 L 17.933594 40.019531 L 17.789062 40.019531 L 18.210938 40.019531 C 18.210938 39.945312 18.179688 39.871094 18.128906 39.824219 C 18.078125 39.773438 18.007812 39.742188 17.933594 39.742188 C 17.859375 39.742188 17.789062 39.773438 17.738281 39.824219 C 17.6875 39.875 17.65625 39.945312 17.65625 40.019531 C 17.65625 40.09375 17.6875 40.164062 17.738281 40.214844 C 17.789062 40.265625 17.859375 40.296875 17.933594 40.296875 C 18.085938 40.296875 18.210938 40.171875 18.210938 40.019531 L 18 40.019531 " fill-opacity="1" fill-rule="nonzero"/><path fill="#000000" d="M 16.574219 40.085938 C 16.574219 40.121094 16.546875 40.148438 16.511719 40.148438 C 16.472656 40.148438 16.445312 40.121094 16.445312 40.085938 C 16.445312 40.050781 16.472656 40.019531 16.511719 40.019531 C 16.546875 40.019531 16.574219 40.050781 16.574219 40.085938 " fill-opacity="1" fill-rule="nonzero"/><path fill="#dedddb" d="M 16.574219 40.085938 L 16.363281 40.085938 L 16.511719 40.085938 L 16.40625 39.980469 C 16.382812 40.007812 16.363281 40.046875 16.363281 40.085938 L 16.511719 40.085938 L 16.40625 39.980469 L 16.511719 40.085938 L 16.511719 39.9375 C 16.472656 39.9375 16.433594 39.957031 16.40625 39.980469 L 16.511719 40.085938 L 16.511719 39.9375 L 16.511719 40.085938 L 16.613281 39.980469 C 16.585938 39.957031 16.550781 39.9375 16.511719 39.9375 L 16.511719 40.085938 L 16.613281 39.980469 L 16.507812 40.085938 L 16.65625 40.085938 C 16.65625 40.046875 16.640625 40.007812 16.613281 39.980469 L 16.507812 40.085938 L 16.65625 40.085938 L 16.511719 40.085938 L 16.613281 40.1875 C 16.640625 40.160156 16.65625 40.125 16.65625 40.085938 L 16.511719 40.085938 L 16.613281 40.1875 L 16.511719 40.085938 L 16.511719 40.230469 C 16.550781 40.230469 16.585938 40.214844 16.613281 40.1875 L 16.511719 40.085938 L 16.511719 40.230469 L 16.511719 40.085938 L 16.40625 40.1875 C 16.433594 40.214844 16.472656 40.230469 16.511719 40.230469 L 16.511719 40.085938 L 16.40625 40.1875 L 16.511719 40.085938 L 16.363281 40.085938 C 16.363281 40.125 16.382812 40.160156 16.40625 40.1875 L 16.511719 40.085938 L 16.363281 40.085938 L 16.785156 40.085938 C 16.785156 40.011719 16.757812 39.9375 16.707031 39.890625 C 16.65625 39.839844 16.585938 39.808594 16.511719 39.808594 C 16.433594 39.808594 16.363281 39.839844 16.3125 39.890625 C 16.265625 39.9375 16.234375 40.011719 16.234375 40.085938 C 16.234375 40.160156 16.265625 40.230469 16.316406 40.28125 C 16.363281 40.332031 16.433594 40.363281 16.511719 40.359375 C 16.585938 40.363281 16.65625 40.332031 16.707031 40.28125 C 16.753906 40.230469 16.785156 40.160156 16.785156 40.085938 L 16.574219 40.085938 " fill-opacity="1" fill-rule="nonzero"/><path fill="#000000" d="M 19.75 39.664062 C 19.75 39.71875 19.707031 39.761719 19.652344 39.761719 C 19.597656 39.761719 19.554688 39.71875 19.554688 39.664062 C 19.554688 39.609375 19.597656 39.566406 19.652344 39.566406 C 19.707031 39.566406 19.75 39.609375 19.75 39.664062 " fill-opacity="1" fill-rule="nonzero"/><path fill="#dedddb" d="M 19.75 39.664062 L 19.539062 39.664062 L 19.652344 39.664062 L 19.574219 39.582031 C 19.554688 39.601562 19.539062 39.632812 19.539062 39.664062 L 19.652344 39.664062 L 19.574219 39.582031 L 19.652344 39.664062 L 19.652344 39.550781 C 19.621094 39.550781 19.59375 39.5625 19.574219 39.582031 L 19.652344 39.664062 L 19.652344 39.550781 L 19.652344 39.664062 L 19.730469 39.582031 C 19.710938 39.5625 19.683594 39.550781 19.652344 39.550781 L 19.652344 39.664062 L 19.730469 39.582031 L 19.652344 39.664062 L 19.765625 39.664062 C 19.765625 39.632812 19.75 39.601562 19.730469 39.582031 L 19.652344 39.664062 L 19.765625 39.664062 L 19.652344 39.664062 L 19.730469 39.742188 C 19.753906 39.722656 19.765625 39.695312 19.765625 39.664062 L 19.652344 39.664062 L 19.730469 39.742188 L 19.652344 39.664062 L 19.652344 39.777344 C 19.683594 39.777344 19.710938 39.761719 19.730469 39.742188 L 19.652344 39.664062 L 19.652344 39.777344 L 19.652344 39.664062 L 19.539062 39.664062 C 19.539062 39.726562 19.589844 39.777344 19.652344 39.777344 L 19.652344 39.664062 L 19.539062 39.664062 L 19.960938 39.664062 C 19.960938 39.492188 19.824219 39.355469 19.652344 39.355469 C 19.566406 39.355469 19.488281 39.390625 19.433594 39.445312 C 19.378906 39.5 19.34375 39.578125 19.34375 39.664062 C 19.34375 39.746094 19.378906 39.828125 19.433594 39.882812 C 19.488281 39.9375 19.570312 39.972656 19.652344 39.972656 C 19.738281 39.972656 19.816406 39.9375 19.871094 39.882812 C 19.925781 39.828125 19.960938 39.75 19.960938 39.664062 L 19.75 39.664062 " fill-opacity="1" fill-rule="nonzero"/><path fill="#000000" d="M 16.050781 41.125 C 16.050781 41.179688 16.007812 41.226562 15.953125 41.226562 C 15.898438 41.226562 15.855469 41.179688 15.855469 41.125 C 15.855469 41.074219 15.898438 41.027344 15.953125 41.027344 C 16.007812 41.027344 16.050781 41.074219 16.050781 41.125 " fill-opacity="1" fill-rule="nonzero"/><path fill="#dedddb" d="M 16.050781 41.125 L 15.839844 41.125 L 15.953125 41.125 L 15.875 41.046875 C 15.851562 41.066406 15.839844 41.097656 15.839844 41.125 L 15.953125 41.125 L 15.875 41.046875 L 15.953125 41.125 L 15.953125 41.011719 C 15.921875 41.011719 15.894531 41.027344 15.875 41.046875 L 15.953125 41.125 L 15.953125 41.011719 L 15.953125 41.125 L 16.03125 41.046875 C 16.011719 41.027344 15.984375 41.011719 15.953125 41.011719 L 15.953125 41.125 L 16.03125 41.046875 L 15.953125 41.125 L 16.066406 41.125 C 16.066406 41.097656 16.050781 41.066406 16.03125 41.046875 L 15.953125 41.125 L 16.066406 41.125 L 15.953125 41.125 L 15.953125 41.238281 C 16.015625 41.238281 16.066406 41.1875 16.066406 41.125 L 15.953125 41.125 L 15.953125 41.238281 L 15.953125 41.125 L 15.839844 41.125 C 15.839844 41.1875 15.890625 41.238281 15.953125 41.238281 L 15.953125 41.125 L 15.839844 41.125 L 16.261719 41.125 C 16.261719 40.957031 16.125 40.816406 15.953125 40.816406 C 15.78125 40.816406 15.644531 40.957031 15.644531 41.125 C 15.644531 41.210938 15.679688 41.289062 15.734375 41.34375 C 15.789062 41.402344 15.867188 41.4375 15.953125 41.4375 C 16.035156 41.4375 16.117188 41.402344 16.171875 41.34375 C 16.226562 41.289062 16.261719 41.210938 16.261719 41.125 L 16.050781 41.125 " fill-opacity="1" fill-rule="nonzero"/><path fill="#000000" d="M 15.6875 38.554688 C 15.6875 38.582031 15.667969 38.605469 15.640625 38.605469 C 15.613281 38.605469 15.59375 38.582031 15.59375 38.554688 C 15.59375 38.53125 15.613281 38.507812 15.640625 38.507812 C 15.667969 38.507812 15.6875 38.53125 15.6875 38.554688 " fill-opacity="1" fill-rule="nonzero"/><path fill="#dedddb" d="M 15.6875 38.554688 L 15.476562 38.554688 L 15.640625 38.554688 L 15.527344 38.441406 C 15.496094 38.46875 15.476562 38.511719 15.476562 38.554688 L 15.640625 38.554688 L 15.527344 38.441406 L 15.640625 38.554688 L 15.640625 38.394531 C 15.597656 38.390625 15.554688 38.410156 15.527344 38.441406 L 15.640625 38.554688 L 15.640625 38.394531 L 15.640625 38.554688 L 15.753906 38.441406 C 15.726562 38.410156 15.683594 38.394531 15.640625 38.394531 L 15.640625 38.554688 L 15.753906 38.441406 L 15.640625 38.554688 L 15.804688 38.554688 C 15.804688 38.511719 15.785156 38.46875 15.753906 38.441406 L 15.640625 38.554688 L 15.804688 38.554688 L 15.640625 38.554688 L 15.753906 38.671875 C 15.785156 38.644531 15.804688 38.601562 15.804688 38.554688 L 15.640625 38.554688 L 15.753906 38.671875 L 15.640625 38.554688 L 15.640625 38.71875 C 15.6875 38.71875 15.726562 38.699219 15.753906 38.671875 L 15.640625 38.554688 L 15.640625 38.71875 L 15.640625 38.558594 L 15.527344 38.671875 C 15.554688 38.703125 15.597656 38.71875 15.640625 38.71875 L 15.640625 38.558594 L 15.527344 38.671875 L 15.640625 38.554688 L 15.476562 38.554688 C 15.476562 38.601562 15.496094 38.644531 15.527344 38.671875 L 15.640625 38.554688 L 15.476562 38.554688 L 15.898438 38.554688 C 15.898438 38.484375 15.871094 38.417969 15.824219 38.371094 C 15.777344 38.324219 15.710938 38.296875 15.640625 38.296875 C 15.570312 38.296875 15.503906 38.328125 15.457031 38.375 C 15.410156 38.417969 15.382812 38.484375 15.382812 38.554688 C 15.382812 38.628906 15.410156 38.695312 15.457031 38.738281 C 15.503906 38.785156 15.570312 38.816406 15.640625 38.816406 C 15.710938 38.816406 15.777344 38.785156 15.824219 38.738281 C 15.871094 38.695312 15.898438 38.628906 15.898438 38.554688 L 15.6875 38.554688 " fill-opacity="1" fill-rule="nonzero"/><path fill="#000000" d="M 20.082031 40.871094 C 20.082031 40.898438 20.0625 40.921875 20.035156 40.921875 C 20.007812 40.921875 19.984375 40.898438 19.984375 40.871094 C 19.984375 40.847656 20.007812 40.824219 20.035156 40.824219 C 20.0625 40.824219 20.082031 40.847656 20.082031 40.871094 " fill-opacity="1" fill-rule="nonzero"/><path fill="#dedddb" d="M 20.082031 40.871094 L 19.871094 40.871094 L 20.035156 40.871094 L 19.917969 40.757812 C 19.890625 40.785156 19.871094 40.828125 19.871094 40.871094 L 20.035156 40.871094 L 19.917969 40.757812 L 20.035156 40.871094 L 20.035156 40.707031 C 19.992188 40.707031 19.949219 40.726562 19.917969 40.757812 L 20.035156 40.871094 L 20.035156 40.707031 L 20.035156 40.871094 L 20.148438 40.757812 C 20.121094 40.726562 20.078125 40.707031 20.035156 40.707031 L 20.035156 40.871094 L 20.148438 40.757812 L 20.03125 40.871094 L 20.199219 40.871094 C 20.199219 40.828125 20.179688 40.785156 20.148438 40.757812 L 20.03125 40.871094 L 20.199219 40.871094 L 20.03125 40.871094 L 20.148438 40.988281 C 20.179688 40.960938 20.199219 40.917969 20.199219 40.871094 L 20.03125 40.871094 L 20.148438 40.988281 L 20.035156 40.875 L 20.035156 41.035156 C 20.078125 41.035156 20.121094 41.019531 20.148438 40.988281 L 20.035156 40.875 L 20.035156 41.035156 L 20.035156 40.871094 L 19.917969 40.988281 C 19.949219 41.019531 19.992188 41.035156 20.035156 41.035156 L 20.035156 40.871094 L 19.917969 40.988281 L 20.035156 40.871094 L 19.871094 40.871094 C 19.871094 40.917969 19.890625 40.960938 19.917969 40.988281 L 20.035156 40.871094 L 19.871094 40.871094 L 20.292969 40.871094 C 20.292969 40.800781 20.265625 40.734375 20.214844 40.6875 C 20.171875 40.640625 20.105469 40.613281 20.035156 40.613281 C 19.964844 40.613281 19.898438 40.640625 19.851562 40.6875 C 19.804688 40.734375 19.773438 40.800781 19.773438 40.871094 C 19.773438 40.945312 19.804688 41.011719 19.851562 41.054688 C 19.898438 41.101562 19.964844 41.132812 20.035156 41.132812 C 20.101562 41.132812 20.167969 41.101562 20.214844 41.054688 C 20.265625 41.011719 20.292969 40.941406 20.292969 40.871094 L 20.082031 40.871094 " fill-opacity="1" fill-rule="nonzero"/><path fill="#000000" d="M 17.554688 41.253906 C 17.554688 41.28125 17.535156 41.300781 17.507812 41.300781 C 17.480469 41.300781 17.460938 41.28125 17.460938 41.253906 C 17.460938 41.226562 17.480469 41.207031 17.507812 41.207031 C 17.535156 41.207031 17.554688 41.226562 17.554688 41.253906 " fill-opacity="1" fill-rule="nonzero"/><path fill="#dedddb" d="M 17.554688 41.253906 L 17.34375 41.253906 L 17.507812 41.253906 L 17.394531 41.136719 C 17.363281 41.164062 17.34375 41.207031 17.34375 41.253906 L 17.507812 41.253906 L 17.394531 41.136719 L 17.507812 41.253906 L 17.507812 41.089844 C 17.464844 41.089844 17.421875 41.109375 17.394531 41.136719 L 17.507812 41.253906 L 17.507812 41.089844 L 17.507812 41.253906 L 17.621094 41.136719 C 17.59375 41.109375 17.550781 41.089844 17.507812 41.089844 L 17.507812 41.253906 L 17.621094 41.136719 L 17.507812 41.253906 L 17.671875 41.253906 C 17.671875 41.210938 17.652344 41.167969 17.621094 41.136719 L 17.507812 41.253906 L 17.671875 41.253906 L 17.507812 41.253906 L 17.507812 41.417969 C 17.597656 41.417969 17.671875 41.34375 17.671875 41.253906 L 17.507812 41.253906 L 17.507812 41.417969 L 17.507812 41.253906 L 17.394531 41.371094 C 17.421875 41.398438 17.464844 41.417969 17.507812 41.417969 L 17.507812 41.253906 L 17.394531 41.371094 L 17.507812 41.253906 L 17.34375 41.253906 C 17.34375 41.296875 17.363281 41.339844 17.394531 41.371094 L 17.507812 41.253906 L 17.34375 41.253906 L 17.765625 41.253906 C 17.765625 41.183594 17.738281 41.117188 17.691406 41.070312 C 17.644531 41.023438 17.578125 40.996094 17.507812 40.996094 C 17.4375 40.996094 17.371094 41.023438 17.324219 41.070312 C 17.277344 41.117188 17.25 41.183594 17.25 41.253906 C 17.25 41.324219 17.277344 41.390625 17.324219 41.4375 C 17.371094 41.484375 17.4375 41.511719 17.507812 41.511719 C 17.578125 41.511719 17.644531 41.484375 17.691406 41.4375 C 17.738281 41.390625 17.765625 41.324219 17.765625 41.253906 L 17.554688 41.253906 " fill-opacity="1" fill-rule="nonzero"/><g clip-path="url(#9414fb0fc4)"><path fill="#000000" d="M 22.578125 31.847656 C 22.578125 31.953125 20.742188 32.042969 18.230469 32.042969 C 15.71875 32.042969 13.460938 31.953125 13.460938 31.847656 C 13.460938 31.738281 15.71875 31.652344 18.230469 31.652344 C 20.742188 31.652344 22.578125 31.738281 22.578125 31.847656 " fill-opacity="1" fill-rule="nonzero"/><path fill="#dedddb" d="M 22.578125 31.847656 L 22.367188 31.847656 L 22.570312 31.847656 L 22.390625 31.753906 C 22.378906 31.777344 22.367188 31.808594 22.367188 31.847656 L 22.570312 31.847656 L 22.390625 31.753906 L 22.554688 31.839844 L 22.457031 31.683594 C 22.441406 31.691406 22.417969 31.703125 22.390625 31.753906 L 22.554688 31.839844 L 22.457031 31.683594 L 22.507812 31.765625 L 22.472656 31.671875 C 22.472656 31.671875 22.46875 31.675781 22.457031 31.683594 L 22.507812 31.765625 L 22.472656 31.671875 L 22.46875 31.675781 C 22.457031 31.679688 22.402344 31.691406 22.332031 31.699219 C 22.199219 31.71875 22 31.734375 21.746094 31.75 C 20.984375 31.800781 19.726562 31.832031 18.230469 31.832031 C 16.976562 31.832031 15.785156 31.808594 14.914062 31.773438 C 14.476562 31.753906 14.117188 31.734375 13.875 31.710938 C 13.753906 31.699219 13.660156 31.6875 13.605469 31.679688 C 13.589844 31.675781 13.578125 31.671875 13.574219 31.671875 L 13.5625 31.667969 L 13.527344 31.773438 L 13.589844 31.683594 C 13.570312 31.667969 13.5625 31.667969 13.5625 31.667969 L 13.527344 31.773438 L 13.589844 31.683594 L 13.484375 31.835938 L 13.636719 31.726562 C 13.617188 31.703125 13.601562 31.691406 13.589844 31.683594 L 13.484375 31.835938 L 13.636719 31.726562 L 13.472656 31.847656 L 13.671875 31.847656 C 13.675781 31.796875 13.652344 31.75 13.636719 31.726562 L 13.472656 31.847656 L 13.671875 31.847656 L 13.472656 31.847656 L 13.640625 31.957031 C 13.65625 31.933594 13.675781 31.890625 13.671875 31.847656 L 13.472656 31.847656 L 13.640625 31.957031 L 13.480469 31.851562 L 13.597656 32.003906 C 13.609375 31.996094 13.625 31.980469 13.640625 31.957031 L 13.480469 31.851562 L 13.597656 32.003906 L 13.515625 31.894531 L 13.5625 32.023438 C 13.566406 32.023438 13.574219 32.019531 13.597656 32.003906 L 13.515625 31.894531 L 13.5625 32.023438 L 13.5625 32.019531 L 13.5625 32.023438 L 13.5625 32.019531 L 13.5625 32.023438 C 13.570312 32.023438 13.589844 32.015625 13.617188 32.011719 C 13.722656 31.992188 13.933594 31.972656 14.21875 31.953125 C 15.078125 31.898438 16.601562 31.863281 18.230469 31.863281 C 19.484375 31.863281 20.570312 31.882812 21.339844 31.917969 C 21.722656 31.9375 22.027344 31.957031 22.230469 31.980469 C 22.332031 31.992188 22.40625 32.003906 22.449219 32.011719 C 22.457031 32.015625 22.464844 32.015625 22.46875 32.019531 L 22.472656 32.019531 L 22.515625 31.910156 L 22.445312 32.003906 C 22.464844 32.019531 22.472656 32.019531 22.472656 32.019531 L 22.515625 31.910156 L 22.445312 32.003906 L 22.554688 31.855469 L 22.402344 31.957031 C 22.417969 31.980469 22.433594 31.992188 22.445312 32.003906 L 22.554688 31.855469 L 22.402344 31.957031 L 22.566406 31.847656 L 22.367188 31.847656 C 22.367188 31.890625 22.382812 31.933594 22.402344 31.957031 L 22.566406 31.847656 L 22.367188 31.847656 L 22.789062 31.847656 C 22.789062 31.808594 22.777344 31.769531 22.765625 31.742188 C 22.734375 31.6875 22.703125 31.667969 22.679688 31.652344 C 22.65625 31.640625 22.640625 31.632812 22.621094 31.625 C 22.589844 31.613281 22.5625 31.605469 22.527344 31.597656 C 22.464844 31.585938 22.390625 31.574219 22.296875 31.5625 C 21.972656 31.527344 21.4375 31.496094 20.738281 31.472656 C 20.042969 31.453125 19.183594 31.441406 18.230469 31.441406 C 16.972656 31.441406 15.777344 31.460938 14.894531 31.496094 C 14.453125 31.515625 14.09375 31.535156 13.835938 31.558594 C 13.707031 31.574219 13.605469 31.585938 13.523438 31.601562 C 13.484375 31.609375 13.453125 31.613281 13.414062 31.628906 C 13.394531 31.636719 13.371094 31.644531 13.339844 31.667969 C 13.324219 31.679688 13.308594 31.699219 13.289062 31.726562 C 13.269531 31.753906 13.25 31.796875 13.25 31.847656 C 13.25 31.894531 13.269531 31.9375 13.289062 31.96875 C 13.304688 31.996094 13.324219 32.011719 13.339844 32.023438 C 13.371094 32.046875 13.390625 32.054688 13.410156 32.0625 C 13.449219 32.078125 13.476562 32.082031 13.515625 32.089844 C 13.582031 32.105469 13.667969 32.117188 13.773438 32.128906 C 14.144531 32.164062 14.769531 32.195312 15.550781 32.21875 C 16.332031 32.238281 17.261719 32.253906 18.230469 32.253906 C 19.488281 32.253906 20.578125 32.230469 21.355469 32.195312 C 21.746094 32.175781 22.058594 32.15625 22.277344 32.132812 C 22.386719 32.121094 22.472656 32.109375 22.542969 32.089844 C 22.578125 32.082031 22.609375 32.074219 22.648438 32.058594 C 22.667969 32.046875 22.6875 32.039062 22.71875 32.011719 C 22.734375 31.996094 22.75 31.976562 22.765625 31.949219 C 22.777344 31.921875 22.789062 31.886719 22.789062 31.847656 L 22.578125 31.847656 " fill-opacity="1" fill-rule="nonzero"/></g></svg>