<svg xmlns="http://www.w3.org/2000/svg" xmlns:xlink="http://www.w3.org/1999/xlink" width="64" zoomAndPan="magnify" viewBox="0 0 48 48" height="64" preserveAspectRatio="xMidYMid meet" version="1.0"><defs><clipPath id="36ac74ffca"><path d="M 7 5.667969 L 41.207031 5.667969 L 41.207031 41.667969 L 7 41.667969 Z M 7 5.667969 " clip-rule="nonzero"/></clipPath></defs><g clip-path="url(#36ac74ffca)"><path fill="#000000" d="M 26.109375 19.601562 L 31.777344 13.9375 L 32.828125 10.578125 L 38.566406 6.429688 L 41.113281 8.980469 L 36.96875 14.71875 L 33.597656 15.769531 L 27.9375 21.429688 Z M 22.859375 28.125 L 12.988281 37.996094 C 12.59375 38.386719 11.957031 38.386719 11.5625 37.996094 C 11.167969 37.601562 11.167969 36.960938 11.5625 36.570312 L 21.433594 26.699219 L 18.335938 23.601562 L 8.226562 33.714844 C 6.679688 35.261719 6.679688 37.769531 8.226562 39.320312 C 9.773438 40.867188 12.285156 40.867188 13.832031 39.320312 L 23.941406 29.210938 Z M 13.371094 5.695312 L 16.523438 10.183594 C 16.953125 10.808594 16.800781 11.652344 16.1875 12.085938 L 12.78125 14.480469 C 12.539062 14.648438 12.265625 14.730469 11.992188 14.730469 C 11.566406 14.730469 11.144531 14.527344 10.878906 14.144531 L 7.722656 9.648438 C 6.726562 11.804688 6.875 14.40625 8.332031 16.484375 C 9.667969 18.390625 11.796875 19.410156 13.960938 19.410156 C 14.597656 19.410156 15.234375 19.320312 15.855469 19.144531 L 28.007812 31.296875 C 26.871094 33.476562 26.941406 36.195312 28.429688 38.363281 C 29.761719 40.308594 31.914062 41.34375 34.105469 41.34375 C 34.277344 41.34375 34.449219 41.339844 34.621094 41.324219 L 31.511719 36.796875 C 31.085938 36.175781 31.246094 35.335938 31.867188 34.902344 L 35.296875 32.546875 C 35.535156 32.382812 35.804688 32.304688 36.070312 32.304688 C 36.503906 32.304688 36.929688 32.511719 37.199219 32.894531 L 40.300781 37.421875 C 41.316406 35.28125 41.195312 32.671875 39.757812 30.582031 C 38.425781 28.644531 36.28125 27.601562 34.097656 27.601562 C 33.515625 27.601562 32.929688 27.675781 32.355469 27.828125 L 20.117188 15.589844 C 21.199219 13.410156 21.078125 10.722656 19.585938 8.589844 C 18.246094 6.6875 16.128906 5.667969 13.96875 5.667969 C 13.769531 5.667969 13.570312 5.675781 13.371094 5.695312 Z M 13.371094 5.695312 " fill-opacity="1" fill-rule="nonzero"/></g></svg>