<svg xmlns="http://www.w3.org/2000/svg" xmlns:xlink="http://www.w3.org/1999/xlink" width="64" zoomAndPan="magnify" viewBox="0 0 48 48" height="64" preserveAspectRatio="xMidYMid meet" version="1.0"><defs><clipPath id="29682f64ca"><path d="M 20 28 L 44.296875 28 L 44.296875 42.050781 L 20 42.050781 Z M 20 28 " clip-rule="nonzero"/></clipPath><clipPath id="b95ceec098"><path d="M 3.886719 5.316406 L 18 5.316406 L 18 19 L 3.886719 19 Z M 3.886719 5.316406 " clip-rule="nonzero"/></clipPath></defs><path fill="#000000" d="M 37.171875 22.566406 C 37.042969 23.40625 36.765625 24.195312 36.339844 24.933594 C 35.4375 26.484375 34.042969 27.273438 32.203125 27.28125 C 30.464844 27.292969 29.019531 26.503906 27.917969 24.941406 C 27.445312 24.257812 27.078125 23.519531 26.816406 22.730469 L 27.027344 19.648438 C 27.6875 19.390625 28.304688 19.050781 28.875 18.628906 C 28.867188 18.644531 28.859375 18.664062 28.851562 18.683594 C 28.726562 18.9375 28.75 19.175781 28.925781 19.398438 C 29.097656 19.621094 29.320312 19.703125 29.597656 19.644531 C 29.734375 19.613281 32.8125 18.914062 35.59375 16.269531 C 35.839844 16.550781 36.046875 16.859375 36.214844 17.195312 C 36.675781 18.09375 37.214844 19.753906 37.171875 22.566406 Z M 37.171875 22.566406 " fill-opacity="1" fill-rule="nonzero"/><path fill="#000000" d="M 38.378906 19.894531 C 38.195312 18.527344 37.847656 17.367188 37.332031 16.421875 C 36.671875 15.210938 35.960938 14.796875 35.882812 14.753906 C 35.746094 14.679688 35.605469 14.65625 35.457031 14.679688 C 35.304688 14.703125 35.179688 14.769531 35.074219 14.878906 C 33.519531 16.503906 31.769531 17.414062 30.609375 17.886719 C 30.925781 16.75 30.667969 16.230469 30.441406 16 C 30.367188 15.929688 30.28125 15.875 30.183594 15.839844 C 30.085938 15.804688 29.988281 15.796875 29.882812 15.808594 C 29.78125 15.820312 29.6875 15.855469 29.601562 15.910156 C 29.515625 15.96875 29.445312 16.039062 29.390625 16.128906 C 28.320312 17.886719 26.222656 18.496094 26.203125 18.5 C 25.898438 18.585938 25.734375 18.785156 25.710938 19.105469 L 25.664062 19.8125 C 25.605469 19.59375 25.546875 19.359375 25.5 19.113281 C 25.007812 16.667969 25.390625 14.378906 26.632812 12.308594 C 26.765625 12.144531 27.671875 11.074219 29.382812 10.375 C 31.238281 9.621094 33.328125 9.746094 35.117188 10.71875 C 35.179688 10.753906 35.25 10.777344 35.320312 10.789062 L 35.933594 10.898438 C 36.054688 10.917969 36.175781 10.90625 36.292969 10.859375 C 36.308594 10.855469 37.554688 10.390625 38.503906 10.714844 C 37.835938 11.082031 37.511719 11.417969 37.425781 11.816406 C 37.386719 11.992188 37.417969 12.15625 37.507812 12.308594 C 37.515625 12.320312 38.265625 13.582031 38.601562 15.441406 C 38.882812 16.996094 38.808594 18.484375 38.378906 19.894531 Z M 38.378906 19.894531 " fill-opacity="1" fill-rule="nonzero"/><g clip-path="url(#29682f64ca)"><path fill="#000000" d="M 44.296875 37.707031 L 44.296875 42.035156 L 42.121094 42.035156 L 42.121094 38.867188 C 42.125 38.675781 42.0625 38.515625 41.929688 38.378906 C 41.796875 38.242188 41.636719 38.171875 41.445312 38.171875 C 41.257812 38.171875 41.097656 38.242188 40.964844 38.378906 C 40.832031 38.515625 40.769531 38.675781 40.773438 38.867188 L 40.773438 42.035156 L 23.636719 42.035156 L 23.636719 38.867188 C 23.636719 38.679688 23.570312 38.519531 23.441406 38.390625 C 23.308594 38.257812 23.148438 38.191406 22.964844 38.191406 C 22.777344 38.191406 22.617188 38.257812 22.488281 38.390625 C 22.355469 38.519531 22.289062 38.679688 22.289062 38.867188 L 22.289062 42.035156 L 20.113281 42.035156 L 20.113281 37.707031 C 20.113281 37.484375 20.121094 37.265625 20.136719 37.046875 C 20.667969 36.988281 21.195312 36.902344 21.714844 36.78125 C 23.011719 36.476562 24.25 36.019531 25.433594 35.40625 C 25.515625 35.605469 25.621094 35.789062 25.75 35.960938 C 25.875 36.136719 26.019531 36.289062 26.183594 36.425781 C 26.347656 36.566406 26.527344 36.679688 26.71875 36.777344 C 26.910156 36.871094 27.113281 36.941406 27.320312 36.988281 C 27.53125 37.035156 27.742188 37.054688 27.953125 37.050781 C 28.167969 37.042969 28.378906 37.015625 28.585938 36.960938 C 28.792969 36.902344 28.988281 36.824219 29.175781 36.722656 C 29.363281 36.617188 29.535156 36.496094 29.695312 36.351562 C 29.851562 36.207031 29.992188 36.042969 30.113281 35.867188 C 30.230469 35.6875 30.328125 35.496094 30.402344 35.296875 C 30.476562 35.09375 30.523438 34.886719 30.550781 34.675781 C 30.574219 34.460938 30.574219 34.246094 30.546875 34.035156 C 30.519531 33.820312 30.46875 33.613281 30.394531 33.414062 C 30.316406 33.210938 30.21875 33.023438 30.097656 32.847656 C 29.976562 32.667969 29.835938 32.507812 29.675781 32.367188 C 29.519531 32.222656 29.34375 32.101562 29.15625 32 C 28.96875 31.898438 28.769531 31.820312 28.5625 31.765625 C 28.355469 31.714844 28.144531 31.683594 27.929688 31.683594 C 27.71875 31.679688 27.507812 31.703125 27.296875 31.75 C 27.089844 31.796875 26.890625 31.871094 26.699219 31.964844 C 26.507812 32.0625 26.332031 32.179688 26.167969 32.320312 C 26.003906 32.457031 25.859375 32.613281 25.734375 32.789062 C 25.609375 32.960938 25.503906 33.148438 25.425781 33.347656 C 25.34375 33.546875 25.285156 33.75 25.253906 33.964844 C 24.03125 34.652344 22.738281 35.152344 21.375 35.46875 C 21.027344 35.546875 20.683594 35.609375 20.34375 35.660156 C 20.460938 35.164062 20.613281 34.683594 20.8125 34.214844 C 21.007812 33.746094 21.238281 33.296875 21.507812 32.867188 C 21.78125 32.4375 22.085938 32.03125 22.421875 31.652344 C 22.761719 31.277344 23.128906 30.929688 23.523438 30.613281 C 23.921875 30.296875 24.339844 30.015625 24.78125 29.769531 C 25.226562 29.523438 25.6875 29.320312 26.164062 29.152344 C 26.640625 28.984375 27.128906 28.855469 27.628906 28.773438 C 28.128906 28.6875 28.628906 28.644531 29.136719 28.644531 L 35.273438 28.644531 C 35.867188 28.644531 36.453125 28.703125 37.035156 28.816406 C 37.613281 28.933594 38.179688 29.105469 38.726562 29.332031 C 39.273438 29.5625 39.792969 29.839844 40.285156 30.171875 C 40.777344 30.5 41.234375 30.878906 41.652344 31.296875 C 42.070312 31.71875 42.445312 32.175781 42.773438 32.671875 C 43.105469 33.167969 43.382812 33.6875 43.609375 34.238281 C 43.835938 34.789062 44.007812 35.355469 44.121094 35.9375 C 44.238281 36.523438 44.296875 37.113281 44.296875 37.707031 Z M 44.296875 37.707031 " fill-opacity="1" fill-rule="nonzero"/></g><path fill="#000000" d="M 29.222656 34.367188 C 29.222656 34.546875 29.1875 34.714844 29.121094 34.878906 C 29.054688 35.042969 28.957031 35.183594 28.832031 35.308594 C 28.710938 35.433594 28.566406 35.53125 28.402344 35.597656 C 28.242188 35.667969 28.070312 35.699219 27.894531 35.699219 C 27.71875 35.699219 27.550781 35.667969 27.390625 35.597656 C 27.226562 35.53125 27.082031 35.433594 26.960938 35.308594 C 26.835938 35.1875 26.738281 35.042969 26.671875 34.878906 C 26.605469 34.714844 26.570312 34.546875 26.570312 34.371094 C 26.570312 34.191406 26.605469 34.023438 26.671875 33.859375 C 26.738281 33.695312 26.835938 33.550781 26.957031 33.425781 C 27.082031 33.304688 27.226562 33.207031 27.386719 33.140625 C 27.550781 33.070312 27.71875 33.039062 27.894531 33.039062 C 28.070312 33.039062 28.238281 33.070312 28.402344 33.136719 C 28.566406 33.207031 28.707031 33.300781 28.832031 33.425781 C 28.957031 33.550781 29.050781 33.695312 29.121094 33.859375 C 29.1875 34.023438 29.222656 34.191406 29.222656 34.367188 Z M 29.222656 34.367188 " fill-opacity="1" fill-rule="nonzero"/><path fill="#000000" d="M 18.945312 35.773438 C 18.863281 36.21875 18.808594 36.667969 18.785156 37.121094 C 18.265625 37.121094 17.746094 37.082031 17.234375 37.007812 C 15.445312 36.75 13.800781 36.042969 12.347656 34.902344 C 10.550781 33.492188 9.480469 31.625 9.167969 29.351562 C 8.941406 27.707031 9.113281 25.890625 9.679688 23.949219 C 10.058594 22.636719 10.148438 21.308594 9.945312 19.957031 C 10 19.957031 10.054688 19.957031 10.109375 19.957031 C 10.503906 19.960938 10.898438 19.925781 11.289062 19.855469 C 11.503906 21.367188 11.394531 22.859375 10.972656 24.328125 C 10.128906 27.21875 9.832031 31.214844 13.175781 33.835938 C 14.859375 35.15625 16.792969 35.800781 18.945312 35.773438 Z M 18.945312 35.773438 " fill-opacity="1" fill-rule="nonzero"/><g clip-path="url(#b95ceec098)"><path fill="#000000" d="M 17.289062 7.773438 L 17.289062 12.261719 C 17.289062 15.566406 14.90625 18.324219 11.773438 18.886719 C 11.382812 18.957031 10.988281 18.992188 10.589844 18.992188 C 10.535156 18.992188 10.480469 18.992188 10.425781 18.988281 C 6.804688 18.902344 3.886719 15.917969 3.886719 12.261719 L 3.886719 7.878906 C 3.890625 7.535156 3.980469 7.21875 4.164062 6.929688 C 4.347656 6.640625 4.59375 6.421875 4.902344 6.273438 L 6.195312 5.664062 C 6.363281 5.582031 6.535156 5.574219 6.710938 5.636719 C 6.886719 5.703125 7.011719 5.816406 7.09375 5.988281 C 7.171875 6.15625 7.179688 6.328125 7.117188 6.503906 C 7.054688 6.679688 6.9375 6.808594 6.769531 6.886719 L 5.476562 7.5 C 5.316406 7.574219 5.234375 7.703125 5.234375 7.882812 L 5.234375 12.261719 C 5.234375 12.617188 5.269531 12.964844 5.339844 13.3125 C 5.40625 13.65625 5.507812 13.992188 5.644531 14.320312 C 5.777344 14.644531 5.945312 14.957031 6.140625 15.25 C 6.335938 15.542969 6.558594 15.816406 6.804688 16.0625 C 7.054688 16.3125 7.324219 16.535156 7.617188 16.734375 C 7.910156 16.929688 8.21875 17.09375 8.542969 17.230469 C 8.867188 17.367188 9.203125 17.46875 9.546875 17.535156 C 9.890625 17.605469 10.238281 17.640625 10.589844 17.640625 C 10.710938 17.640625 10.828125 17.636719 10.945312 17.628906 C 10.949219 17.628906 10.953125 17.628906 10.957031 17.628906 C 11.292969 17.605469 11.625 17.550781 11.949219 17.464844 C 12.273438 17.378906 12.589844 17.261719 12.890625 17.117188 C 13.195312 16.972656 13.480469 16.800781 13.753906 16.597656 C 14.023438 16.398438 14.273438 16.175781 14.503906 15.929688 C 14.730469 15.683594 14.9375 15.417969 15.117188 15.132812 C 15.296875 14.847656 15.445312 14.546875 15.570312 14.230469 C 15.691406 13.917969 15.785156 13.59375 15.847656 13.261719 C 15.910156 12.933594 15.945312 12.597656 15.945312 12.261719 L 15.945312 7.773438 C 15.945312 7.621094 15.878906 7.503906 15.753906 7.421875 L 14.542969 6.617188 C 14.382812 6.515625 14.28125 6.375 14.242188 6.1875 C 14.203125 6.003906 14.234375 5.832031 14.339844 5.671875 C 14.441406 5.515625 14.585938 5.417969 14.773438 5.382812 C 14.957031 5.34375 15.128906 5.378906 15.285156 5.488281 L 16.496094 6.289062 C 17.027344 6.640625 17.292969 7.136719 17.289062 7.773438 Z M 17.289062 7.773438 " fill-opacity="1" fill-rule="nonzero"/></g></svg>