<svg xmlns="http://www.w3.org/2000/svg" xmlns:xlink="http://www.w3.org/1999/xlink" width="64" zoomAndPan="magnify" viewBox="0 0 48 48" height="64" preserveAspectRatio="xMidYMid meet" version="1.0"><defs><clipPath id="6a4cc25c77"><path d="M 4.523438 5 L 43 5 L 43 42.898438 L 4.523438 42.898438 Z M 4.523438 5 " clip-rule="nonzero"/></clipPath></defs><g clip-path="url(#6a4cc25c77)"><path fill="#000000" d="M 6.441406 27.074219 C 5.398438 21.148438 7.332031 15.21875 11.507812 11.058594 C 18.636719 3.957031 30.195312 3.957031 37.324219 11.058594 C 41.519531 15.234375 43.460938 21.191406 42.375 27.183594 C 42.3125 27.542969 41.96875 27.777344 41.613281 27.714844 C 41.253906 27.648438 41.019531 27.308594 41.082031 26.953125 C 42.960938 16.59375 35.007812 7.046875 24.417969 7.046875 C 14.019531 7.046875 6.140625 16.273438 7.664062 26.429688 C 7.679688 26.523438 7.8125 26.53125 7.835938 26.441406 L 7.976562 25.964844 C 8.078125 25.605469 8.445312 25.40625 8.792969 25.507812 C 9.144531 25.609375 9.34375 25.972656 9.242188 26.324219 L 8.351562 29.414062 C 8.230469 29.832031 7.703125 30.082031 7.257812 29.703125 L 4.832031 27.632812 C 4.558594 27.398438 4.523438 26.984375 4.761719 26.710938 C 4.996094 26.433594 5.414062 26.402344 5.6875 26.636719 L 6.296875 27.15625 C 6.359375 27.210938 6.453125 27.15625 6.441406 27.074219 Z M 13.089844 24.390625 L 23 14.519531 C 23.75 13.773438 24.96875 13.773438 25.714844 14.519531 L 35.625 24.390625 C 36.265625 25.027344 37.394531 24.589844 37.394531 23.660156 C 37.394531 23.394531 37.292969 23.128906 37.09375 22.929688 L 37.09375 22.925781 L 26.941406 12.839844 C 25.511719 11.417969 23.179688 11.414062 21.746094 12.84375 L 11.625 22.929688 C 10.984375 23.566406 11.421875 24.691406 12.355469 24.691406 C 12.625 24.691406 12.890625 24.589844 13.089844 24.390625 Z M 15.5625 23.824219 L 15.5625 31.75 C 15.5625 31.800781 15.605469 31.839844 15.65625 31.835938 C 16.730469 31.773438 17.855469 31.839844 19.105469 32.164062 L 26.078125 32.167969 C 27.71875 32.167969 29.015625 33.574219 28.878906 35.195312 C 28.875 35.242188 28.910156 35.285156 28.960938 35.289062 C 29.78125 35.34375 30.226562 35.003906 30.957031 34.585938 L 33.09375 33.355469 C 33.121094 33.339844 33.136719 33.3125 33.136719 33.28125 L 33.152344 23.820312 C 33.152344 23.796875 33.144531 23.777344 33.128906 23.757812 L 24.785156 15.449219 C 24.550781 15.214844 24.167969 15.214844 23.933594 15.449219 L 15.585938 23.761719 C 15.570312 23.777344 15.5625 23.800781 15.5625 23.824219 Z M 21.421875 25.398438 C 21.683594 25.714844 22.097656 26.019531 22.585938 26.234375 C 23.191406 26.488281 23.730469 26.542969 24.339844 26.582031 C 24.976562 26.621094 25.855469 26.734375 26.308594 27.28125 C 26.777344 27.851562 26.226562 28.355469 25.664062 28.601562 C 24.507812 29.09375 22.902344 28.773438 21.835938 28.292969 C 21.503906 28.144531 21.113281 28.292969 20.964844 28.621094 C 20.816406 28.953125 20.964844 29.339844 21.292969 29.488281 C 22.046875 29.828125 22.8125 30.035156 23.621094 30.117188 C 23.664062 30.121094 23.699219 30.160156 23.699219 30.203125 L 23.699219 30.597656 C 23.699219 30.960938 23.992188 31.257812 24.359375 31.257812 C 24.722656 31.257812 25.015625 30.96875 25.019531 30.597656 C 25.023438 29.78125 24.914062 30.335938 26.171875 29.804688 C 27.089844 29.425781 27.738281 28.730469 27.808594 27.761719 C 27.808594 27.734375 27.808594 27.707031 27.808594 27.675781 C 27.75 26.71875 27.070312 25.996094 26.171875 25.621094 C 24.898438 25.097656 24.09375 25.441406 23.09375 25.023438 C 21.9375 24.480469 22.054688 23.6875 23.089844 23.257812 C 23.4375 23.117188 23.933594 23 24.3125 23.007812 C 25.230469 23.027344 26.070312 23.1875 26.855469 23.558594 C 27.183594 23.714844 27.578125 23.574219 27.730469 23.246094 C 27.886719 22.917969 27.746094 22.527344 27.417969 22.371094 C 26.695312 22.03125 25.929688 21.828125 25.097656 21.742188 C 25.050781 21.738281 25.019531 21.703125 25.019531 21.65625 L 25.019531 21.257812 C 25.019531 20.894531 24.722656 20.601562 24.359375 20.601562 C 23.992188 20.601562 23.699219 20.894531 23.699219 21.257812 C 23.699219 22.082031 23.820312 21.523438 22.589844 22.046875 C 22.09375 22.253906 21.707031 22.519531 21.433594 22.851562 C 20.800781 23.613281 20.785156 24.628906 21.421875 25.398438 Z M 10.128906 42.25 L 10.128906 33.195312 C 10.128906 32.933594 9.910156 32.714844 9.644531 32.714844 L 6.972656 32.714844 C 6.707031 32.714844 6.492188 32.933594 6.492188 33.195312 L 6.492188 42.25 C 6.492188 42.511719 6.707031 42.730469 6.972656 42.730469 L 9.644531 42.730469 C 9.910156 42.730469 10.128906 42.511719 10.128906 42.25 Z M 11.449219 33.929688 C 11.449219 33.890625 11.476562 33.851562 11.519531 33.84375 C 13.980469 33.371094 16.148438 32.734375 18.867188 33.457031 C 18.921875 33.472656 18.980469 33.480469 19.035156 33.480469 L 26.078125 33.480469 C 26.488281 33.480469 26.859375 33.648438 27.132812 33.917969 C 28.074219 34.855469 27.398438 36.449219 26.078125 36.449219 L 19.035156 36.449219 C 18.671875 36.449219 18.375 36.742188 18.375 37.105469 C 18.375 37.46875 18.671875 37.765625 19.035156 37.765625 L 26.078125 37.765625 C 27 37.765625 27.851562 37.308594 28.371094 36.578125 C 28.390625 36.550781 28.417969 36.539062 28.449219 36.542969 L 29.121094 36.601562 C 30.269531 36.605469 30.8125 36.1875 31.613281 35.71875 L 31.617188 35.722656 L 40.105469 30.835938 C 40.773438 30.453125 41.652344 30.6875 42.035156 31.351562 C 42.042969 31.363281 42.050781 31.375 42.058594 31.386719 L 42.054688 31.390625 C 42.503906 32.058594 42.011719 32.878906 41.441406 33.328125 L 35.6875 37.867188 C 34.394531 38.890625 33.445312 39.484375 31.960938 40.222656 C 29.910156 41.242188 27.429688 42.261719 25.203125 42.589844 C 23.128906 42.894531 20.609375 42.472656 18.242188 42.078125 C 17.214844 41.90625 16.214844 41.742188 15.277344 41.636719 C 14.09375 41.503906 12.746094 41.378906 11.53125 41.289062 C 11.484375 41.289062 11.449219 41.25 11.449219 41.203125 Z M 11.449219 33.929688 " fill-opacity="1" fill-rule="evenodd"/></g></svg>