<svg xmlns="http://www.w3.org/2000/svg" xmlns:xlink="http://www.w3.org/1999/xlink" width="64" zoomAndPan="magnify" viewBox="0 0 48 48" height="64" preserveAspectRatio="xMidYMid meet" version="1.0"><defs><clipPath id="2528bca90b"><path d="M 2.839844 5.390625 L 39 5.390625 L 39 41.390625 L 2.839844 41.390625 Z M 2.839844 5.390625 " clip-rule="nonzero"/></clipPath><clipPath id="cfd4ef081e"><path d="M 37 19 L 45.453125 19 L 45.453125 32 L 37 32 Z M 37 19 " clip-rule="nonzero"/></clipPath></defs><g clip-path="url(#2528bca90b)"><path fill="#000000" d="M 29.71875 5.410156 C 25.367188 5.410156 21.753906 8.535156 21.0625 12.636719 L 19.988281 12.835938 C 18.722656 10.726562 16.394531 9.3125 13.726562 9.3125 C 9.710938 9.3125 6.460938 12.523438 6.460938 16.484375 C 6.460938 19.855469 8.8125 22.679688 11.984375 23.449219 L 11.984375 24.25 L 10.511719 24.25 L 10.507812 24.183594 L 8.761719 23.546875 L 7.542969 23.546875 L 9.46875 27.507812 L 10.183594 27.316406 L 10.578125 26.679688 L 11.984375 26.679688 L 11.984375 35.636719 L 14.316406 35.636719 L 14.042969 37.628906 L 8.5 38.671875 L 7.304688 38.058594 L 2.839844 38.902344 L 3.152344 41.371094 L 7.632812 40.527344 L 8.671875 39.5 L 14.699219 38.214844 L 15.128906 35.636719 L 37.25 35.636719 L 37.25 20.746094 L 35.308594 20.746094 C 37.257812 19.15625 38.5 16.757812 38.5 14.066406 C 38.5 9.285156 34.566406 5.410156 29.71875 5.410156 Z M 22.09375 18.355469 C 22.621094 19.269531 23.308594 20.078125 24.125 20.746094 L 19.578125 20.746094 C 20.054688 20.109375 20.421875 19.394531 20.667969 18.621094 Z M 34.714844 32.628906 C 35.152344 32.628906 35.507812 32.976562 35.507812 33.410156 C 35.507812 33.839844 35.152344 34.191406 34.714844 34.191406 C 34.277344 34.191406 33.921875 33.839844 33.921875 33.410156 C 33.921875 32.976562 34.277344 32.628906 34.714844 32.628906 Z M 34.714844 32.628906 " fill-opacity="1" fill-rule="nonzero"/></g><path fill="#ffffff" d="M 29.589844 9.492188 C 27.140625 9.492188 25.15625 11.449219 25.15625 13.867188 C 25.15625 16.285156 27.140625 18.246094 29.589844 18.246094 C 32.042969 18.246094 34.027344 16.285156 34.027344 13.867188 C 34.027344 11.449219 32.042969 9.492188 29.589844 9.492188 Z M 29.167969 10.78125 C 29.566406 10.78125 29.886719 11.097656 29.886719 11.488281 C 29.886719 11.882812 29.566406 12.199219 29.167969 12.199219 C 28.769531 12.199219 28.449219 11.882812 28.449219 11.488281 C 28.449219 11.097656 28.769531 10.78125 29.167969 10.78125 Z M 31.390625 12.113281 C 31.785156 12.113281 32.109375 12.429688 32.109375 12.824219 C 32.109375 13.214844 31.785156 13.535156 31.390625 13.535156 C 30.992188 13.535156 30.667969 13.214844 30.667969 12.824219 C 30.667969 12.429688 30.992188 12.113281 31.390625 12.113281 Z M 27.46875 12.671875 C 27.867188 12.671875 28.1875 12.988281 28.1875 13.382812 C 28.1875 13.773438 27.867188 14.09375 27.46875 14.09375 C 27.070312 14.09375 26.75 13.773438 26.75 13.382812 C 26.75 12.988281 27.070312 12.671875 27.46875 12.671875 Z M 31.128906 14.609375 C 31.523438 14.609375 31.847656 14.925781 31.847656 15.316406 C 31.847656 15.707031 31.523438 16.027344 31.128906 16.027344 C 30.730469 16.027344 30.40625 15.707031 30.40625 15.316406 C 30.40625 14.925781 30.730469 14.609375 31.128906 14.609375 Z M 28.46875 15.039062 C 28.867188 15.039062 29.191406 15.351562 29.191406 15.746094 C 29.191406 16.136719 28.867188 16.457031 28.46875 16.457031 C 28.074219 16.457031 27.75 16.136719 27.75 15.746094 C 27.75 15.351562 28.074219 15.039062 28.46875 15.039062 Z M 28.46875 15.039062 " fill-opacity="1" fill-rule="nonzero"/><path fill="#ffffff" d="M 13.746094 12.617188 C 11.761719 12.617188 10.15625 14.203125 10.15625 16.160156 C 10.15625 18.117188 11.761719 19.703125 13.746094 19.703125 C 15.730469 19.703125 17.335938 18.117188 17.335938 16.160156 C 17.335938 14.203125 15.730469 12.617188 13.746094 12.617188 Z M 13.402344 13.664062 C 13.726562 13.664062 13.988281 13.917969 13.988281 14.234375 C 13.988281 14.550781 13.726562 14.8125 13.402344 14.8125 C 13.082031 14.8125 12.820312 14.550781 12.820312 14.234375 C 12.820312 13.917969 13.082031 13.664062 13.402344 13.664062 Z M 15.203125 14.738281 C 15.523438 14.738281 15.785156 14.996094 15.785156 15.316406 C 15.785156 15.632812 15.523438 15.890625 15.203125 15.890625 C 14.878906 15.890625 14.621094 15.632812 14.621094 15.316406 C 14.621094 14.996094 14.878906 14.738281 15.203125 14.738281 Z M 12.027344 15.191406 C 12.351562 15.191406 12.609375 15.449219 12.609375 15.765625 C 12.609375 16.085938 12.351562 16.34375 12.027344 16.34375 C 11.707031 16.34375 11.445312 16.085938 11.445312 15.765625 C 11.445312 15.449219 11.707031 15.191406 12.027344 15.191406 Z M 14.988281 16.761719 C 15.3125 16.761719 15.574219 17.015625 15.574219 17.332031 C 15.574219 17.648438 15.3125 17.910156 14.988281 17.910156 C 14.667969 17.910156 14.40625 17.648438 14.40625 17.332031 C 14.40625 17.015625 14.667969 16.761719 14.988281 16.761719 Z M 12.839844 17.109375 C 13.160156 17.109375 13.421875 17.363281 13.421875 17.679688 C 13.421875 17.996094 13.160156 18.257812 12.839844 18.257812 C 12.519531 18.257812 12.257812 17.996094 12.257812 17.679688 C 12.257812 17.363281 12.519531 17.109375 12.839844 17.109375 Z M 12.839844 17.109375 " fill-opacity="1" fill-rule="nonzero"/><g clip-path="url(#cfd4ef081e)"><path fill="#000000" d="M 45.457031 19.828125 L 41 22.492188 L 37.511719 22.492188 L 37.511719 29.128906 L 41 29.128906 L 45.457031 31.792969 Z M 45.457031 19.828125 " fill-opacity="1" fill-rule="nonzero"/></g></svg>