<svg xmlns="http://www.w3.org/2000/svg" xmlns:xlink="http://www.w3.org/1999/xlink" width="64" zoomAndPan="magnify" viewBox="0 0 48 48" height="64" preserveAspectRatio="xMidYMid meet" version="1.0"><defs><clipPath id="49983fa0c1"><path d="M 3.175781 2.6875 L 45.054688 2.6875 L 45.054688 44.5625 L 3.175781 44.5625 Z M 3.175781 2.6875 " clip-rule="nonzero"/></clipPath></defs><g clip-path="url(#49983fa0c1)"><path fill="#000000" d="M 24.097656 44.539062 C 12.554688 44.539062 3.164062 35.148438 3.164062 23.605469 C 3.164062 12.066406 12.554688 2.675781 24.097656 2.675781 C 35.640625 2.675781 45.03125 12.066406 45.03125 23.605469 C 45.03125 35.148438 35.640625 44.539062 24.097656 44.539062 Z M 24.097656 4.738281 C 13.691406 4.738281 5.230469 13.203125 5.230469 23.605469 C 5.230469 34.011719 13.691406 42.476562 24.097656 42.476562 C 34.5 42.476562 42.964844 34.011719 42.964844 23.605469 C 42.964844 13.203125 34.5 4.738281 24.097656 4.738281 Z M 24.097656 4.738281 " fill-opacity="1" fill-rule="nonzero"/></g><path fill="#000000" d="M 30.5 19.058594 C 30.5 18.785156 30.234375 18.46875 30.054688 18.363281 C 29.894531 18.261719 29.5625 18.191406 29.296875 18.261719 L 19.207031 20.898438 C 18.820312 21 18.550781 21.347656 18.550781 21.75 L 18.550781 22.527344 L 18.546875 22.527344 L 18.546875 29.902344 C 18.714844 30.378906 18.738281 30.941406 18.578125 31.546875 C 18.113281 33.277344 16.339844 34.675781 14.613281 34.675781 C 12.882812 34.675781 11.859375 33.277344 12.324219 31.546875 C 12.785156 29.820312 14.5625 28.421875 16.289062 28.421875 C 16.308594 28.421875 16.332031 28.425781 16.355469 28.425781 L 16.226562 17.902344 C 16.226562 17.238281 16.671875 16.660156 17.3125 16.492188 L 30.929688 12.875 C 31.367188 12.761719 31.835938 12.855469 32.195312 13.128906 C 32.554688 13.40625 32.765625 13.835938 32.765625 14.289062 L 32.632812 26.910156 C 32.746094 27.34375 32.746094 27.839844 32.605469 28.367188 C 32.140625 30.09375 30.367188 31.492188 28.640625 31.492188 C 26.914062 31.492188 25.886719 30.09375 26.351562 28.367188 C 26.8125 26.640625 28.589844 25.238281 30.316406 25.238281 C 30.359375 25.238281 30.398438 25.246094 30.441406 25.246094 Z M 30.5 19.058594 " fill-opacity="1" fill-rule="nonzero"/></svg>