<svg xmlns="http://www.w3.org/2000/svg" xmlns:xlink="http://www.w3.org/1999/xlink" width="64" zoomAndPan="magnify" viewBox="0 0 48 48" height="64" preserveAspectRatio="xMidYMid meet" version="1.0"><defs><clipPath id="41c3ce8285"><path d="M 4.503906 4.015625 L 43.441406 4.015625 L 43.441406 42.953125 L 4.503906 42.953125 Z M 4.503906 4.015625 " clip-rule="nonzero"/></clipPath></defs><g clip-path="url(#41c3ce8285)"><path fill="#000000" d="M 23.972656 4.023438 C 13.226562 4.023438 4.511719 12.734375 4.511719 23.484375 C 4.511719 34.230469 13.226562 42.945312 23.972656 42.945312 C 34.722656 42.945312 43.433594 34.230469 43.433594 23.484375 C 43.433594 12.734375 34.722656 4.023438 23.972656 4.023438 Z M 23.972656 40.699219 C 14.464844 40.699219 6.757812 32.992188 6.757812 23.484375 C 6.757812 13.976562 14.464844 6.269531 23.972656 6.269531 C 33.480469 6.269531 41.1875 13.976562 41.1875 23.484375 C 41.1875 32.992188 33.480469 40.699219 23.972656 40.699219 Z M 23.972656 40.699219 " fill-opacity="1" fill-rule="nonzero"/></g><path fill="#000000" d="M 27.066406 23.484375 C 27.066406 23.894531 26.988281 24.289062 26.832031 24.667969 C 26.671875 25.046875 26.449219 25.378906 26.160156 25.671875 C 25.871094 25.960938 25.535156 26.183594 25.15625 26.339844 C 24.777344 26.496094 24.382812 26.578125 23.972656 26.578125 C 23.5625 26.578125 23.167969 26.496094 22.789062 26.339844 C 22.410156 26.183594 22.074219 25.960938 21.785156 25.671875 C 21.496094 25.378906 21.273438 25.046875 21.113281 24.667969 C 20.957031 24.289062 20.878906 23.894531 20.878906 23.484375 C 20.878906 23.074219 20.957031 22.679688 21.113281 22.300781 C 21.273438 21.921875 21.496094 21.585938 21.785156 21.296875 C 22.074219 21.003906 22.410156 20.78125 22.789062 20.625 C 23.167969 20.46875 23.5625 20.390625 23.972656 20.390625 C 24.382812 20.390625 24.777344 20.46875 25.15625 20.625 C 25.535156 20.78125 25.871094 21.003906 26.160156 21.296875 C 26.449219 21.585938 26.671875 21.921875 26.832031 22.300781 C 26.988281 22.679688 27.066406 23.074219 27.066406 23.484375 Z M 27.066406 23.484375 " fill-opacity="1" fill-rule="nonzero"/><path fill="#000000" d="M 16.554688 23.484375 C 16.554688 23.894531 16.472656 24.289062 16.316406 24.667969 C 16.160156 25.046875 15.9375 25.378906 15.648438 25.671875 C 15.355469 25.960938 15.023438 26.183594 14.644531 26.339844 C 14.265625 26.496094 13.871094 26.578125 13.460938 26.578125 C 13.050781 26.578125 12.65625 26.496094 12.277344 26.339844 C 11.898438 26.183594 11.5625 25.960938 11.273438 25.671875 C 10.980469 25.378906 10.757812 25.046875 10.601562 24.667969 C 10.445312 24.289062 10.367188 23.894531 10.367188 23.484375 C 10.367188 23.074219 10.445312 22.679688 10.601562 22.300781 C 10.757812 21.921875 10.980469 21.585938 11.273438 21.296875 C 11.5625 21.003906 11.898438 20.78125 12.277344 20.625 C 12.65625 20.46875 13.050781 20.390625 13.460938 20.390625 C 13.871094 20.390625 14.265625 20.46875 14.644531 20.625 C 15.023438 20.78125 15.355469 21.003906 15.648438 21.296875 C 15.9375 21.585938 16.160156 21.921875 16.316406 22.300781 C 16.472656 22.679688 16.554688 23.074219 16.554688 23.484375 Z M 16.554688 23.484375 " fill-opacity="1" fill-rule="nonzero"/><path fill="#000000" d="M 37.578125 23.484375 C 37.578125 23.894531 37.5 24.289062 37.34375 24.667969 C 37.1875 25.046875 36.964844 25.378906 36.671875 25.671875 C 36.382812 25.960938 36.050781 26.183594 35.671875 26.339844 C 35.292969 26.496094 34.898438 26.578125 34.488281 26.578125 C 34.078125 26.578125 33.683594 26.496094 33.300781 26.339844 C 32.921875 26.183594 32.589844 25.960938 32.300781 25.671875 C 32.007812 25.378906 31.785156 25.046875 31.628906 24.667969 C 31.472656 24.289062 31.394531 23.894531 31.394531 23.484375 C 31.394531 23.074219 31.472656 22.679688 31.628906 22.300781 C 31.785156 21.921875 32.007812 21.585938 32.300781 21.296875 C 32.589844 21.003906 32.921875 20.78125 33.300781 20.625 C 33.683594 20.46875 34.078125 20.390625 34.488281 20.390625 C 34.898438 20.390625 35.292969 20.46875 35.671875 20.625 C 36.050781 20.78125 36.382812 21.003906 36.671875 21.296875 C 36.964844 21.585938 37.1875 21.921875 37.34375 22.300781 C 37.5 22.679688 37.578125 23.074219 37.578125 23.484375 Z M 37.578125 23.484375 " fill-opacity="1" fill-rule="nonzero"/></svg>