<svg xmlns="http://www.w3.org/2000/svg" xmlns:xlink="http://www.w3.org/1999/xlink" width="64" zoomAndPan="magnify" viewBox="0 0 48 48" height="64" preserveAspectRatio="xMidYMid meet" version="1.0"><defs><clipPath id="b13feffba0"><path d="M 3.339844 2.851562 L 44.484375 2.851562 L 44.484375 43.992188 L 3.339844 43.992188 Z M 3.339844 2.851562 " clip-rule="nonzero"/></clipPath></defs><g clip-path="url(#b13feffba0)"><path fill="#000000" d="M 23.996094 2.851562 C 18.480469 2.851562 13.292969 5 9.390625 8.902344 C 5.488281 12.800781 3.339844 17.988281 3.339844 23.507812 C 3.339844 29.027344 5.488281 34.214844 9.390625 38.113281 C 13.292969 42.015625 18.480469 44.164062 23.996094 44.164062 C 29.515625 44.164062 34.703125 42.015625 38.605469 38.113281 C 42.507812 34.214844 44.65625 29.027344 44.65625 23.507812 C 44.65625 17.988281 42.507812 12.800781 38.605469 8.902344 C 34.703125 5 29.515625 2.851562 23.996094 2.851562 Z M 42.996094 23.507812 C 42.996094 33.984375 34.472656 42.503906 23.996094 42.503906 C 13.523438 42.503906 5 33.984375 5 23.507812 C 5 13.03125 13.523438 4.511719 23.996094 4.511719 C 34.472656 4.511719 42.996094 13.03125 42.996094 23.507812 Z M 42.996094 23.507812 " fill-opacity="1" fill-rule="nonzero"/></g><path fill="#000000" d="M 21.515625 26.945312 L 21.515625 36.875 L 15.148438 36.875 L 15.148438 10.140625 L 25.683594 10.140625 C 28.035156 10.140625 29.832031 10.394531 31.082031 10.894531 C 32.328125 11.398438 33.441406 12.296875 34.417969 13.589844 C 35.398438 14.882812 35.886719 16.46875 35.886719 18.347656 C 35.886719 19.667969 35.625 20.953125 35.105469 22.207031 C 34.582031 23.457031 33.84375 24.445312 32.890625 25.164062 C 31.9375 25.878906 31.015625 26.355469 30.121094 26.59375 C 29.226562 26.828125 27.824219 26.945312 25.921875 26.945312 Z M 21.296875 22.089844 L 25.371094 22.089844 C 26.925781 22.089844 28.015625 21.730469 28.640625 21.011719 C 29.269531 20.292969 29.582031 19.46875 29.582031 18.542969 C 29.582031 17.460938 29.234375 16.597656 28.535156 15.957031 C 27.835938 15.320312 26.773438 15 25.351562 15 L 21.296875 15 Z M 21.296875 22.089844 " fill-opacity="1" fill-rule="nonzero"/></svg>