<svg xmlns="http://www.w3.org/2000/svg" xmlns:xlink="http://www.w3.org/1999/xlink" width="64" zoomAndPan="magnify" viewBox="0 0 48 48" height="64" preserveAspectRatio="xMidYMid meet" version="1.0"><path fill="#000000" d="M 12.082031 17.535156 C 13.265625 20.890625 12.226562 24.3125 9.757812 25.171875 C 7.292969 26.03125 4.332031 24.007812 3.152344 20.652344 C 1.96875 17.296875 3.007812 13.875 5.472656 13.015625 C 7.941406 12.152344 10.898438 14.179688 12.082031 17.535156 Z M 31.9375 41.398438 C 30.851562 41.402344 29.804688 41.195312 28.800781 40.78125 C 27.796875 40.367188 26.910156 39.777344 26.144531 39.011719 C 25.859375 38.730469 25.53125 38.511719 25.160156 38.355469 C 24.789062 38.203125 24.402344 38.128906 24 38.128906 C 23.597656 38.128906 23.210938 38.203125 22.839844 38.355469 C 22.46875 38.511719 22.140625 38.730469 21.855469 39.011719 C 21.472656 39.390625 21.058594 39.726562 20.613281 40.027344 C 20.164062 40.324219 19.691406 40.574219 19.195312 40.777344 C 18.699219 40.984375 18.1875 41.136719 17.660156 41.242188 C 17.128906 41.347656 16.597656 41.398438 16.058594 41.398438 C 15.519531 41.398438 14.988281 41.347656 14.460938 41.242188 C 13.933594 41.136719 13.421875 40.984375 12.921875 40.777344 C 12.425781 40.574219 11.953125 40.324219 11.507812 40.023438 C 11.058594 39.726562 10.644531 39.390625 10.265625 39.011719 C 9.882812 38.632812 9.542969 38.222656 9.246094 37.777344 C 8.945312 37.332031 8.695312 36.859375 8.488281 36.367188 C 8.28125 35.871094 8.125 35.363281 8.023438 34.835938 C 7.917969 34.3125 7.863281 33.78125 7.863281 33.246094 C 7.863281 32.710938 7.917969 32.179688 8.023438 31.65625 C 8.128906 31.132812 8.28125 30.621094 8.488281 30.125 C 8.695312 29.632812 8.945312 29.164062 9.246094 28.71875 C 9.542969 28.273438 9.882812 27.859375 10.265625 27.480469 C 10.714844 27.035156 11.183594 26.609375 11.675781 26.207031 C 12.167969 25.804688 12.679688 25.429688 13.207031 25.078125 C 13.738281 24.726562 14.28125 24.402344 14.84375 24.101562 C 15.402344 23.804688 15.976562 23.535156 16.566406 23.292969 C 17.152344 23.050781 17.75 22.835938 18.359375 22.652344 C 18.96875 22.46875 19.585938 22.316406 20.210938 22.191406 C 20.832031 22.066406 21.460938 21.976562 22.09375 21.914062 C 22.726562 21.851562 23.363281 21.820312 24 21.820312 C 24.636719 21.820312 25.269531 21.851562 25.902344 21.914062 C 26.535156 21.976562 27.164062 22.066406 27.789062 22.191406 C 28.414062 22.316406 29.027344 22.46875 29.636719 22.652344 C 30.246094 22.835938 30.84375 23.050781 31.433594 23.292969 C 32.019531 23.535156 32.59375 23.804688 33.15625 24.101562 C 33.714844 24.402344 34.261719 24.726562 34.789062 25.078125 C 35.320312 25.429688 35.828125 25.804688 36.320312 26.207031 C 36.8125 26.609375 37.28125 27.035156 37.734375 27.480469 C 38.304688 28.050781 38.785156 28.691406 39.164062 29.402344 C 39.546875 30.113281 39.816406 30.867188 39.976562 31.65625 C 40.132812 32.445312 40.171875 33.242188 40.09375 34.046875 C 40.015625 34.847656 39.820312 35.621094 39.507812 36.367188 C 39.199219 37.109375 38.789062 37.796875 38.273438 38.417969 C 37.757812 39.042969 37.164062 39.578125 36.492188 40.023438 C 35.816406 40.472656 35.09375 40.8125 34.316406 41.046875 C 33.542969 41.28125 32.75 41.398438 31.9375 41.398438 Z M 23.175781 11.957031 C 23.5625 16.003906 21.464844 19.515625 18.488281 19.792969 C 15.515625 20.074219 12.789062 17.019531 12.402344 12.96875 C 12.019531 8.921875 14.117188 5.410156 17.09375 5.132812 C 20.066406 4.851562 22.792969 7.90625 23.175781 11.957031 Z M 24.820312 11.957031 C 24.433594 16.003906 26.535156 19.515625 29.511719 19.792969 C 32.484375 20.074219 35.207031 17.019531 35.59375 12.96875 C 35.980469 8.921875 33.878906 5.410156 30.902344 5.132812 C 27.929688 4.851562 25.207031 7.90625 24.820312 11.957031 Z M 35.914062 17.535156 C 34.730469 20.890625 35.769531 24.3125 38.238281 25.171875 C 40.703125 26.03125 43.664062 24.007812 44.847656 20.652344 C 46.03125 17.296875 44.992188 13.875 42.523438 13.015625 C 40.058594 12.152344 37.097656 14.179688 35.914062 17.535156 Z M 35.914062 17.535156 " fill-opacity="1" fill-rule="nonzero"/></svg>