<svg xmlns="http://www.w3.org/2000/svg" xmlns:xlink="http://www.w3.org/1999/xlink" width="64" zoomAndPan="magnify" viewBox="0 0 48 48" height="64" preserveAspectRatio="xMidYMid meet" version="1.0"><defs><clipPath id="f78d077059"><path d="M 4.097656 3.097656 L 43.769531 3.097656 L 43.769531 44.238281 L 4.097656 44.238281 Z M 4.097656 3.097656 " clip-rule="nonzero"/></clipPath></defs><g clip-path="url(#f78d077059)"><path fill="#000000" d="M 37.609375 24.539062 L 37.609375 22.746094 C 37.609375 21.847656 36.878906 21.109375 35.992188 21.109375 C 35.261719 21.109375 34.636719 21.636719 34.425781 22.320312 L 32.808594 21.214844 C 32.808594 21.160156 32.808594 21.109375 32.808594 21.054688 L 32.808594 18.734375 C 32.808594 17.835938 32.078125 17.097656 31.191406 17.097656 C 30.300781 17.097656 29.570312 17.835938 29.570312 18.734375 L 29.570312 18.996094 L 26.597656 16.9375 L 26.597656 8.125 C 26.597656 4.429688 23.933594 3.164062 23.933594 3.164062 C 23.933594 3.164062 21.269531 4.429688 21.269531 8.125 L 21.269531 16.886719 L 18.296875 18.945312 L 18.296875 18.679688 C 18.296875 17.78125 17.566406 17.042969 16.675781 17.042969 C 15.789062 17.042969 15.058594 17.835938 15.058594 18.734375 L 15.058594 21.054688 C 15.058594 21.109375 15.058594 21.160156 15.058594 21.214844 L 13.390625 22.375 C 13.179688 21.6875 12.554688 21.160156 11.824219 21.160156 C 10.933594 21.160156 10.203125 21.898438 10.203125 22.796875 L 10.203125 24.589844 L 4.097656 28.8125 L 4.097656 31.875 L 8.847656 29.710938 L 8.847656 30.449219 L 17.878906 26.703125 L 21.429688 26.703125 L 22.417969 37.734375 L 15.6875 42.535156 L 15.371094 44.171875 L 22.734375 42.273438 L 23.253906 44.171875 L 24.613281 44.171875 L 25.132812 42.273438 L 32.496094 44.171875 L 32.179688 42.535156 L 25.449219 37.734375 L 26.4375 26.703125 L 29.988281 26.703125 L 39.019531 30.449219 L 39.019531 29.710938 L 43.769531 31.875 L 43.769531 28.8125 Z M 37.609375 24.539062 " fill-opacity="1" fill-rule="nonzero"/></g></svg>