<svg xmlns="http://www.w3.org/2000/svg" xmlns:xlink="http://www.w3.org/1999/xlink" width="64" zoomAndPan="magnify" viewBox="0 0 48 48" height="64" preserveAspectRatio="xMidYMid meet" version="1.0"><defs><clipPath id="b2028955d2"><path d="M 2.289062 3.320312 L 45.636719 3.320312 L 45.636719 43.726562 L 2.289062 43.726562 Z M 2.289062 3.320312 " clip-rule="nonzero"/></clipPath></defs><g clip-path="url(#b2028955d2)"><path fill="#000000" d="M 37.019531 10.0625 L 35.757812 10.0625 C 35.875 8.753906 36.207031 7.90625 36.78125 7.40625 C 37.503906 6.78125 38.390625 6.871094 39.171875 6.953125 C 39.917969 7.03125 40.398438 7.058594 40.742188 6.761719 C 41.195312 6.378906 41.464844 5.421875 41.546875 3.929688 C 41.566406 3.582031 41.859375 3.316406 42.207031 3.335938 C 42.550781 3.355469 42.816406 3.648438 42.796875 3.996094 C 42.695312 5.902344 42.300781 7.082031 41.558594 7.71875 C 40.777344 8.386719 39.816406 8.285156 39.042969 8.203125 C 38.339844 8.128906 37.890625 8.105469 37.601562 8.355469 C 37.386719 8.542969 37.128906 8.992188 37.019531 10.0625 Z M 20.703125 22.472656 C 22.597656 22.472656 24.394531 23.054688 25.914062 24.15625 C 26.296875 26.78125 27.644531 29.097656 29.585938 30.722656 C 29.605469 30.953125 29.613281 31.175781 29.613281 31.402344 C 29.613281 36.328125 25.617188 40.332031 20.703125 40.332031 C 15.792969 40.332031 11.796875 36.328125 11.796875 31.402344 C 11.796875 26.480469 15.792969 22.472656 20.703125 22.472656 Z M 20.65625 25.929688 L 20.648438 25.929688 C 20.304688 25.933594 20.023438 26.214844 20.027344 26.5625 L 20.078125 32.710938 C 20.078125 32.9375 20.199219 33.140625 20.394531 33.253906 L 23.351562 34.941406 C 23.449219 35 23.554688 35.023438 23.660156 35.023438 C 23.878906 35.023438 24.089844 34.910156 24.203125 34.707031 C 24.375 34.40625 24.273438 34.023438 23.972656 33.851562 L 21.328125 32.339844 L 21.28125 26.554688 C 21.277344 26.207031 21 25.929688 20.65625 25.929688 Z M 45.632812 22.617188 C 45.632812 27.65625 41.625 31.773438 36.632812 31.925781 C 36.613281 31.925781 36.59375 31.925781 36.570312 31.925781 C 36.496094 31.929688 36.421875 31.929688 36.34375 31.929688 C 31.222656 31.929688 27.054688 27.753906 27.054688 22.617188 C 27.054688 18.707031 29.515625 15.1875 33.179688 13.859375 C 33.429688 13.769531 33.59375 13.53125 33.59375 13.265625 L 33.59375 11.320312 L 39.09375 11.320312 L 39.09375 13.265625 C 39.09375 13.53125 39.261719 13.769531 39.507812 13.859375 C 43.171875 15.1875 45.632812 18.707031 45.632812 22.617188 Z M 43.171875 22.632812 C 43.171875 18.859375 40.109375 15.792969 36.34375 15.792969 C 32.582031 15.792969 29.515625 18.859375 29.515625 22.632812 C 29.515625 26.410156 32.582031 29.480469 36.34375 29.480469 C 40.109375 29.480469 43.171875 26.410156 43.171875 22.632812 Z M 20.703125 41.589844 C 15.101562 41.589844 10.542969 37.019531 10.542969 31.402344 C 10.542969 25.785156 15.101562 21.214844 20.703125 21.214844 C 22.523438 21.214844 24.261719 21.6875 25.800781 22.585938 C 25.804688 21.167969 26.09375 19.796875 26.621094 18.535156 L 20.703125 14.625 L 5.414062 24.738281 L 5.414062 43.71875 L 35.996094 43.71875 L 35.996094 33.179688 C 34.121094 33.121094 32.367188 32.566406 30.863281 31.644531 C 30.738281 37.152344 26.226562 41.589844 20.703125 41.589844 Z M 21.050781 13.347656 L 27.179688 17.398438 C 27.628906 16.605469 28.179688 15.871094 28.820312 15.214844 L 20.703125 9.851562 L 2.289062 22.035156 L 2.289062 25.296875 L 4.433594 23.882812 C 4.4375 23.878906 4.441406 23.875 4.445312 23.871094 L 20.359375 13.347656 C 20.570312 13.210938 20.839844 13.210938 21.050781 13.347656 Z M 41.917969 22.632812 C 41.917969 25.714844 39.417969 28.222656 36.34375 28.222656 C 33.273438 28.222656 30.769531 25.714844 30.769531 22.632812 C 30.769531 19.554688 33.273438 17.046875 36.34375 17.046875 C 39.417969 17.046875 41.917969 19.554688 41.917969 22.632812 Z M 34.902344 21.386719 C 34.902344 21.285156 34.933594 20.769531 35.503906 20.769531 L 38.414062 20.769531 C 38.761719 20.769531 39.042969 20.488281 39.042969 20.140625 C 39.042969 19.792969 38.761719 19.511719 38.414062 19.511719 L 36.972656 19.511719 L 36.972656 18.738281 C 36.972656 18.390625 36.691406 18.109375 36.34375 18.109375 C 36 18.109375 35.71875 18.390625 35.71875 18.738281 L 35.71875 19.511719 L 35.503906 19.511719 C 34.285156 19.511719 33.648438 20.457031 33.648438 21.386719 C 33.648438 22.320312 34.285156 23.261719 35.503906 23.261719 L 37.1875 23.261719 C 37.757812 23.261719 37.789062 23.777344 37.789062 23.882812 C 37.789062 23.984375 37.757812 24.503906 37.1875 24.503906 L 34.277344 24.503906 C 33.929688 24.503906 33.648438 24.785156 33.648438 25.128906 C 33.648438 25.476562 33.929688 25.757812 34.277344 25.757812 L 35.71875 25.757812 L 35.71875 26.53125 C 35.71875 26.878906 36 27.160156 36.34375 27.160156 C 36.691406 27.160156 36.972656 26.878906 36.972656 26.53125 L 36.972656 25.757812 L 37.1875 25.757812 C 38.402344 25.757812 39.039062 24.816406 39.039062 23.882812 C 39.039062 22.949219 38.402344 22.003906 37.1875 22.003906 L 35.503906 22.003906 C 34.933594 22.003906 34.902344 21.492188 34.902344 21.386719 Z M 34.902344 21.386719 " fill-opacity="1" fill-rule="nonzero"/></g></svg>