<svg xmlns="http://www.w3.org/2000/svg" xmlns:xlink="http://www.w3.org/1999/xlink" width="64" zoomAndPan="magnify" viewBox="0 0 48 48" height="64" preserveAspectRatio="xMidYMid meet" version="1.0"><defs><clipPath id="81e3006ec2"><path d="M 3.40625 2.914062 L 44.546875 2.914062 L 44.546875 44.058594 L 3.40625 44.058594 Z M 3.40625 2.914062 " clip-rule="nonzero"/></clipPath></defs><g clip-path="url(#81e3006ec2)"><path fill="#000000" d="M 30.371094 2.914062 C 30.042969 2.914062 29.761719 3.148438 29.699219 3.476562 L 29.398438 5.085938 C 29.320312 5.503906 28.988281 5.816406 28.570312 5.90625 C 28.179688 5.984375 27.796875 6.085938 27.421875 6.207031 C 27.019531 6.339844 26.578125 6.234375 26.300781 5.914062 L 25.238281 4.667969 C 25.023438 4.417969 24.660156 4.359375 24.371094 4.523438 L 23.578125 4.984375 C 23.292969 5.148438 23.164062 5.492188 23.273438 5.804688 L 23.820312 7.351562 C 23.960938 7.75 23.828125 8.1875 23.511719 8.46875 C 23.21875 8.734375 22.9375 9.015625 22.675781 9.308594 C 22.390625 9.625 21.957031 9.757812 21.554688 9.617188 L 20.007812 9.070312 C 19.695312 8.960938 19.351562 9.089844 19.1875 9.375 L 18.726562 10.171875 C 18.5625 10.457031 18.625 10.820312 18.875 11.035156 L 19.007812 11.152344 C 20.628906 11.179688 22.019531 12.339844 22.320312 13.941406 L 22.402344 14.375 L 22.6875 14.039062 C 23.316406 13.308594 24.199219 12.910156 25.109375 12.859375 C 26.339844 11.003906 28.441406 9.773438 30.832031 9.773438 C 34.621094 9.773438 37.691406 12.84375 37.691406 16.628906 C 37.691406 19.023438 36.460938 21.125 34.601562 22.351562 C 34.554688 23.261719 34.15625 24.144531 33.421875 24.773438 L 33.085938 25.058594 L 33.523438 25.140625 C 35.125 25.441406 36.285156 26.832031 36.3125 28.453125 L 36.425781 28.585938 C 36.640625 28.835938 37.003906 28.898438 37.292969 28.734375 L 38.085938 28.273438 C 38.371094 28.109375 38.503906 27.765625 38.390625 27.453125 L 37.847656 25.90625 C 37.703125 25.503906 37.835938 25.070312 38.152344 24.785156 C 38.449219 24.519531 38.726562 24.242188 38.992188 23.949219 C 39.277344 23.628906 39.710938 23.5 40.113281 23.640625 L 41.65625 24.1875 C 41.96875 24.296875 42.316406 24.167969 42.480469 23.878906 L 42.9375 23.085938 C 43.101562 22.800781 43.042969 22.4375 42.792969 22.222656 L 41.550781 21.15625 C 41.226562 20.878906 41.125 20.4375 41.257812 20.035156 C 41.375 19.660156 41.476562 19.28125 41.558594 18.890625 C 41.644531 18.472656 41.957031 18.140625 42.375 18.0625 L 43.988281 17.757812 C 44.3125 17.699219 44.546875 17.421875 44.546875 17.089844 L 44.546875 16.167969 C 44.546875 15.839844 44.3125 15.558594 43.988281 15.496094 L 42.375 15.195312 C 41.957031 15.117188 41.644531 14.785156 41.558594 14.367188 C 41.476562 13.976562 41.375 13.59375 41.257812 13.21875 C 41.125 12.816406 41.226562 12.375 41.550781 12.097656 L 42.792969 11.035156 C 43.042969 10.820312 43.105469 10.457031 42.9375 10.167969 L 42.480469 9.375 C 42.316406 9.089844 41.96875 8.960938 41.65625 9.070312 L 40.113281 9.613281 C 39.710938 9.753906 39.277344 9.625 38.992188 9.308594 C 38.726562 9.015625 38.449219 8.734375 38.152344 8.46875 C 37.835938 8.1875 37.703125 7.75 37.847656 7.351562 L 38.390625 5.800781 C 38.503906 5.492188 38.375 5.148438 38.085938 4.984375 L 37.292969 4.523438 C 37.007812 4.359375 36.640625 4.421875 36.425781 4.667969 L 35.363281 5.914062 C 35.085938 6.234375 34.644531 6.339844 34.242188 6.207031 C 33.867188 6.085938 33.484375 5.984375 33.09375 5.90625 C 32.675781 5.816406 32.347656 5.503906 32.265625 5.085938 L 31.964844 3.472656 C 31.90625 3.148438 31.625 2.914062 31.292969 2.914062 Z M 18.03125 13.886719 C 17.699219 13.886719 17.417969 14.121094 17.359375 14.445312 L 17.101562 15.800781 C 16.996094 16.363281 16.546875 16.777344 15.984375 16.890625 C 15.519531 16.988281 15.058594 17.105469 14.613281 17.253906 C 14.070312 17.433594 13.472656 17.296875 13.101562 16.863281 L 12.210938 15.824219 C 11.992188 15.574219 11.628906 15.515625 11.34375 15.679688 L 10.550781 16.136719 C 10.265625 16.300781 10.136719 16.648438 10.246094 16.957031 L 10.707031 18.261719 C 10.894531 18.804688 10.714844 19.386719 10.289062 19.765625 C 9.9375 20.082031 9.601562 20.414062 9.289062 20.769531 C 8.90625 21.195312 8.324219 21.375 7.785156 21.1875 L 6.476562 20.726562 C 6.164062 20.617188 5.820312 20.746094 5.65625 21.03125 L 5.195312 21.824219 C 5.03125 22.113281 5.09375 22.476562 5.34375 22.691406 L 6.386719 23.582031 C 6.820312 23.953125 6.953125 24.550781 6.773438 25.09375 C 6.628906 25.539062 6.507812 26 6.414062 26.46875 C 6.300781 27.03125 5.882812 27.480469 5.320312 27.585938 L 3.964844 27.839844 C 3.640625 27.898438 3.40625 28.179688 3.40625 28.511719 L 3.40625 29.433594 C 3.40625 29.761719 3.636719 30.046875 3.960938 30.105469 L 5.316406 30.359375 C 5.882812 30.464844 6.296875 30.914062 6.410156 31.476562 C 6.503906 31.945312 6.625 32.402344 6.773438 32.851562 C 6.949219 33.394531 6.816406 33.988281 6.382812 34.363281 L 5.339844 35.253906 C 5.09375 35.46875 5.03125 35.832031 5.195312 36.117188 L 5.65625 36.910156 C 5.820312 37.199219 6.164062 37.328125 6.476562 37.21875 L 7.78125 36.757812 C 8.320312 36.566406 8.902344 36.746094 9.285156 37.175781 C 9.601562 37.527344 9.933594 37.863281 10.285156 38.175781 C 10.710938 38.558594 10.894531 39.136719 10.703125 39.679688 L 10.246094 40.984375 C 10.136719 41.296875 10.265625 41.640625 10.550781 41.804688 L 11.34375 42.265625 C 11.632812 42.433594 11.992188 42.371094 12.210938 42.117188 L 13.101562 41.078125 C 13.472656 40.644531 14.070312 40.511719 14.613281 40.6875 C 15.058594 40.835938 15.519531 40.957031 15.984375 41.050781 C 16.546875 41.164062 16.996094 41.578125 17.101562 42.144531 L 17.359375 43.5 C 17.417969 43.824219 17.699219 44.058594 18.03125 44.058594 L 18.953125 44.058594 C 19.28125 44.058594 19.5625 43.824219 19.621094 43.5 L 19.875 42.144531 C 19.980469 41.582031 20.429688 41.167969 20.992188 41.050781 C 21.460938 40.957031 21.917969 40.835938 22.367188 40.691406 C 22.910156 40.511719 23.503906 40.644531 23.878906 41.078125 L 24.769531 42.121094 C 24.984375 42.371094 25.347656 42.433594 25.632812 42.269531 L 26.425781 41.808594 C 26.714844 41.644531 26.84375 41.300781 26.734375 40.988281 L 26.273438 39.679688 C 26.085938 39.140625 26.265625 38.558594 26.691406 38.179688 C 27.046875 37.863281 27.378906 37.527344 27.695312 37.175781 C 28.074219 36.75 28.65625 36.570312 29.195312 36.757812 L 30.503906 37.21875 C 30.816406 37.328125 31.160156 37.195312 31.324219 36.910156 L 31.785156 36.117188 C 31.949219 35.832031 31.886719 35.46875 31.636719 35.253906 L 30.59375 34.363281 C 30.160156 33.988281 30.027344 33.394531 30.207031 32.851562 C 30.351562 32.402344 30.472656 31.945312 30.570312 31.476562 C 30.683594 30.914062 31.097656 30.464844 31.660156 30.359375 L 33.015625 30.105469 C 33.339844 30.046875 33.578125 29.761719 33.578125 29.433594 L 33.578125 28.511719 C 33.578125 28.179688 33.339844 27.902344 33.019531 27.84375 L 31.664062 27.585938 C 31.101562 27.480469 30.683594 27.03125 30.570312 26.46875 C 30.476562 26 30.355469 25.539062 30.210938 25.09375 C 30.03125 24.550781 30.164062 23.957031 30.597656 23.585938 L 31.640625 22.695312 C 31.890625 22.476562 31.953125 22.113281 31.789062 21.828125 L 31.328125 21.03125 C 31.160156 20.746094 30.816406 20.617188 30.507812 20.726562 L 29.199219 21.1875 C 28.660156 21.378906 28.078125 21.195312 27.695312 20.769531 C 27.382812 20.417969 27.046875 20.082031 26.695312 19.769531 C 26.269531 19.386719 26.089844 18.804688 26.277344 18.265625 L 26.734375 16.957031 C 26.84375 16.648438 26.714844 16.304688 26.429688 16.140625 L 25.636719 15.679688 C 25.351562 15.511719 24.988281 15.574219 24.773438 15.824219 L 23.878906 16.867188 C 23.507812 17.300781 22.914062 17.433594 22.371094 17.257812 C 21.921875 17.109375 21.460938 16.988281 20.996094 16.894531 C 20.433594 16.78125 19.984375 16.367188 19.878906 15.800781 L 19.625 14.445312 C 19.5625 14.121094 19.28125 13.886719 18.953125 13.886719 Z M 30.832031 15.257812 C 30.652344 15.257812 30.476562 15.292969 30.308594 15.363281 C 30.140625 15.433594 29.992188 15.53125 29.863281 15.660156 C 29.734375 15.789062 29.636719 15.9375 29.566406 16.105469 C 29.496094 16.273438 29.460938 16.449219 29.460938 16.628906 C 29.460938 16.8125 29.496094 16.984375 29.566406 17.152344 C 29.636719 17.324219 29.734375 17.46875 29.863281 17.597656 C 29.992188 17.726562 30.140625 17.828125 30.308594 17.898438 C 30.476562 17.964844 30.652344 18 30.832031 18 C 31.015625 18 31.191406 17.964844 31.359375 17.898438 C 31.527344 17.828125 31.675781 17.726562 31.804688 17.597656 C 31.933594 17.46875 32.03125 17.324219 32.101562 17.152344 C 32.171875 16.984375 32.203125 16.8125 32.203125 16.628906 C 32.203125 16.449219 32.171875 16.273438 32.101562 16.105469 C 32.03125 15.9375 31.933594 15.789062 31.804688 15.660156 C 31.675781 15.53125 31.527344 15.433594 31.359375 15.363281 C 31.191406 15.292969 31.015625 15.257812 30.832031 15.257812 Z M 18.492188 20.742188 C 23.035156 20.742188 26.71875 24.425781 26.71875 28.972656 C 26.71875 33.515625 23.035156 37.199219 18.492188 37.199219 C 13.945312 37.199219 10.261719 33.515625 10.261719 28.972656 C 10.261719 24.425781 13.945312 20.742188 18.492188 20.742188 Z M 18.492188 26.230469 C 16.976562 26.230469 15.746094 27.457031 15.746094 28.972656 C 15.746094 30.488281 16.976562 31.714844 18.492188 31.714844 C 20.007812 31.714844 21.234375 30.488281 21.234375 28.972656 C 21.234375 27.457031 20.007812 26.230469 18.492188 26.230469 Z M 18.492188 26.230469 " fill-opacity="1" fill-rule="nonzero"/></g></svg>