<svg xmlns="http://www.w3.org/2000/svg" xmlns:xlink="http://www.w3.org/1999/xlink" width="64" zoomAndPan="magnify" viewBox="0 0 48 48" height="64" preserveAspectRatio="xMidYMid meet" version="1.0"><defs><clipPath id="51b759e859"><path d="M 10 3.832031 L 38 3.832031 L 38 33 L 10 33 Z M 10 3.832031 " clip-rule="nonzero"/></clipPath><clipPath id="beee56aac1"><path d="M 38 20 L 41.210938 20 L 41.210938 26 L 38 26 Z M 38 20 " clip-rule="nonzero"/></clipPath><clipPath id="2e18ea7179"><path d="M 6.679688 25 L 41.210938 25 L 41.210938 43.503906 L 6.679688 43.503906 Z M 6.679688 25 " clip-rule="nonzero"/></clipPath><clipPath id="ad05f3fc60"><path d="M 6.679688 20 L 10 20 L 10 26 L 6.679688 26 Z M 6.679688 20 " clip-rule="nonzero"/></clipPath></defs><path fill="#000000" d="M 31.792969 4.296875 L 31.792969 9.382812 L 36.828125 9.382812 Z M 31.792969 4.296875 " fill-opacity="1" fill-rule="nonzero"/><path fill="#000000" d="M 23.195312 22.078125 L 24.109375 22.078125 L 23.652344 20.96875 Z M 23.195312 22.078125 " fill-opacity="1" fill-rule="nonzero"/><path fill="#000000" d="M 30.222656 8.589844 L 15.316406 8.589844 L 15.316406 14.9375 L 32.578125 14.9375 L 32.578125 10.972656 L 31.007812 10.972656 C 30.574219 10.972656 30.222656 10.617188 30.222656 10.179688 Z M 30.222656 8.589844 " fill-opacity="1" fill-rule="nonzero"/><g clip-path="url(#51b759e859)"><path fill="#000000" d="M 24.960938 31.824219 L 37.285156 25.886719 L 37.285156 10.972656 L 34.148438 10.972656 L 34.148438 15.730469 C 34.148438 16.167969 33.792969 16.527344 33.363281 16.527344 L 14.53125 16.527344 C 14.097656 16.527344 13.746094 16.167969 13.746094 15.730469 L 13.746094 7.796875 C 13.746094 7.359375 14.097656 7.003906 14.53125 7.003906 L 30.222656 7.003906 L 30.222656 3.832031 L 11.390625 3.832031 C 10.960938 3.832031 10.605469 4.1875 10.605469 4.625 L 10.605469 25.886719 L 22.933594 31.824219 C 23.578125 32.132812 24.316406 32.132812 24.960938 31.824219 Z M 27.539062 19.382812 C 27.273438 19.03125 27.34375 18.53125 27.691406 18.269531 C 28.042969 18.007812 28.53125 18.082031 28.789062 18.429688 L 29.925781 19.960938 L 31.070312 18.429688 C 31.332031 18.082031 31.816406 18.007812 32.171875 18.269531 C 32.515625 18.53125 32.585938 19.03125 32.320312 19.382812 L 30.90625 21.285156 L 32.320312 23.191406 C 32.585938 23.539062 32.515625 24.039062 32.171875 24.300781 C 31.816406 24.5625 31.316406 24.476562 31.070312 24.144531 C 31.0625 24.144531 29.925781 22.613281 29.925781 22.613281 L 28.789062 24.144531 C 28.539062 24.492188 28.019531 24.546875 27.691406 24.300781 C 27.34375 24.039062 27.273438 23.539062 27.539062 23.191406 L 28.953125 21.285156 Z M 20.117188 19.699219 L 18.941406 19.699219 L 18.941406 23.667969 C 18.941406 24.101562 18.59375 24.460938 18.15625 24.460938 C 17.722656 24.460938 17.371094 24.101562 17.371094 23.667969 L 17.371094 19.699219 L 16.195312 19.699219 C 15.761719 19.699219 15.410156 19.34375 15.410156 18.90625 C 15.410156 18.46875 15.761719 18.113281 16.195312 18.113281 L 20.117188 18.113281 C 20.558594 18.113281 20.902344 18.46875 20.902344 18.90625 C 20.902344 19.34375 20.558594 19.699219 20.117188 19.699219 Z M 22.417969 23.96875 C 22.253906 24.375 21.789062 24.570312 21.390625 24.398438 C 20.988281 24.230469 20.800781 23.761719 20.964844 23.367188 L 22.925781 18.605469 C 23.050781 18.304688 23.335938 18.113281 23.648438 18.113281 C 23.96875 18.113281 24.253906 18.304688 24.378906 18.605469 L 26.339844 23.367188 C 26.503906 23.761719 26.316406 24.230469 25.917969 24.398438 C 25.53125 24.5625 25.054688 24.363281 24.886719 23.96875 L 24.761719 23.667969 L 22.542969 23.667969 Z M 22.417969 23.96875 " fill-opacity="1" fill-rule="nonzero"/></g><g clip-path="url(#beee56aac1)"><path fill="#000000" d="M 39.726562 20.628906 L 38.855469 20.082031 L 38.855469 25.128906 L 41.210938 23.996094 L 41.210938 23.324219 C 41.210938 22.226562 40.65625 21.21875 39.726562 20.628906 Z M 39.726562 20.628906 " fill-opacity="1" fill-rule="nonzero"/></g><g clip-path="url(#2e18ea7179)"><path fill="#000000" d="M 22.261719 33.253906 C 22.25 33.25 11.851562 28.242188 6.683594 25.753906 L 6.683594 40.328125 C 6.683594 42.082031 8.089844 43.503906 9.824219 43.503906 L 38.070312 43.503906 C 39.800781 43.503906 41.210938 42.082031 41.210938 40.328125 L 41.210938 25.753906 L 25.632812 33.253906 C 24.570312 33.765625 23.28125 33.746094 22.261719 33.253906 Z M 32.578125 38.742188 L 37.285156 38.742188 C 37.71875 38.742188 38.070312 39.097656 38.070312 39.535156 C 38.070312 39.976562 37.71875 40.328125 37.285156 40.328125 L 32.578125 40.328125 C 32.144531 40.328125 31.792969 39.976562 31.792969 39.535156 C 31.792969 39.097656 32.144531 38.742188 32.578125 38.742188 Z M 32.578125 38.742188 " fill-opacity="1" fill-rule="nonzero"/></g><g clip-path="url(#ad05f3fc60)"><path fill="#000000" d="M 9.039062 20.082031 L 8.167969 20.628906 C 7.238281 21.21875 6.683594 22.226562 6.683594 23.324219 L 6.683594 23.996094 L 9.039062 25.128906 Z M 9.039062 20.082031 " fill-opacity="1" fill-rule="nonzero"/></g></svg>