<svg xmlns="http://www.w3.org/2000/svg" xmlns:xlink="http://www.w3.org/1999/xlink" width="64" zoomAndPan="magnify" viewBox="0 0 48 48" height="64" preserveAspectRatio="xMidYMid meet" version="1.0"><defs><clipPath id="48afa4e52b"><path d="M 17 4.691406 L 31 4.691406 L 31 9 L 17 9 Z M 17 4.691406 " clip-rule="nonzero"/></clipPath><clipPath id="98493b8d6b"><path d="M 2 10 L 46 10 L 46 42.160156 L 2 42.160156 Z M 2 10 " clip-rule="nonzero"/></clipPath></defs><g clip-path="url(#48afa4e52b)"><path fill="#000000" d="M 19.84375 4.714844 C 19.359375 4.714844 18.898438 5.121094 18.765625 5.582031 L 17.890625 8.058594 C 17.757812 8.519531 18.070312 8.925781 18.550781 8.925781 L 29.496094 8.925781 C 29.980469 8.925781 30.289062 8.519531 30.15625 8.058594 L 29.28125 5.582031 C 29.148438 5.121094 28.6875 4.714844 28.207031 4.714844 Z M 19.84375 4.714844 " fill-opacity="1" fill-rule="evenodd"/></g><g clip-path="url(#98493b8d6b)"><path fill="#000000" d="M 31.503906 27.59375 L 16.542969 27.59375 C 15.910156 27.59375 15.765625 28.324219 16.058594 29.027344 C 16.671875 30.519531 18.308594 31.929688 19.863281 31.523438 L 28.183594 31.523438 C 29.792969 31.523438 31.375 30.519531 31.988281 29.027344 C 32.28125 28.324219 32.132812 27.6875 31.503906 27.59375 Z M 6.980469 27.535156 C 6.710938 28.359375 6.398438 29.996094 7.875 30.53125 C 9.085938 30.96875 11.636719 31.289062 12.996094 31.496094 C 14.300781 31.6875 14.628906 30.921875 14.175781 29.777344 C 13.328125 27.65625 11.414062 27.207031 9.617188 26.898438 C 7.824219 26.589844 7.183594 26.914062 6.980469 27.535156 Z M 38.429688 26.898438 C 36.636719 27.207031 34.71875 27.65625 33.875 29.777344 C 33.417969 30.921875 33.746094 31.6875 35.054688 31.496094 C 36.414062 31.289062 38.960938 30.972656 40.171875 30.53125 C 41.652344 29.996094 41.339844 28.359375 41.066406 27.535156 C 40.863281 26.914062 40.226562 26.589844 38.429688 26.898438 Z M 24.023438 12.605469 C 21.21875 12.609375 18.1875 12.707031 15.621094 12.882812 C 14.652344 12.949219 13.761719 13.46875 13.160156 14.433594 C 11.875 16.503906 10.730469 18.449219 10.011719 20.617188 C 10.011719 20.617188 18.054688 21.414062 24.023438 21.414062 C 29.996094 21.414062 38.039062 20.617188 38.039062 20.617188 C 37.316406 18.449219 36.175781 16.503906 34.890625 14.433594 C 34.292969 13.46875 33.398438 12.949219 32.425781 12.882812 C 29.863281 12.707031 26.828125 12.609375 24.023438 12.605469 Z M 24.023438 10.660156 C 27.28125 10.660156 30.609375 10.644531 33.789062 11.085938 C 35.265625 11.289062 36.214844 12.152344 36.898438 13.148438 C 38.449219 15.421875 39.453125 17.820312 40.328125 20.25 L 44.226562 20.25 C 45.3125 20.25 45.964844 21.089844 45.679688 22.132812 C 45.371094 23.285156 45.019531 23.851562 43.3125 24.246094 L 42.664062 24.394531 C 43.171875 25.355469 43.542969 26.375 43.542969 27.285156 L 43.542969 34.746094 C 43.542969 35.996094 42.675781 37.050781 41.664062 37.445312 L 41.664062 40.9375 C 41.664062 41.617188 41.113281 42.167969 40.425781 42.167969 L 36.914062 42.167969 C 36.230469 42.167969 35.679688 41.617188 35.679688 40.9375 L 35.679688 37.617188 L 12.371094 37.617188 L 12.371094 40.9375 C 12.371094 41.617188 11.820312 42.167969 11.132812 42.167969 L 7.625 42.167969 C 6.9375 42.167969 6.386719 41.617188 6.386719 40.9375 L 6.386719 37.445312 C 5.375 37.050781 4.503906 36 4.503906 34.746094 L 4.503906 27.285156 C 4.503906 26.375 4.875 25.355469 5.382812 24.394531 L 4.730469 24.246094 C 3.03125 23.851562 2.679688 23.289062 2.367188 22.132812 C 2.089844 21.089844 2.738281 20.25 3.820312 20.25 L 7.722656 20.25 C 8.597656 17.824219 9.597656 15.421875 11.152344 13.148438 C 11.832031 12.152344 12.785156 11.289062 14.257812 11.085938 C 17.441406 10.644531 20.765625 10.660156 24.023438 10.660156 Z M 24.023438 10.660156 " fill-opacity="1" fill-rule="evenodd"/></g></svg>