<svg xmlns="http://www.w3.org/2000/svg" xmlns:xlink="http://www.w3.org/1999/xlink" width="64" zoomAndPan="magnify" viewBox="0 0 48 48" height="64" preserveAspectRatio="xMidYMid meet" version="1.0"><defs><clipPath id="152693ca01"><path d="M 26 3.113281 L 35 3.113281 L 35 11 L 26 11 Z M 26 3.113281 " clip-rule="nonzero"/></clipPath><clipPath id="0fd23f7634"><path d="M 8 23 L 25 23 L 25 44.253906 L 8 44.253906 Z M 8 23 " clip-rule="nonzero"/></clipPath><clipPath id="c48d91812a"><path d="M 25 21 L 40 21 L 40 44.253906 L 25 44.253906 Z M 25 21 " clip-rule="nonzero"/></clipPath><clipPath id="65a2df3c1e"><path d="M 8 23 L 25 23 L 25 44.253906 L 8 44.253906 Z M 8 23 " clip-rule="nonzero"/></clipPath></defs><g clip-path="url(#152693ca01)"><path fill="#000000" d="M 34.554688 6.875 C 34.554688 8.953125 32.78125 10.636719 30.59375 10.636719 C 28.402344 10.636719 26.628906 8.953125 26.628906 6.875 C 26.628906 4.796875 28.402344 3.113281 30.59375 3.113281 C 32.78125 3.113281 34.554688 4.796875 34.554688 6.875 Z M 34.554688 6.875 " fill-opacity="1" fill-rule="nonzero"/></g><g clip-path="url(#0fd23f7634)"><path fill="#000000" d="M 8.765625 24.859375 C 8.921875 25.8125 11.730469 44.257812 11.730469 44.257812 L 21.945312 44.257812 C 21.945312 44.257812 23.980469 25.445312 24.015625 24.859375 C 24.945312 24.765625 25.160156 23.953125 23.863281 23.953125 C 22.046875 23.953125 10.527344 23.945312 9.214844 23.953125 C 7.898438 23.964844 8.042969 24.78125 8.765625 24.859375 Z M 8.765625 24.859375 " fill-opacity="1" fill-rule="nonzero"/></g><path fill="#000000" d="M 10.632812 20.117188 C 13.21875 19.316406 14.25 16.574219 14.671875 15.453125 C 16.839844 16.445312 20.699219 17.296875 23.492188 16.65625 C 24.042969 19.578125 19.296875 19.5625 20.050781 22.222656 C 18.792969 20.824219 12.339844 24.074219 10.632812 20.117188 Z M 10.632812 20.117188 " fill-opacity="1" fill-rule="nonzero"/><path fill="#000000" d="M 14.371094 11.238281 L 35.152344 11.089844 C 35.0625 11.601562 40.179688 19.742188 39.488281 21.171875 C 38.875 21.234375 29.472656 21.921875 29.472656 21.921875 C 30.382812 20.511719 27.527344 15.453125 27.527344 15.453125 Z M 14.371094 11.238281 " fill-opacity="1" fill-rule="nonzero"/><g clip-path="url(#c48d91812a)"><path fill="#000000" d="M 39.339844 22.375 L 29.472656 21.921875 C 29.472656 21.921875 25.949219 43.496094 25.882812 43.742188 C 25.816406 43.992188 26.160156 44.125 26.332031 43.894531 C 26.503906 43.664062 33.957031 31.554688 33.957031 31.554688 C 33.957031 31.554688 36.910156 43.699219 36.945312 43.894531 C 36.984375 44.089844 37.503906 44.074219 37.542969 43.894531 C 37.585938 43.710938 39.339844 22.375 39.339844 22.375 Z M 39.339844 22.375 " fill-opacity="1" fill-rule="nonzero"/></g><path fill="#ffffff" d="M 12.207031 43.660156 L 21.402344 43.660156 C 21.402344 43.660156 24.226562 24.777344 23.0625 24.777344 C 22.789062 24.777344 10.136719 24.773438 9.875 24.777344 C 8.691406 24.785156 12.207031 43.660156 12.207031 43.660156 Z M 12.207031 43.660156 " fill-opacity="1" fill-rule="nonzero"/><g clip-path="url(#65a2df3c1e)"><path stroke-linecap="butt" transform="matrix(0.149503, 0, 0, 0.150486, 8.220593, 3.112482)" fill="none" stroke-linejoin="miter" d="M 26.664632 269.444938 L 88.170569 269.444938 C 88.170569 269.444938 107.061305 143.966021 99.275082 143.966021 C 97.446103 143.966021 12.816652 143.940064 11.066058 143.966021 C 3.149193 144.017936 26.664632 269.444938 26.664632 269.444938 Z M 26.664632 269.444938 " stroke="#000000" stroke-width="1" stroke-opacity="1" stroke-miterlimit="4"/></g><path fill="#000000" d="M 16.292969 24.582031 L 17.085938 24.582031 L 17.085938 43.742188 L 16.292969 43.742188 Z M 16.292969 24.582031 " fill-opacity="1" fill-rule="nonzero"/><path fill="#000000" d="M 20.089844 43.800781 L 19.335938 43.738281 L 20.585938 24.574219 L 21.34375 24.636719 Z M 20.089844 43.800781 " fill-opacity="1" fill-rule="nonzero"/><path fill="#000000" d="M 13.410156 43.847656 L 14.164062 43.789062 L 12.914062 24.625 L 12.160156 24.6875 Z M 13.410156 43.847656 " fill-opacity="1" fill-rule="nonzero"/><path fill="#000000" d="M 9.511719 27.671875 L 23.613281 27.671875 L 23.613281 28.515625 L 9.511719 28.515625 Z M 9.511719 27.671875 " fill-opacity="1" fill-rule="nonzero"/><path fill="#000000" d="M 10.160156 31.78125 L 23.117188 31.78125 L 23.117188 32.628906 L 10.160156 32.628906 Z M 10.160156 31.78125 " fill-opacity="1" fill-rule="nonzero"/><path fill="#000000" d="M 10.660156 35.695312 L 22.667969 35.695312 L 22.667969 36.542969 L 10.660156 36.542969 Z M 10.660156 35.695312 " fill-opacity="1" fill-rule="nonzero"/><path fill="#000000" d="M 11.257812 39.609375 L 22.171875 39.609375 L 22.171875 40.453125 L 11.257812 40.453125 Z M 11.257812 39.609375 " fill-opacity="1" fill-rule="nonzero"/></svg>