<svg xmlns="http://www.w3.org/2000/svg" xmlns:xlink="http://www.w3.org/1999/xlink" width="64" zoomAndPan="magnify" viewBox="0 0 48 48" height="64" preserveAspectRatio="xMidYMid meet" version="1.0"><defs><clipPath id="57be973fbc"><path d="M 4.230469 12 L 13 12 L 13 24 L 4.230469 24 Z M 4.230469 12 " clip-rule="nonzero"/></clipPath><clipPath id="8e6195df17"><path d="M 24 4.703125 L 33 4.703125 L 33 15 L 24 15 Z M 24 4.703125 " clip-rule="nonzero"/></clipPath><clipPath id="0eb8dae78a"><path d="M 9 34 L 18 34 L 18 42.90625 L 9 42.90625 Z M 9 34 " clip-rule="nonzero"/></clipPath><clipPath id="93c1159c31"><path d="M 29 34 L 38 34 L 38 42.90625 L 29 42.90625 Z M 29 34 " clip-rule="nonzero"/></clipPath><clipPath id="318d3135c2"><path d="M 4.230469 24 L 13 24 L 13 36 L 4.230469 36 Z M 4.230469 24 " clip-rule="nonzero"/></clipPath><clipPath id="a7795f55d3"><path d="M 14 33 L 23 33 L 23 42.90625 L 14 42.90625 Z M 14 33 " clip-rule="nonzero"/></clipPath><clipPath id="8cdb808947"><path d="M 14 4.703125 L 23 4.703125 L 23 15 L 14 15 Z M 14 4.703125 " clip-rule="nonzero"/></clipPath><clipPath id="23793b197e"><path d="M 24 33 L 33 33 L 33 42.90625 L 24 42.90625 Z M 24 33 " clip-rule="nonzero"/></clipPath></defs><g clip-path="url(#57be973fbc)"><path fill="#000000" d="M 12.75 14.628906 C 11.015625 14.03125 9.433594 13.285156 8.054688 12.410156 C 5.792969 15.433594 4.398438 19.144531 4.238281 23.164062 L 11.488281 23.164062 C 11.554688 20.105469 12 17.214844 12.75 14.628906 Z M 12.75 14.628906 " fill-opacity="1" fill-rule="nonzero"/></g><path fill="#000000" d="M 33.757812 13.167969 C 35.316406 12.632812 36.738281 11.972656 37.988281 11.199219 C 35.625 8.519531 32.53125 6.496094 29.019531 5.453125 C 30.976562 7.222656 32.617188 9.902344 33.757812 13.167969 Z M 33.757812 13.167969 " fill-opacity="1" fill-rule="nonzero"/><path fill="#000000" d="M 17.917969 5.476562 C 14.445312 6.53125 11.386719 8.542969 9.042969 11.199219 C 10.277344 11.960938 11.683594 12.613281 13.21875 13.144531 C 14.351562 9.90625 15.980469 7.246094 17.917969 5.476562 Z M 17.917969 5.476562 " fill-opacity="1" fill-rule="nonzero"/><g clip-path="url(#8e6195df17)"><path fill="#000000" d="M 32.308594 13.617188 C 30.585938 8.625 27.660156 5.191406 24.292969 4.710938 L 24.292969 14.769531 C 27.121094 14.707031 29.84375 14.308594 32.308594 13.617188 Z M 32.308594 13.617188 " fill-opacity="1" fill-rule="nonzero"/></g><g clip-path="url(#0eb8dae78a)"><path fill="#000000" d="M 13.21875 34.746094 C 11.683594 35.277344 10.277344 35.929688 9.042969 36.695312 C 11.386719 39.351562 14.445312 41.359375 17.917969 42.414062 C 15.980469 40.644531 14.351562 37.988281 13.21875 34.746094 Z M 13.21875 34.746094 " fill-opacity="1" fill-rule="nonzero"/></g><g clip-path="url(#93c1159c31)"><path fill="#000000" d="M 29.019531 42.441406 C 32.53125 41.394531 35.625 39.375 37.988281 36.695312 C 36.738281 35.921875 35.316406 35.261719 33.757812 34.726562 C 32.617188 37.992188 30.976562 40.667969 29.019531 42.441406 Z M 29.019531 42.441406 " fill-opacity="1" fill-rule="nonzero"/></g><path fill="#000000" d="M 35.480469 23.164062 L 42.796875 23.164062 C 42.636719 19.144531 41.242188 15.433594 38.980469 12.410156 C 37.582031 13.296875 35.980469 14.046875 34.226562 14.648438 C 34.96875 17.230469 35.414062 20.113281 35.480469 23.164062 Z M 35.480469 23.164062 " fill-opacity="1" fill-rule="nonzero"/><path fill="#000000" d="M 34.226562 33.246094 C 35.980469 33.84375 37.582031 34.597656 38.980469 35.484375 C 41.242188 32.457031 42.636719 28.742188 42.796875 24.71875 L 35.480469 24.71875 C 35.414062 27.773438 34.972656 30.660156 34.226562 33.246094 Z M 34.226562 33.246094 " fill-opacity="1" fill-rule="nonzero"/><g clip-path="url(#318d3135c2)"><path fill="#000000" d="M 11.488281 24.71875 L 4.238281 24.71875 C 4.394531 28.742188 5.789062 32.453125 8.054688 35.480469 C 9.433594 34.609375 11.015625 33.863281 12.75 33.265625 C 12 30.675781 11.554688 27.78125 11.488281 24.71875 Z M 11.488281 24.71875 " fill-opacity="1" fill-rule="nonzero"/></g><path fill="#000000" d="M 13.042969 24.71875 C 13.105469 27.625 13.519531 30.371094 14.207031 32.8125 C 16.835938 32.066406 19.738281 31.636719 22.738281 31.570312 L 22.738281 24.71875 Z M 13.042969 24.71875 " fill-opacity="1" fill-rule="nonzero"/><path fill="#000000" d="M 22.738281 16.320312 C 19.738281 16.257812 16.835938 15.828125 14.207031 15.082031 C 13.519531 17.519531 13.105469 20.257812 13.042969 23.164062 L 22.738281 23.164062 Z M 22.738281 16.320312 " fill-opacity="1" fill-rule="nonzero"/><g clip-path="url(#a7795f55d3)"><path fill="#000000" d="M 22.738281 43.191406 L 22.738281 33.125 C 19.890625 33.1875 17.148438 33.589844 14.667969 34.292969 C 16.398438 39.304688 19.347656 42.746094 22.738281 43.191406 Z M 22.738281 43.191406 " fill-opacity="1" fill-rule="nonzero"/></g><g clip-path="url(#8cdb808947)"><path fill="#000000" d="M 22.738281 4.703125 C 19.347656 5.144531 16.398438 8.585938 14.667969 13.601562 C 17.144531 14.300781 19.890625 14.707031 22.738281 14.769531 Z M 22.738281 4.703125 " fill-opacity="1" fill-rule="nonzero"/></g><path fill="#000000" d="M 24.292969 31.574219 C 27.273438 31.636719 30.15625 32.058594 32.769531 32.796875 C 33.453125 30.359375 33.863281 27.621094 33.925781 24.71875 L 24.292969 24.71875 Z M 24.292969 31.574219 " fill-opacity="1" fill-rule="nonzero"/><g clip-path="url(#23793b197e)"><path fill="#000000" d="M 24.292969 43.183594 C 27.664062 42.703125 30.585938 39.265625 32.308594 34.277344 C 29.84375 33.585938 27.121094 33.1875 24.292969 33.125 Z M 24.292969 43.183594 " fill-opacity="1" fill-rule="nonzero"/></g><path fill="#000000" d="M 33.925781 23.164062 C 33.863281 20.265625 33.453125 17.53125 32.769531 15.097656 C 30.15625 15.835938 27.273438 16.257812 24.292969 16.320312 L 24.292969 23.164062 Z M 33.925781 23.164062 " fill-opacity="1" fill-rule="nonzero"/></svg>