<svg xmlns="http://www.w3.org/2000/svg" xmlns:xlink="http://www.w3.org/1999/xlink" width="64" zoomAndPan="magnify" viewBox="0 0 48 48" height="64" preserveAspectRatio="xMidYMid meet" version="1.0"><defs><clipPath id="45682c5560"><path d="M 6.816406 2.933594 L 34 2.933594 L 34 44 L 6.816406 44 Z M 6.816406 2.933594 " clip-rule="nonzero"/></clipPath><clipPath id="dfe9c6c37f"><path d="M 25 24 L 41.347656 24 L 41.347656 44.074219 L 25 44.074219 Z M 25 24 " clip-rule="nonzero"/></clipPath></defs><g clip-path="url(#45682c5560)"><path fill="#000000" d="M 27.230469 41.292969 C 27.222656 41.285156 27.21875 41.277344 27.210938 41.269531 C 27.164062 41.21875 27.121094 41.167969 27.078125 41.117188 C 27.070312 41.109375 27.0625 41.101562 27.054688 41.089844 C 27.007812 41.039062 26.964844 40.988281 26.921875 40.9375 C 26.917969 40.929688 26.910156 40.921875 26.90625 40.917969 C 26.863281 40.863281 26.820312 40.808594 26.777344 40.753906 C 26.777344 40.753906 26.773438 40.75 26.773438 40.75 C 26.730469 40.695312 26.6875 40.640625 26.644531 40.585938 C 26.640625 40.574219 26.632812 40.566406 26.625 40.558594 C 26.585938 40.503906 26.546875 40.453125 26.507812 40.398438 C 26.5 40.386719 26.492188 40.378906 26.484375 40.367188 C 26.449219 40.3125 26.410156 40.257812 26.371094 40.203125 C 26.367188 40.195312 26.359375 40.1875 26.355469 40.179688 C 26.316406 40.125 26.277344 40.070312 26.242188 40.011719 C 26.242188 40.007812 26.238281 40.007812 26.238281 40.003906 C 26.199219 39.949219 26.164062 39.890625 26.125 39.832031 C 26.121094 39.824219 26.113281 39.8125 26.109375 39.804688 C 26.074219 39.75 26.039062 39.691406 26.007812 39.636719 C 26 39.625 25.992188 39.613281 25.988281 39.601562 C 25.953125 39.546875 25.921875 39.488281 25.886719 39.429688 C 25.882812 39.421875 25.878906 39.414062 25.875 39.40625 C 25.839844 39.347656 25.808594 39.285156 25.773438 39.226562 C 25.773438 39.222656 25.773438 39.222656 25.773438 39.222656 C 25.742188 39.160156 25.707031 39.101562 25.675781 39.039062 C 25.671875 39.027344 25.667969 39.019531 25.664062 39.011719 C 25.632812 38.953125 25.605469 38.890625 25.574219 38.832031 C 25.570312 38.820312 25.5625 38.808594 25.558594 38.800781 C 25.53125 38.738281 25.503906 38.679688 25.476562 38.621094 C 25.472656 38.609375 25.464844 38.601562 25.460938 38.589844 C 25.433594 38.527344 25.40625 38.464844 25.378906 38.398438 C 25.253906 38.109375 25.144531 37.816406 25.046875 37.515625 C 25.019531 37.429688 24.992188 37.34375 24.96875 37.257812 C 24.929688 37.128906 24.894531 36.996094 24.859375 36.867188 C 24.839844 36.777344 24.816406 36.691406 24.796875 36.601562 C 24.738281 36.335938 24.6875 36.066406 24.648438 35.796875 C 24.632812 35.707031 24.621094 35.613281 24.609375 35.523438 C 24.585938 35.339844 24.570312 35.15625 24.554688 34.972656 C 24.535156 34.695312 24.527344 34.414062 24.527344 34.132812 L 24.527344 26.507812 C 24.527344 26.460938 24.535156 26.417969 24.546875 26.378906 C 24.566406 26.320312 24.601562 26.265625 24.644531 26.21875 C 24.675781 26.191406 24.710938 26.164062 24.75 26.144531 C 24.765625 26.136719 24.789062 26.128906 24.808594 26.121094 L 33.015625 23.519531 C 31.617188 19.550781 29.175781 14.578125 26.40625 10.089844 C 25.097656 7.964844 23.84375 6.160156 22.777344 4.871094 C 21.214844 2.988281 20.652344 2.933594 20.59375 2.933594 C 20.515625 2.933594 19.777344 3.015625 17.601562 5.898438 C 16.140625 7.835938 14.464844 10.46875 12.878906 13.316406 C 11.164062 16.398438 9.699219 19.464844 8.640625 22.1875 C 7.449219 25.257812 6.820312 27.800781 6.820312 29.546875 C 6.820312 31.394531 7.183594 33.1875 7.902344 34.875 C 8.59375 36.503906 9.585938 37.96875 10.851562 39.226562 C 12.113281 40.484375 13.585938 41.46875 15.222656 42.160156 C 16.917969 42.871094 18.722656 43.234375 20.578125 43.234375 C 22.972656 43.234375 25.3125 42.621094 27.375 41.453125 C 27.375 41.449219 27.375 41.449219 27.375 41.449219 C 27.324219 41.398438 27.277344 41.347656 27.230469 41.292969 Z M 13.707031 38.628906 C 13.625 38.730469 13.507812 38.78125 13.390625 38.78125 C 13.300781 38.78125 13.210938 38.75 13.136719 38.691406 C 12.792969 38.414062 12.457031 38.113281 12.144531 37.800781 C 10.976562 36.636719 10.058594 35.285156 9.417969 33.777344 C 8.753906 32.21875 8.417969 30.5625 8.417969 28.855469 C 8.417969 28.632812 8.601562 28.453125 8.824219 28.453125 C 9.046875 28.453125 9.230469 28.632812 9.230469 28.855469 C 9.230469 30.457031 9.542969 32.007812 10.164062 33.464844 C 10.765625 34.875 11.621094 36.140625 12.71875 37.230469 C 13.011719 37.523438 13.324219 37.804688 13.644531 38.0625 C 13.820312 38.203125 13.847656 38.457031 13.707031 38.628906 Z M 16.71875 40.296875 C 16.652344 40.453125 16.5 40.542969 16.34375 40.542969 C 16.292969 40.542969 16.238281 40.535156 16.1875 40.511719 C 15.6875 40.300781 15.203125 40.058594 14.738281 39.792969 C 14.542969 39.679688 14.480469 39.433594 14.589844 39.238281 C 14.703125 39.046875 14.953125 38.984375 15.144531 39.09375 C 15.582031 39.347656 16.035156 39.574219 16.503906 39.769531 C 16.707031 39.855469 16.804688 40.09375 16.71875 40.296875 Z M 16.71875 40.296875 " fill-opacity="1" fill-rule="nonzero"/></g><g clip-path="url(#dfe9c6c37f)"><path fill="#000000" d="M 33.457031 24.300781 L 33.34375 24.265625 L 25.335938 26.800781 L 25.335938 34.132812 C 25.335938 34.21875 25.339844 34.308594 25.339844 34.394531 C 25.371094 35.695312 25.636719 36.9375 26.125 38.085938 C 26.628906 39.265625 27.363281 40.328125 28.308594 41.246094 C 29.640625 42.542969 31.378906 43.519531 33.34375 44.078125 C 35.699219 43.410156 37.6875 42.164062 39.097656 40.46875 C 40.570312 38.703125 41.347656 36.511719 41.347656 34.132812 L 41.347656 26.800781 Z M 37.839844 32.265625 L 33.402344 36.464844 C 33.230469 36.625 33 36.71875 32.761719 36.71875 C 32.75 36.71875 32.734375 36.71875 32.722656 36.714844 C 32.472656 36.707031 32.234375 36.59375 32.066406 36.40625 L 30.203125 34.304688 C 29.863281 33.925781 29.898438 33.339844 30.285156 33.003906 C 30.667969 32.667969 31.253906 32.703125 31.59375 33.085938 L 32.820312 34.46875 L 36.5625 30.929688 C 36.933594 30.578125 37.519531 30.59375 37.871094 30.960938 C 38.226562 31.332031 38.210938 31.914062 37.839844 32.265625 Z M 37.839844 32.265625 " fill-opacity="1" fill-rule="nonzero"/></g></svg>